<svg xmlns="http://www.w3.org/2000/svg"><symbol id="btn-previous" viewBox="0 0 196 196"><path fill="none" stroke="#fff" stroke-linecap="round" stroke-miterlimit="10" stroke-width="28" d="M150 98H46m34.4 34.4L46.1 98.1m34.3-34.3L46.1 98"/></symbol><symbol id="btn-next" viewBox="0 0 196 196"><path fill="none" stroke="#fff" stroke-linecap="round" stroke-miterlimit="10" stroke-width="28" d="M46 98h104m-34.4 34.4l34.3-34.3m-34.3-34.3L149.9 98"/></symbol><symbol id="error-field" viewBox="0 0 196 196"><path fill="#000001" d="M86.3 146.5c0-4.8.9-8.2 2.8-10.2a9.9 9.9 0 0 1 7.7-3.1 9.8 9.8 0 0 1 7.9 3.3c1.8 2.1 2.8 5.5 2.8 10s-1 7.3-2.8 9.5a10.8 10.8 0 0 1-15.6.1c-1.9-2.2-2.8-5.4-2.8-9.6zm1.1-110.8h18.5l-2.1 85.2h-14z"/><circle cx="96.9" cy="97.6" r="83.4" fill="none" stroke="#000001" stroke-linecap="round" stroke-miterlimit="10" stroke-width="10"/></symbol><symbol id="error" viewBox="0 0 196 196"><path fill="#ef6543" d="M92.9 44.4l-55.7 96.5A12.1 12.1 0 0 0 47.7 159h111.4a12.1 12.1 0 0 0 10.5-18.1l-55.8-96.5a12 12 0 0 0-20.9 0z"/><path fill="none" stroke="#000001" stroke-linecap="round" stroke-miterlimit="10" stroke-width="10" d="M79.8 42.5L27.6 133a11.3 11.3 0 0 0 9.8 17h104.5a11.3 11.3 0 0 0 9.8-17L99.4 42.5a11.3 11.3 0 0 0-19.6 0z"/><path fill="#000001" d="M83.5 129c0-2.8.5-4.8 1.7-6a6.6 6.6 0 0 1 9.2.1A9.4 9.4 0 0 1 96 129a8.5 8.5 0 0 1-1.7 5.6 5.4 5.4 0 0 1-4.6 2 5.5 5.5 0 0 1-4.5-1.9c-1.2-1.3-1.7-3.2-1.7-5.7zm.7-65.4h10.9l-1.3 50.3h-8.2z"/></symbol><symbol id="icon-cart" viewBox="0 0 196 196"><g fill="#fff"><path d="M179.4 60.8a9 9 0 0 0-4-1.3l-27.5-2.7h-.3l-9.3-.9c-6-.7-12-1.6-18-2.2l-11.9-1.2L96.7 51l-7.8-.8-12.7-1.5-11.3-1.1c-1.5-.2-3-.2-4.4-.5h-.3l-1.3-12.8a8 8 0 0 0-.5-2.1 9.4 9.4 0 0 0-6.3-7.3l-25.7-8.8a9.7 9.7 0 0 0-12.2 6l-.2.6a9.7 9.7 0 0 0 6 12.2L40.8 42l6.8 68.1c.1.4.1.7.2 1s-.6 3.5-.9 5.2c-1 5.9-2.1 11.7-3.1 17.6-.5 2.7-.9 5.4.5 8a8.6 8.6 0 0 0 8.1 4.9h107.3a8.9 8.9 0 1 0 .7-17.8H62.8c.6-3.5 1.1-7 1.8-10.4 0-.4.5-.8.9-.9h.2l104.9.3a8.4 8.4 0 0 0 9.3-7.6l4.1-41.2a8.7 8.7 0 0 0-4.6-8.4z"/><circle cx="65.6" cy="166.4" r="13.2"/><circle cx="144.1" cy="166.4" r="13.2"/></g></symbol><symbol id="icon-fav-ol" viewBox="0 0 196 196"><path fill="none" stroke="#000001" stroke-linecap="round" stroke-miterlimit="10" stroke-width="10" d="M185.6 69.4A47.3 47.3 0 0 0 98 44.7a47.3 47.3 0 1 0-71.4 60.4l67.1 67a6 6 0 0 0 8.6 0l67.1-67a47.5 47.5 0 0 0 16.2-35.7z"/></symbol><symbol id="icon-fav" viewBox="0 0 196 196"><path fill="#ef6543" d="M193.1 79.9a47.3 47.3 0 0 0-87.6-24.7 47.3 47.3 0 1 0-71.4 60.4l67.1 67a6 6 0 0 0 8.6 0l67.1-67a47.5 47.5 0 0 0 16.2-35.7z"/><path fill="none" stroke="#000001" stroke-linecap="round" stroke-miterlimit="10" stroke-width="10" d="M183.6 65.4A47.3 47.3 0 0 0 96 40.7a47.3 47.3 0 1 0-71.4 60.4l67.1 67a6 6 0 0 0 8.6 0l67.1-67a47.5 47.5 0 0 0 16.2-35.7z"/></symbol><symbol id="icon-newsletter-ol" viewBox="0 0 196 196"><rect width="154" height="130.17" x="21" y="32.9" fill="none" stroke="#000001" stroke-miterlimit="10" stroke-width="10" rx="11.4" ry="11.4"/><rect width="64" height="34" x="38" y="55" fill="#000001" rx="4.4" ry="4.4"/><path fill="none" stroke="#000001" stroke-linecap="round" stroke-miterlimit="10" stroke-width="4" d="M38 105h116M38 117h116M38 129h116M38 141h116"/></symbol><symbol id="icon-newsletter" viewBox="0 0 196 196"><rect width="154" height="130.17" x="32" y="43.9" fill="#8cbacd" rx="11.4" ry="11.4"/><rect width="154" height="130.17" x="21" y="32.9" fill="none" stroke="#000001" stroke-miterlimit="10" stroke-width="10" rx="11.4" ry="11.4"/><rect width="64" height="34" x="38" y="55" fill="#000001" rx="4.4" ry="4.4"/><path fill="none" stroke="#000001" stroke-linecap="round" stroke-miterlimit="10" stroke-width="4" d="M38 105h116M38 117h116M38 129h116M38 141h116"/></symbol><symbol id="icon-next-ol" viewBox="0 0 196 196"><g fill="none" stroke="#000001" stroke-linecap="round" stroke-miterlimit="10" stroke-width="10"><path d="M46 98h104m-34.4 34.4l34.3-34.3m-34.3-34.3L149.9 98"/><circle cx="98" cy="98" r="78"/></g></symbol><symbol id="icon-next" viewBox="0 0 196 196"><circle cx="108" cy="111" r="78" fill="#ffc681"/><path fill="none" stroke="#000001" stroke-linecap="round" stroke-miterlimit="10" stroke-width="10" d="M46 98h104m-34.4 34.4l34.3-34.3m-34.3-34.3L149.9 98"/><circle cx="98" cy="98" r="78" fill="none" stroke="#000001" stroke-linecap="round" stroke-miterlimit="10" stroke-width="10"/></symbol><symbol id="icon-prev-ol" viewBox="0 0 196 196"><g fill="none" stroke="#000001" stroke-linecap="round" stroke-miterlimit="10" stroke-width="10"><path d="M150 98H46m34.4 34.4L46.1 98.1m34.3-34.3L46.1 98"/><circle cx="98" cy="98" r="78"/></g></symbol><symbol id="icon-prev" viewBox="0 0 196 196"><circle cx="88" cy="105" r="78" fill="#ffc681"/><path fill="none" stroke="#000001" stroke-linecap="round" stroke-miterlimit="10" stroke-width="10" d="M150 92H46m34.4 34.4L46.1 92.1m34.3-34.3L46.1 92"/><circle cx="98" cy="92" r="78" fill="none" stroke="#000001" stroke-linecap="round" stroke-miterlimit="10" stroke-width="10"/></symbol><symbol id="icon-razor-ol" viewBox="0 0 196 196"><g fill="none" stroke="#000001" stroke-linecap="round" stroke-miterlimit="10"><path stroke-width="9.12" d="M132.6 88.2c-1.8 10.2-6.5 22.2-6.5 33.5 0 28-12.2 60.7-29.4 60.7s-29.5-32.7-29.5-60.7c0-11.3-4.9-23.2-6.8-33.4m72.7 13.9a5.8 5.8 0 0 1 5.8 5.8v8.2a5.8 5.8 0 0 1-5.8 5.9h-5"/><rect width="23.1" height="46.26" x="85.4" y="99" stroke-width="9.12" rx="11.6" ry="11.6"/><rect width="23.1" height="23.13" x="85.4" y="99" stroke-width="9.12" rx="11.6" ry="11.6"/><path stroke-width="9.53" d="M83.4 21.3L49.5 59.5a17.4 17.4 0 0 0 13 29.1h67.9c15.1 0 23.2-17.8 13.1-29.1l-33.9-38.2a17.4 17.4 0 0 0-26.2 0z"/><circle cx="97.3" cy="44.2" r="11.3" stroke-width="9.12"/><circle cx="82.8" cy="63.5" r="11.3" stroke-width="9.12"/><circle cx="110.2" cy="63.5" r="11.3" stroke-width="9.12"/></g></symbol><symbol id="icon-star-ol" viewBox="0 0 196 196"><path fill="#fff" d="M98 24.2l20.7 41.9 2.3 4.7 5.2.7 46.2 6.7-33.4 32.6-3.8 3.7.9 5.2 7.9 46-41.3-21.7-4.7-2.5-4.7 2.5L52 165.7l7.9-46 .9-5.2-3.8-3.7-33.4-32.6 46.2-6.7 5.2-.7 2.3-4.7L98 24.2m0-12a8.4 8.4 0 0 0-7.6 4.8l-22 44.6-49.3 7.2a8.4 8.4 0 0 0-4.7 14.4L50.1 118l-8.5 49.1A8.5 8.5 0 0 0 50 177a8.1 8.1 0 0 0 3.9-1L98 152.8l44.1 23.2a8.1 8.1 0 0 0 3.9 1 8.5 8.5 0 0 0 8.4-9.9l-8.5-49.1 35.7-34.8a8.4 8.4 0 0 0-4.7-14.4l-49.3-7.2-22-44.6a8.4 8.4 0 0 0-7.6-4.8z"/></symbol><symbol id="icon-razor" viewBox="0 0 196 196"><path fill="#8fcb86" d="M153.6 63.3l-33.9-38.2a17.4 17.4 0 0 0-26.2 0L59.6 63.3c-9.6 10.7-2.8 27.4 11 29 1.9 10.1 6.8 22 6.8 33.2 0 28 12.1 60.7 29.4 60.7s29.4-32.7 29.4-60.7c0-1.2.1-2.3.2-3.5h3.7a5.8 5.8 0 0 0 5.9-5.9v-8.2a5.8 5.8 0 0 0-5.6-5.8c.9-3.4 1.7-6.7 2.2-9.8 13.8-1.6 20.6-18.3 11-29z"/><path fill="none" stroke="#000001" stroke-linecap="round" stroke-miterlimit="10" stroke-width="9.12" d="M132.6 84.2c-1.8 10.2-6.5 22.2-6.5 33.5 0 28-12.2 60.7-29.4 60.7s-29.5-32.7-29.5-60.7c0-11.3-4.9-23.2-6.8-33.4m72.7 13.9a5.8 5.8 0 0 1 5.8 5.8v8.2a5.8 5.8 0 0 1-5.8 5.9h-5"/><rect width="23.1" height="46.26" x="85.4" y="95" fill="none" stroke="#000001" stroke-linecap="round" stroke-miterlimit="10" stroke-width="9.12" rx="11.6" ry="11.6"/><rect width="23.1" height="23.13" x="85.4" y="95" fill="none" stroke="#000001" stroke-linecap="round" stroke-miterlimit="10" stroke-width="9.12" rx="11.6" ry="11.6"/><path fill="none" stroke="#000001" stroke-linecap="round" stroke-miterlimit="10" stroke-width="9.53" d="M83.4 17.3L49.5 55.5a17.4 17.4 0 0 0 13 29.1h67.9c15.1 0 23.2-17.8 13.1-29.1l-33.9-38.2a17.4 17.4 0 0 0-26.2 0z"/><circle cx="97.3" cy="40.2" r="11.3" fill="none" stroke="#000001" stroke-linecap="round" stroke-miterlimit="10" stroke-width="9.12"/><circle cx="82.8" cy="59.5" r="11.3" fill="none" stroke="#000001" stroke-linecap="round" stroke-miterlimit="10" stroke-width="9.12"/><circle cx="110.2" cy="59.5" r="11.3" fill="none" stroke="#000001" stroke-linecap="round" stroke-miterlimit="10" stroke-width="9.12"/></symbol><symbol id="icon-star" viewBox="0 0 196 196"><path fill="#ffc681" d="M109.1 24.5l22 44.6 49.3 7.2a8.4 8.4 0 0 1 4.7 14.4l-35.7 34.8 8.5 49.1a8.5 8.5 0 0 1-12.3 8.9l-44.1-23.2-44.1 23.2a8.5 8.5 0 0 1-12.3-8.9l8.5-49.1-35.7-34.8a8.4 8.4 0 0 1 4.7-14.4l49.3-7.2 22-44.6a8.5 8.5 0 0 1 15.2 0z"/><path fill="#fff" d="M94 24.2l20.7 41.9 2.3 4.7 5.2.7 46.2 6.7-33.4 32.6-3.8 3.7.9 5.2 7.9 46L98.7 144l-4.7-2.5-4.7 2.5L48 165.7l7.9-46 .9-5.2-3.8-3.7-33.4-32.6 46.2-6.7 5.2-.7 2.3-4.7L94 24.2m0-12a8.4 8.4 0 0 0-7.6 4.8l-22 44.6-49.3 7.2a8.4 8.4 0 0 0-4.7 14.4L46.1 118l-8.5 49.1A8.5 8.5 0 0 0 46 177a8.1 8.1 0 0 0 3.9-1L94 152.8l44.1 23.2a8.1 8.1 0 0 0 3.9 1 8.5 8.5 0 0 0 8.4-9.9l-8.5-49.1 35.7-34.8a8.4 8.4 0 0 0-4.7-14.4l-49.3-7.2-22-44.6a8.4 8.4 0 0 0-7.6-4.8z"/></symbol><symbol id="menu" viewBox="0 0 196 196"><g fill="none" stroke="#000001" stroke-linecap="round" stroke-miterlimit="10" stroke-width="10"><circle cx="98" cy="98" r="88"/><path d="M38 98h120M50 73h96M66 49h64m16 76H50m80 24H66"/></g></symbol></svg>