<svg xmlns="http://www.w3.org/2000/svg"><symbol id="icon-newsletter-ol" viewBox="0 0 196 196"><rect width="154" height="130.17" x="21" y="32.9" fill="none" stroke="#000" stroke-miterlimit="10" stroke-width="10" rx="11.4" ry="11.4"/><rect width="64" height="34" x="38" y="55" rx="4.4" ry="4.4"/><path fill="none" stroke="#000" stroke-linecap="round" stroke-miterlimit="10" stroke-width="4" d="M38 105h116M38 117h116M38 129h116M38 141h116"/></symbol><symbol id="icon-prev-ol" viewBox="0 0 196 196"><g fill="none" stroke="#000" stroke-linecap="round" stroke-miterlimit="10" stroke-width="10"><path d="M150 98H46m34.4 34.4L46.1 98.1m34.3-34.3L46.1 98"/><circle cx="98" cy="98" r="78"/></g></symbol><symbol id="icon-next-ol" viewBox="0 0 196 196"><g fill="none" stroke="#000" stroke-linecap="round" stroke-miterlimit="10" stroke-width="10"><path d="M46 98h104m-34.4 34.4l34.3-34.3m-34.3-34.3L149.9 98"/><circle cx="98" cy="98" r="78"/></g></symbol><symbol id="icon-razor-ol" viewBox="0 0 196 196"><g fill="none" stroke="#000" stroke-linecap="round" stroke-miterlimit="10"><path stroke-width="9.12" d="M132.6 88.2c-1.8 10.2-6.5 22.2-6.5 33.5 0 28-12.2 60.7-29.4 60.7s-29.5-32.7-29.5-60.7c0-11.3-4.9-23.2-6.8-33.4m72.7 13.9a5.8 5.8 0 0 1 5.8 5.8v8.2a5.8 5.8 0 0 1-5.8 5.9h-5"/><rect width="23.1" height="46.26" x="85.4" y="99" stroke-width="9.12" rx="11.6" ry="11.6"/><rect width="23.1" height="23.13" x="85.4" y="99" stroke-width="9.12" rx="11.6" ry="11.6"/><path stroke-width="9.53" d="M83.4 21.3L49.5 59.5a17.4 17.4 0 0 0 13 29.1h67.9c15.1 0 23.2-17.8 13.1-29.1l-33.9-38.2a17.4 17.4 0 0 0-26.2 0z"/><circle cx="97.3" cy="44.2" r="11.3" stroke-width="9.12"/><circle cx="82.8" cy="63.5" r="11.3" stroke-width="9.12"/><circle cx="110.2" cy="63.5" r="11.3" stroke-width="9.12"/></g></symbol><symbol id="icon-fav-ol" viewBox="0 0 196 196"><path fill="none" stroke="#000" stroke-linecap="round" stroke-miterlimit="10" stroke-width="10" d="M185.6 69.4A47.3 47.3 0 0 0 98 44.7a47.3 47.3 0 1 0-71.4 60.4l67.1 67a6 6 0 0 0 8.6 0l67.1-67a47.5 47.5 0 0 0 16.2-35.7z"/></symbol><symbol id="btn-previous" viewBox="0 0 196 196"><path fill="none" stroke="#fff" stroke-linecap="round" stroke-miterlimit="10" stroke-width="28" d="M150 98H46m34.4 34.4L46.1 98.1m34.3-34.3L46.1 98"/></symbol><symbol id="icon-fav-ol" viewBox="0 0 196 196"><path fill="none" stroke="#000" stroke-linecap="round" stroke-miterlimit="10" stroke-width="10" d="M185.6 69.4A47.3 47.3 0 0 0 98 44.7a47.3 47.3 0 1 0-71.4 60.4l67.1 67a6 6 0 0 0 8.6 0l67.1-67a47.5 47.5 0 0 0 16.2-35.7z"/></symbol><symbol id="icon-fav" viewBox="0 0 196 196"><path fill="#f06543" d="M193.1 79.9a47.3 47.3 0 0 0-87.6-24.7 47.3 47.3 0 1 0-71.4 60.4l67.1 67a6 6 0 0 0 8.6 0l67.1-67a47.5 47.5 0 0 0 16.2-35.7z"/><path fill="none" stroke="#000" stroke-linecap="round" stroke-miterlimit="10" stroke-width="10" d="M183.6 65.4A47.3 47.3 0 0 0 96 40.7a47.3 47.3 0 1 0-71.4 60.4l67.1 67a6 6 0 0 0 8.6 0l67.1-67a47.5 47.5 0 0 0 16.2-35.7z"/></symbol><symbol id="icon-newsletter-ol" viewBox="0 0 196 196"><rect width="154" height="130.17" x="21" y="32.9" fill="none" stroke="#000" stroke-miterlimit="10" stroke-width="10" rx="11.4" ry="11.4"/><rect width="64" height="34" x="38" y="55" rx="4.4" ry="4.4"/><path fill="none" stroke="#000" stroke-linecap="round" stroke-miterlimit="10" stroke-width="4" d="M38 105h116M38 117h116M38 129h116M38 141h116"/></symbol><symbol id="icon-newsletter" viewBox="0 0 196 196"><rect width="154" height="130.17" x="32" y="43.9" fill="#8dbbce" rx="11.4" ry="11.4"/><rect width="154" height="130.17" x="21" y="32.9" fill="none" stroke="#000" stroke-miterlimit="10" stroke-width="10" rx="11.4" ry="11.4"/><rect width="64" height="34" x="38" y="55" rx="4.4" ry="4.4"/><path fill="none" stroke="#000" stroke-linecap="round" stroke-miterlimit="10" stroke-width="4" d="M38 105h116M38 117h116M38 129h116M38 141h116"/></symbol><symbol id="icon-next-ol" viewBox="0 0 196 196"><g fill="none" stroke="#000" stroke-linecap="round" stroke-miterlimit="10" stroke-width="10"><path d="M46 98h104m-34.4 34.4l34.3-34.3m-34.3-34.3L149.9 98"/><circle cx="98" cy="98" r="78"/></g></symbol><symbol id="icon-next" viewBox="0 0 196 196"><circle cx="108" cy="111" r="78" fill="#ffc782"/><path fill="none" stroke="#000" stroke-linecap="round" stroke-miterlimit="10" stroke-width="10" d="M46 98h104m-34.4 34.4l34.3-34.3m-34.3-34.3L149.9 98"/><circle cx="98" cy="98" r="78" fill="none" stroke="#000" stroke-linecap="round" stroke-miterlimit="10" stroke-width="10"/></symbol><symbol id="icon-prev-ol" viewBox="0 0 196 196"><g fill="none" stroke="#000" stroke-linecap="round" stroke-miterlimit="10" stroke-width="10"><path d="M150 98H46m34.4 34.4L46.1 98.1m34.3-34.3L46.1 98"/><circle cx="98" cy="98" r="78"/></g></symbol><symbol id="icon-prev" viewBox="0 0 196 196"><circle cx="88" cy="105" r="78" fill="#ffc782"/><path fill="none" stroke="#000" stroke-linecap="round" stroke-miterlimit="10" stroke-width="10" d="M150 92H46m34.4 34.4L46.1 92.1m34.3-34.3L46.1 92"/><circle cx="98" cy="92" r="78" fill="none" stroke="#000" stroke-linecap="round" stroke-miterlimit="10" stroke-width="10"/></symbol><symbol id="icon-razor-ol" viewBox="0 0 196 196"><g fill="none" stroke="#000" stroke-linecap="round" stroke-miterlimit="10"><path stroke-width="9.12" d="M132.6 88.2c-1.8 10.2-6.5 22.2-6.5 33.5 0 28-12.2 60.7-29.4 60.7s-29.5-32.7-29.5-60.7c0-11.3-4.9-23.2-6.8-33.4m72.7 13.9a5.8 5.8 0 0 1 5.8 5.8v8.2a5.8 5.8 0 0 1-5.8 5.9h-5"/><rect width="23.1" height="46.26" x="85.4" y="99" stroke-width="9.12" rx="11.6" ry="11.6"/><rect width="23.1" height="23.13" x="85.4" y="99" stroke-width="9.12" rx="11.6" ry="11.6"/><path stroke-width="9.53" d="M83.4 21.3L49.5 59.5a17.4 17.4 0 0 0 13 29.1h67.9c15.1 0 23.2-17.8 13.1-29.1l-33.9-38.2a17.4 17.4 0 0 0-26.2 0z"/><circle cx="97.3" cy="44.2" r="11.3" stroke-width="9.12"/><circle cx="82.8" cy="63.5" r="11.3" stroke-width="9.12"/><circle cx="110.2" cy="63.5" r="11.3" stroke-width="9.12"/></g></symbol><symbol id="icon-razor" viewBox="0 0 196 196"><path fill="#90cc87" d="M153.6 63.3l-33.9-38.2a17.4 17.4 0 0 0-26.2 0L59.6 63.3c-9.6 10.7-2.8 27.4 11 29 1.9 10.1 6.8 22 6.8 33.2 0 28 12.1 60.7 29.4 60.7s29.4-32.7 29.4-60.7c0-1.2.1-2.3.2-3.5h3.7a5.8 5.8 0 0 0 5.9-5.9v-8.2a5.8 5.8 0 0 0-5.6-5.8c.9-3.4 1.7-6.7 2.2-9.8 13.8-1.6 20.6-18.3 11-29z"/><path fill="none" stroke="#000" stroke-linecap="round" stroke-miterlimit="10" stroke-width="9.12" d="M132.6 84.2c-1.8 10.2-6.5 22.2-6.5 33.5 0 28-12.2 60.7-29.4 60.7s-29.5-32.7-29.5-60.7c0-11.3-4.9-23.2-6.8-33.4m72.7 13.9a5.8 5.8 0 0 1 5.8 5.8v8.2a5.8 5.8 0 0 1-5.8 5.9h-5"/><rect width="23.1" height="46.26" x="85.4" y="95" fill="none" stroke="#000" stroke-linecap="round" stroke-miterlimit="10" stroke-width="9.12" rx="11.6" ry="11.6"/><rect width="23.1" height="23.13" x="85.4" y="95" fill="none" stroke="#000" stroke-linecap="round" stroke-miterlimit="10" stroke-width="9.12" rx="11.6" ry="11.6"/><path fill="none" stroke="#000" stroke-linecap="round" stroke-miterlimit="10" stroke-width="9.53" d="M83.4 17.3L49.5 55.5a17.4 17.4 0 0 0 13 29.1h67.9c15.1 0 23.2-17.8 13.1-29.1l-33.9-38.2a17.4 17.4 0 0 0-26.2 0z"/><circle cx="97.3" cy="40.2" r="11.3" fill="none" stroke="#000" stroke-linecap="round" stroke-miterlimit="10" stroke-width="9.12"/><circle cx="82.8" cy="59.5" r="11.3" fill="none" stroke="#000" stroke-linecap="round" stroke-miterlimit="10" stroke-width="9.12"/><circle cx="110.2" cy="59.5" r="11.3" fill="none" stroke="#000" stroke-linecap="round" stroke-miterlimit="10" stroke-width="9.12"/></symbol><symbol id="btn-next" viewBox="0 0 196 196"><path fill="none" stroke="#fff" stroke-linecap="round" stroke-miterlimit="10" stroke-width="28" d="M46 98h104m-34.4 34.4l34.3-34.3m-34.3-34.3L149.9 98"/></symbol></svg>