<svg xmlns="http://www.w3.org/2000/svg"><symbol id="icon-account" viewBox="0 0 48.3 48.3"><circle cx="24.1" cy="24.1" r="24.1" fill="none"/><circle cx="24.1" cy="17.9" r="6.9" fill="#858740"/><path fill="#858740" d="M39.8 34.4a20.2 20.2 0 0 0-6.9-5 12 12 0 0 0 4.7-4.5 13.8 13.8 0 0 0-.3-13.9 14.6 14.6 0 0 0-13-7.2h-.2a2 2 0 0 0-2 2 2.1 2.1 0 0 0 2.1 2h.1a10.6 10.6 0 0 1 9.5 5.2c1.8 3.2 2 7 .3 9.8s-4.7 4.4-8.8 4.6a20.7 20.7 0 0 0-8.5 1 21.6 21.6 0 0 0-3.7 1.9 12.6 12.6 0 0 0-2.6 2.1l-.5.4c-3.2 3-2.3 4.4.5 6.8a10.7 10.7 0 0 0 2.2 1.5c7.3 4.5 18.2 5.8 27-3.7a2.3 2.3 0 0 0 .1-3zm-24.7 2.8L13.3 36a13.7 13.7 0 0 1 5.1-3.2c5.7-2.1 12.4-.2 16.3 3.1-8.3 7.2-17 2.9-19.6 1.3z"/></symbol><symbol id="icon-cart" viewBox="0 0 48.3 48.3"><circle cx="24.1" cy="24.1" r="24.1" fill="none"/><circle cx="35.2" cy="40.4" r="3.9" fill="#858740"/><circle cx="18.2" cy="40.8" r="3.4" fill="#858740"/><path fill="#858740" d="M42.1 12.2c-.7-1.2-1-1.7-23.3-.9h-5.5a3.6 3.6 0 0 0-.2-1C12.9 9 12.3 6 8.9 6H5a1.6 1.6 0 0 0-1.6 1.6 1.4 1.4 0 0 0 1.5 1.6h4c.6 0 .8 0 1.1 1.8s.6 3.5 3 3.6h5.9c5.3-.2 17.3-.6 20.5-.2 0 2.4-1.8 9.9-2.6 12l-1.7.3a.9.9 0 0 0-.4-.6 12.5 12.5 0 0 0-13.4-2 6.3 6.3 0 0 0-2 1.3l-.7.6-.7.6-.3.3c-2.2-2.1-3.3-5-2.7-7.4a1.3 1.3 0 0 0-1-1.6 1.3 1.3 0 0 0-1.6.9c-.8 3.5.7 7.4 3.7 10.2a4 4 0 0 0-2.2 3.7c.1 1.7 1.7 3.6 4.8 3.6h.2l18.8-1.1a1.5 1.5 0 0 0 1.5-1.6 1.5 1.5 0 0 0-1.7-1.5l-18.7 1c-1.2 0-1.7-.4-1.7-.6s.4-.9 2-1.1l6.7-.7c12.3-1.1 12.8-1.3 13.5-2.2s2.3-7.5 2.4-7.6c1.6-7 .8-8.2.5-8.7zM32 26.9h-.3l-6.3.6-2.2.2-3.1.3a6.4 6.4 0 0 1 1.5-1.3l.8-.5a10 10 0 0 1 9.1.6h.5zm.1 0z"/><path fill="#858740" d="M20.7 14.8a10.2 10.2 0 0 0-4.1 8.7 7.6 7.6 0 0 0 1.1 3.2c.1 0 .1-.1.2-.2l1.3-1.2c1.5-1.8 4-5.6 1.5-10.5z"/><path fill="#858740" d="M19.3 25.3l-.7.6-.7.6a8.1 8.1 0 0 1 1.4-1.2z"/></symbol><symbol id="icon-nav" viewBox="0 0 48.3 48.3"><circle cx="24.1" cy="24.1" r="24.1" fill="none"/><rect width="47.3" height="5.01" x=".5" y="8.7" fill="#858740" rx="2" ry="2"/><rect width="47.3" height="5.01" x=".5" y="34.7" fill="#858740" rx="2" ry="2"/><rect width="47.3" height="5.01" x=".5" y="21.7" fill="#858740" rx="2" ry="2"/></symbol><symbol id="rating" viewBox="0 0 250 48.3"><path fill="none" stroke="#3bcfd3" stroke-linecap="round" stroke-linejoin="round" stroke-width="4" d="M25.4 4.5l6.4 12.9L46 19.5 35.7 29.6l2.4 14.2-12.7-6.7-12.8 6.7 2.5-14.2L4.7 19.5 19 17.4l6.4-12.9z"/><path fill="none" stroke="#3bcfd3" stroke-linecap="round" stroke-linejoin="round" stroke-width="4" d="M25.4 4.5l6.4 12.9L46 19.5 35.7 29.6l2.4 14.2-12.7-6.7-12.8 6.7 2.5-14.2L4.7 19.5 19 17.4l6.4-12.9zm50 0l6.4 12.9L96 19.5 85.7 29.6l2.4 14.2-12.7-6.7-12.8 6.7 2.5-14.2-10.4-10.1L69 17.4l6.4-12.9zm50 0l6.4 12.9 14.2 2.1-10.3 10.1 2.4 14.2-12.7-6.7-12.8 6.7 2.5-14.2-10.4-10.1 14.3-2.1 6.4-12.9zm50 0l6.4 12.9 14.2 2.1-10.3 10.1 2.4 14.2-12.7-6.7-12.8 6.7 2.5-14.2-10.4-10.1 14.3-2.1 6.4-12.9zm50 0l6.4 12.9 14.2 2.1-10.3 10.1 2.4 14.2-12.7-6.7-12.8 6.7 2.5-14.2-10.4-10.1 14.3-2.1 6.4-12.9z"/></symbol><symbol id="icon-nav-close" viewBox="0 0 48.3 48.3"><circle cx="24.1" cy="24.1" r="24.1" fill="none"/><rect width="47.3" height="5.01" x=".5" y="21.7" fill="#858740" rx="2" ry="2" transform="rotate(-45 24.212 24.171)"/><rect width="47.3" height="5.01" x=".5" y="21.7" fill="#858740" rx="2" ry="2" transform="rotate(45 24.171 24.212)"/></symbol><symbol id="icon-currency" viewBox="0 0 48.3 48.3"><circle cx="24.1" cy="24.1" r="24.1" fill="none"/><circle cx="24.1" cy="24.1" r="17.1" fill="none" stroke="#858740" stroke-miterlimit="10" stroke-width="3.89"/><path fill="#858740" d="M25 36.7h-2.8v-3.1a9.4 9.4 0 0 1-3.9-1.1v-3.6a8.7 8.7 0 0 0 5.3 1.8 3.2 3.2 0 0 0 2-.7 2 2 0 0 0 .8-1.7.9.9 0 0 0-.1-.5c-.1-.2-.1-.4-.2-.5l-.4-.4-.5-.4-.6-.3-.7-.4-.8-.3-.7-.4a8.7 8.7 0 0 1-3.1-2 4.8 4.8 0 0 1-1.1-3.2 5.2 5.2 0 0 1 1.4-3.6 6.9 6.9 0 0 1 4-1.6v-3.1h2.8v3.1a10.3 10.3 0 0 1 2.8.8v3.4a8.8 8.8 0 0 0-4.4-1.2 3.3 3.3 0 0 0-2.1.6 1.6 1.6 0 0 0-.7 1.5 2.9 2.9 0 0 0 .2.9 2.9 2.9 0 0 0 .8.7l1 .6 1.3.6 1.7.9a7.2 7.2 0 0 1 1.5 1.1 3.5 3.5 0 0 1 1.2 1.5 5.2 5.2 0 0 1 .4 2.1 4.9 4.9 0 0 1-1.4 3.6 5.7 5.7 0 0 1-3.7 1.8z"/></symbol><symbol id="social-facebook" viewBox="0 0 48.3 48.3"><circle cx="24.1" cy="24.1" r="24.1" fill="none"/><path fill="#956672" d="M31.9 13.4V7.5h-6c-1.5 0-6.1.5-6.1 5.7v5.2h-3.4v5.5h3.3v16.9h7V24.1h4.6l.6-5.6h-5.2v-3.9a1.2 1.2 0 0 1 1.4-1.1z"/></symbol><symbol id="icon-search" viewBox="0 0 48.3 48.3"><circle cx="24.1" cy="24.1" r="24.1" fill="none"/><path fill="#858740" d="M19.2 32.8a13.4 13.4 0 1 1 13.3-13.4 13.4 13.4 0 0 1-13.3 13.4zm0-22.5a9.2 9.2 0 1 0 9.1 9.1 9.2 9.2 0 0 0-9.1-9.1z"/><path fill="#858740" d="M40.4 42.2a2.2 2.2 0 0 1-1.5-.6L26 28.7a2.1 2.1 0 0 1 3-3l12.9 12.9a2.2 2.2 0 0 1 0 3 2 2 0 0 1-1.5.6z"/></symbol><symbol id="social-pinterest" viewBox="0 0 48.3 48.3"><path fill="#956672" d="M32.8 10.2a9.7 9.7 0 0 1 4 6.7 12.9 12.9 0 0 1 .1 3.4 14.3 14.3 0 0 1-2.6 7.4 8.7 8.7 0 0 1-6.1 3.8h-2a6.2 6.2 0 0 1-3.4-1.4l-.6-.5a33.9 33.9 0 0 1-1.6 5.9 10.2 10.2 0 0 1-3.4 4.7l-.5.3V40c-.7-5 .4-9 1.5-13 .3-1.3.7-2.7 1-4a6.7 6.7 0 0 1-.6-4 7.9 7.9 0 0 1 1-2.7 3.5 3.5 0 0 1 2-1.6 3.4 3.4 0 0 1 2.2.1c2.6 1.1 1.7 3.9.8 6.7-.3.9-.6 1.8-.8 2.6s-.1 3 1.8 3.4a3.9 3.9 0 0 0 2.8-.5 6.9 6.9 0 0 0 2.6-3.3 13.3 13.3 0 0 0 .9-4.9 7.6 7.6 0 0 0-1.7-5.4 7.1 7.1 0 0 0-4.7-2.2 8.4 8.4 0 0 0-4.9 1 9.3 9.3 0 0 0-3.7 3.4 8.2 8.2 0 0 0-1.1 5.4 3.4 3.4 0 0 0 .7 1.6 3.4 3.4 0 0 1 .1 4v.2h-.3a5.9 5.9 0 0 1-3.7-2.5 9.5 9.5 0 0 1-1.3-4.3 12.8 12.8 0 0 1 3.2-8.3 12.7 12.7 0 0 1 8-3.9h1.9a13.8 13.8 0 0 1 8.4 2.6z"/><circle cx="24.1" cy="24.1" r="24.1" fill="none"/></symbol><symbol id="social-instagram" viewBox="0 0 48.3 48.3"><circle cx="24.1" cy="24.1" r="24.1" fill="none"/><path fill="none" d="M31.3 24.1a7.2 7.2 0 1 1-14.3 0 6.3 6.3 0 0 1 .6-2.7h-4v10.7a2.6 2.6 0 0 0 2.6 2.5H32a2.5 2.5 0 0 0 2.6-2.5V21.4h-3.8a8.1 8.1 0 0 1 .5 2.7z"/><path fill="none" d="M19.6 24.1a4.6 4.6 0 0 0 4.6 4.7 4.7 4.7 0 0 0 4.6-4.7 4.4 4.4 0 0 0-.9-2.7h-7.4a4.4 4.4 0 0 0-.9 2.7zM29.7 14h4.5v4.53h-4.5z"/><path fill="#956672" d="M32 11.1H16.3a5.3 5.3 0 0 0-5.2 5.2V32a5.3 5.3 0 0 0 5.2 5.2H32a5.3 5.3 0 0 0 5.2-5.2V16.3a5.3 5.3 0 0 0-5.2-5.2zM29.7 14h4.5v4.6h-4.5zm-9.2 7.4a4.7 4.7 0 0 1 3.7-1.9 4.8 4.8 0 0 1 3.7 1.9 4.4 4.4 0 0 1 .9 2.7 4.7 4.7 0 0 1-4.6 4.7 4.6 4.6 0 0 1-4.6-4.7 4.4 4.4 0 0 1 .9-2.7zm14.1 10.7a2.5 2.5 0 0 1-2.6 2.5H16.2a2.6 2.6 0 0 1-2.6-2.5V21.4h4a6.3 6.3 0 0 0-.6 2.7 7.2 7.2 0 1 0 14.3 0 8.1 8.1 0 0 0-.5-2.7h3.8z"/></symbol><symbol id="social-twitter" viewBox="0 0 48.3 48.3"><circle cx="24.1" cy="24.1" r="24.1" fill="none"/><path fill="#956672" d="M35.5 16a6.1 6.1 0 0 0 2.5-3.4 9.7 9.7 0 0 1-3.8 1.5c-1.3-1.7-4.5-2.5-6.9-1.4a6 6 0 0 0-3.4 6.8c-6.5-.1-11.4-4.7-12.3-6.2a5.9 5.9 0 0 0 1.8 8 4.7 4.7 0 0 1-2.8-.7 6.1 6.1 0 0 0 4.9 5.9c-.7.5-2.1.3-2.8.2a6 6 0 0 0 5.7 4.1 11.7 11.7 0 0 1-8.9 2.5 17.1 17.1 0 0 0 26.4-15.2 6.8 6.8 0 0 0 2.9-3.1 7.1 7.1 0 0 1-3.3 1z"/></symbol></svg>