<svg xmlns="http://www.w3.org/2000/svg"><symbol id="alert" viewBox="0 0 48.3 48.3"><circle cx="24.09" cy="30.13" r="8.42" fill="#e1577a"/><path fill="#e1577a" d="M44 32.06c-5.38-8.15-12.44-12.63-19.9-12.63H24c-7.45 0-14.45 4.51-19.71 12.62l-3-1.93C7.28 21 15.33 15.92 24 15.89h.08c8.69 0 16.8 5.05 22.84 14.22z"/><path fill="#e1577a" d="M44 32.06c-5.38-8.15-12.44-12.63-19.9-12.63H24c-7.45 0-14.45 4.51-19.71 12.62l-3-1.93C7.28 21 15.33 15.92 24 15.89h.08c8.69 0 16.8 5.05 22.84 14.22z"/><path fill="#e1577a" d="M24.11 44.35H24c-8.69 0-16.74-5.09-22.67-14.24l3-1.92C9.59 36.3 16.59 40.78 24 40.81h.07c7.46 0 14.52-4.49 19.89-12.63l3 1.94C40.91 39.3 32.8 44.35 24.11 44.35zm.01-31.76a1.89 1.89 0 0 1-1.89-1.89V4A1.89 1.89 0 0 1 26 4v6.7a1.89 1.89 0 0 1-1.88 1.89zm-12.84 3.15a1.89 1.89 0 0 1-1.82-1.4L7.71 7.82a1.89 1.89 0 0 1 3.65-1l1.75 6.52a1.9 1.9 0 0 1-1.34 2.32 2.05 2.05 0 0 1-.49.08zm25.72 0a2 2 0 0 1-.49-.06 1.9 1.9 0 0 1-1.34-2.32l1.75-6.51a1.89 1.89 0 1 1 3.65 1l-1.75 6.51A1.88 1.88 0 0 1 37 15.74z"/><circle cx="26.93" cy="27.14" r="2.83" fill="#fff"/></symbol><symbol id="arrow-next" viewBox="0 0 48.3 48.3"><path fill="none" stroke="#858740" stroke-linecap="round" stroke-linejoin="round" stroke-width="3" d="M15.53 6.9l17.24 17.25M15.53 41.39l17.24-17.24"/></symbol><symbol id="arrow-drop" viewBox="0 0 48.3 48.3"><path fill="#956672" d="M24.15 34.77a2 2 0 0 1-1.42-.59L5.49 16.94a2 2 0 0 1 2.83-2.83l17.24 17.25a2 2 0 0 1-1.41 3.41z"/><path fill="#956672" d="M24.15 34.77a2 2 0 0 1-1.42-.59 2 2 0 0 1 0-2.82L40 14.11a2 2 0 0 1 2.83 2.83L25.56 34.18a2 2 0 0 1-1.41.59z"/></symbol><symbol id="arrow-previous" viewBox="0 0 48.3 48.3"><path fill="none" stroke="#858740" stroke-linecap="round" stroke-linejoin="round" stroke-width="3" d="M32.77 6.9L15.53 24.15m17.24 17.24L15.53 24.15"/></symbol><symbol id="delete" viewBox="0 0 48.3 48.3"><circle cx="24.15" cy="24.15" r="24.15" fill="#d4d5bc"/><rect width="33.63" height="3.56" x="7.33" y="22.39" fill="#fff" rx="1.46" ry="1.46" transform="rotate(-45 24.142 24.17)"/><rect width="33.63" height="3.56" x="7.33" y="22.39" fill="#fff" rx="1.46" ry="1.46" transform="rotate(45 24.151 24.164)"/></symbol><symbol id="icon-account" viewBox="0 0 48.3 48.3"><circle cx="24.15" cy="24.15" r="24.15" fill="none"/><circle cx="24.15" cy="17.87" r="6.87" fill="#858740"/><path fill="#858740" d="M39.77 34.38a19.75 19.75 0 0 0-6.85-5 12.15 12.15 0 0 0 4.66-4.56 13.8 13.8 0 0 0-.3-13.82 14.59 14.59 0 0 0-13-7.25h-.14a2 2 0 0 0 0 4h.12A10.68 10.68 0 0 1 33.82 13a10 10 0 0 1 .29 9.82c-1.58 2.74-4.67 4.34-8.77 4.57a19.73 19.73 0 0 0-8.51 1 17.71 17.71 0 0 0-3.73 1.91 18 18 0 0 0-2.63 2.06l-.49.47c-3.17 2.94-2.25 4.33.54 6.79.69.53 1.43 1 2.18 1.5 7.26 4.44 18.16 5.81 27-3.68a2.32 2.32 0 0 0 .07-3.06zM15.1 37.21c-.62-.38-1.22-.8-1.79-1.22a13.8 13.8 0 0 1 5.08-3.23c5.74-2.08 12.43-.13 16.35 3.11-8.31 7.27-17.04 2.93-19.64 1.34z"/></symbol><symbol id="icon-cart" viewBox="0 0 48.3 48.3"><circle cx="24.15" cy="24.15" r="24.15" fill="none"/><path fill="#858740" d="M31.68 27l.15.1a1 1 0 0 0 .17-.13z"/><circle cx="35.19" cy="40.38" r="3.85" fill="#858740"/><circle cx="18.21" cy="40.8" r="3.43" fill="#858740"/><path fill="none" d="M32.1 26.86l-.1.06a1 1 0 0 1-.17.13l-.15-.1-.17-.09z"/><path fill="#858740" d="M42.11 12.18c-.69-1.16-1-1.65-23.35-.93-2.42.08-4.55.14-5.38.14a9.51 9.51 0 0 1-.23-1C12.87 9 12.33 6 8.9 6H7.44A21.67 21.67 0 0 1 5 6a1.62 1.62 0 0 0-1.65 1.57A1.6 1.6 0 0 0 4.9 9.23c1.75.06 2 0 2.65 0h1.32c.63 0 .78 0 1.1 1.76.23 1.23.64 3.51 3 3.61.62 0 2.43 0 5.84-.14 5.35-.18 17.32-.57 20.51-.19 0 2.45-1.78 10-2.62 12-.37.08-1 .17-1.65.27a1.3 1.3 0 0 0-.36-.59 12.7 12.7 0 0 0-13.47-2 10.52 10.52 0 0 0-2 1.29c-.23.27-.45.48-.61.65s-.48.43-.72.64l-.05.05c-.08.1-.17.19-.25.3-2.23-2.15-3.36-5-2.75-7.43a1.31 1.31 0 1 0-2.55-.64C11.46 22.3 13 26.2 16.05 29a4 4 0 0 0-2.25 3.7c.12 1.74 1.69 3.56 4.83 3.56h.21c3-.07 18.14-1 18.78-1a1.6 1.6 0 1 0-.19-3.19c-.15 0-15.75.92-18.68 1-1.21 0-1.74-.38-1.75-.6s.44-.85 2-1 4.07-.42 6.74-.68C38 29.6 38.54 29.4 39.18 28.53c.93-1.27 2.37-7.55 2.38-7.61 1.59-7.01.86-8.21.55-8.74zM32 26.92a1 1 0 0 1-.17.13l-.15-.1c-2.07.22-4.37.44-6.26.61-.75.08-1.5.14-2.22.2l-3.09.3a8.37 8.37 0 0 1 2.31-1.72 10.11 10.11 0 0 1 9.09.52h.59z"/><path fill="#858740" d="M32.1 26.86l-.1.06a1 1 0 0 1-.17.13l-.15-.1-.17-.09zM20.66 14.77a10.17 10.17 0 0 0-4 8.68 7.76 7.76 0 0 0 1.08 3.28l.21-.18a10.71 10.71 0 0 1 1.33-1.29 9.09 9.09 0 0 0 1.38-10.49z"/><path fill="#858740" d="M19.25 25.26c-.23.27-.45.48-.61.65s-.48.43-.72.64a9.46 9.46 0 0 1 1.33-1.29z"/></symbol><symbol id="icon-currency" viewBox="0 0 48.3 48.3"><circle cx="24.15" cy="24.15" r="24.15" fill="none"/><circle cx="24.15" cy="24.15" r="17.06" fill="none" stroke="#858740" stroke-miterlimit="10" stroke-width="3.89"/><path fill="#858740" d="M25 36.68h-2.8v-3a9.54 9.54 0 0 1-3.86-1.12v-3.63a8.74 8.74 0 0 0 5.23 1.72 3.21 3.21 0 0 0 2.05-.65 2 2 0 0 0 .78-1.68 1.48 1.48 0 0 0-.1-.57 2.67 2.67 0 0 0-.22-.48 1.73 1.73 0 0 0-.4-.43l-.47-.36a6.24 6.24 0 0 0-.63-.36l-.65-.32-.78-.33-.78-.35a9.93 9.93 0 0 1-3-2.06 4.41 4.41 0 0 1-1.17-3.16 4.7 4.7 0 0 1 1.45-3.56 6.52 6.52 0 0 1 3.92-1.67v-3.05h2.83v3.11a9.37 9.37 0 0 1 2.81.8v3.39a8.53 8.53 0 0 0-4.45-1.25 3.2 3.2 0 0 0-2 .59 1.84 1.84 0 0 0-.74 1.5 1.73 1.73 0 0 0 .24.9 2.55 2.55 0 0 0 .79.78 10.09 10.09 0 0 0 1 .6c.28.15.71.35 1.29.61s1.29.6 1.75.86a11.05 11.05 0 0 1 1.49 1 4.19 4.19 0 0 1 1.18 1.59 5.37 5.37 0 0 1 .39 2.09 5 5 0 0 1-1.38 3.6A6.13 6.13 0 0 1 25 33.6z"/></symbol><symbol id="icon-nav" viewBox="0 0 48.3 48.3"><circle cx="24.15" cy="24.15" r="24.15" fill="none"/><rect width="47.29" height="5.01" x=".51" y="8.65" fill="#858740" rx="2.05" ry="2.05"/><rect width="47.29" height="5.01" x=".51" y="34.67" fill="#858740" rx="2.05" ry="2.05"/><rect width="47.29" height="5.01" x=".51" y="21.66" fill="#858740" rx="2.05" ry="2.05"/></symbol><symbol id="icon-nav-close" viewBox="0 0 48.3 48.3"><circle cx="24.15" cy="24.15" r="24.15" fill="none"/><rect width="47.29" height="5.01" x=".51" y="21.66" fill="#858740" rx="2.05" ry="2.05" transform="rotate(-45 24.142 24.17)"/><rect width="47.29" height="5.01" x=".51" y="21.66" fill="#858740" rx="2.05" ry="2.05" transform="rotate(45 24.151 24.164)"/></symbol><symbol id="icon-search" viewBox="0 0 48.3 48.3"><circle cx="24.15" cy="24.15" r="24.15" fill="none"/><path fill="#858740" d="M19.15 32.82a13.38 13.38 0 1 1 13.38-13.38 13.39 13.39 0 0 1-13.38 13.38zm0-22.55a9.18 9.18 0 1 0 9.18 9.17 9.18 9.18 0 0 0-9.18-9.17z"/><path fill="#858740" d="M40.42 42.23a2.07 2.07 0 0 1-1.48-.61L26 28.68a2.1 2.1 0 1 1 3-3l12.91 12.97a2.1 2.1 0 0 1-1.49 3.58z"/></symbol><symbol id="rating-full" viewBox="0 0 48.3 48.3"><path fill="#3bcfd3" stroke="#3bcfd3" stroke-linecap="round" stroke-linejoin="round" stroke-width="4" d="M24.53 4.53l6.38 12.92 14.25 2.07-10.32 10.05 2.44 14.2-12.75-6.7-12.75 6.7 2.43-14.2L3.9 19.52l14.25-2.07 6.38-12.92z"/></symbol><symbol id="rating" viewBox="0 0 48.3 48.3"><path fill="none" stroke="#3bcfd3" stroke-linecap="round" stroke-linejoin="round" stroke-width="4" d="M24.53 4.53l6.38 12.92 14.25 2.07-10.32 10.05 2.44 14.2-12.75-6.7-12.75 6.7 2.43-14.2L3.9 19.52l14.25-2.07 6.38-12.92z"/></symbol><symbol id="social-facebook" viewBox="0 0 48.3 48.3"><circle cx="24.15" cy="24.15" r="24.15" fill="none"/><path fill="#956672" d="M31.9 13.35V7.54l-5.9.02h-.1c-1.51 0-6.08.52-6.1 5.75v5.22h-3.38v5.56h3.36v16.65h7V24.1h4.6l.61-5.58h-5.33v-4.03c0-.48.37-1.14 1.41-1.13z"/></symbol><symbol id="social-instagram" viewBox="0 0 48.3 48.3"><circle cx="24.15" cy="24.15" r="24.15" fill="none"/><path fill="none" d="M31.33 24.13a7.14 7.14 0 1 1-13.73-2.75h-4v10.67a2.6 2.6 0 0 0 2.59 2.6H32a2.6 2.6 0 0 0 2.59-2.6V21.38h-3.81a7.18 7.18 0 0 1 .55 2.75z"/><path fill="none" d="M19.56 24.15a4.63 4.63 0 1 0 8.33-2.77h-7.41a4.59 4.59 0 0 0-.92 2.77zm10.1-10.11h4.53v4.53h-4.53z"/><path fill="#956672" d="M32 11.13H16.34a5.21 5.21 0 0 0-5.21 5.21V32a5.21 5.21 0 0 0 5.21 5.21H32A5.22 5.22 0 0 0 37.18 32V16.34A5.21 5.21 0 0 0 32 11.13zM29.67 14h4.53v4.53h-4.53zm-9.19 7.34a4.63 4.63 0 1 1-.92 2.77 4.63 4.63 0 0 1 .92-2.73zm14.15 10.72A2.59 2.59 0 0 1 32 34.65H16.2a2.6 2.6 0 0 1-2.6-2.59V21.38h4a7.22 7.22 0 0 0-.55 2.75 7.15 7.15 0 0 0 14.29 0 7.22 7.22 0 0 0-.55-2.75h3.84z"/></symbol><symbol id="social-pinterest" viewBox="0 0 48.3 48.3"><path fill="#956672" d="M32.84 10.18a9.77 9.77 0 0 1 4 6.67 16 16 0 0 1 .1 3.46 14.31 14.31 0 0 1-2.57 7.36 9.06 9.06 0 0 1-6.14 3.85 9.36 9.36 0 0 1-2 .06 6.43 6.43 0 0 1-3.43-1.42l-.61-.42a34 34 0 0 1-1.56 5.81 10.37 10.37 0 0 1-3.41 4.76l-.47.34-.08-.58c-.71-5 .38-9 1.43-12.94.37-1.35.73-2.7 1-4a6.37 6.37 0 0 1-.58-4 6.69 6.69 0 0 1 1-2.7 3.72 3.72 0 0 1 2-1.62 3.24 3.24 0 0 1 2.15.14c2.59 1 1.68 3.85.78 6.68a23.84 23.84 0 0 0-.73 2.6c-.34 1.66-.15 3 1.73 3.38a3.79 3.79 0 0 0 2.79-.48 6.86 6.86 0 0 0 2.58-3.34 13 13 0 0 0 1-4.86 7.81 7.81 0 0 0-1.74-5.47 7.25 7.25 0 0 0-4.71-2.18 9.12 9.12 0 0 0-4.84 1 9.44 9.44 0 0 0-3.71 3.38 7.91 7.91 0 0 0-1.09 5.47 4.3 4.3 0 0 0 .69 1.57 3.23 3.23 0 0 1 .09 4l-.12.22-.25-.05a5.59 5.59 0 0 1-3.7-2.43 8.3 8.3 0 0 1-1.1-4.44 12.31 12.31 0 0 1 3.17-8.29 12.59 12.59 0 0 1 8-4c.32 0 .64-.07 1-.08s.63 0 1 0a14.13 14.13 0 0 1 8.41 2.53z"/><circle cx="24.15" cy="24.15" r="24.15" fill="none"/></symbol><symbol id="social-twitter" viewBox="0 0 48.3 48.3"><circle cx="24.15" cy="24.15" r="24.15" fill="none"/><path fill="#956672" d="M35.48 16A5.55 5.55 0 0 0 38 12.63a10 10 0 0 1-3.84 1.47c-1.25-1.73-4.43-2.53-6.85-1.35-2 1-4 3-3.4 6.8a16.59 16.59 0 0 1-12.33-6.3 5.92 5.92 0 0 0 1.77 8.07 4.19 4.19 0 0 1-2.73-.75 6.12 6.12 0 0 0 4.87 6 4.82 4.82 0 0 1-2.75.13 5.91 5.91 0 0 0 5.66 4.18 12.15 12.15 0 0 1-8.9 2.44 17 17 0 0 0 26.36-15.18A6.77 6.77 0 0 0 38.79 15a6.85 6.85 0 0 1-3.31 1z"/></symbol></svg>