<svg xmlns="http://www.w3.org/2000/svg" width="15.6" height="15.6" viewBox="0 0 15.6 15.6"><path d="M3.5 3.7h2.4l.5.2.5.3.3.5a1.9 1.9 0 0 1 .1.8V6a1.3 1.3 0 0 1-.1.6c-.1.1-.1.3-.3.4l-.3.4-.4.2a1.5 1.5 0 0 1 .9.6 2.1 2.1 0 0 1 .3 1.2v.4a1.9 1.9 0 0 1-.1.8.9.9 0 0 1-.3.6l-.4.3-.5.3H3.5zm1.4 3.5h.5l.3-.2.3-.4V5.3a.5.5 0 0 0-.2-.4l-.3-.2h-.8v2.5zm.1 3.9h.5l.4-.2c0-.1.1-.2.2-.4a4.3 4.3 0 0 0 .1-.5v-.7a4.3 4.3 0 0 0-.1-.5.5.5 0 0 0-.2-.4l-.3-.2h-.9v3zm4.9.9h-.3l-.4-.2-.4-.2-.4-.5a1.9 1.9 0 0 1-.2-.8 3.4 3.4 0 0 1-.1-1.1V6.3a3.1 3.1 0 0 1 .1-1c.1-.3.1-.6.3-.8l.3-.5.5-.2.5-.2h.4l.8.2a.9.9 0 0 1 .6.3l.3.6a1.5 1.5 0 0 1 .1.7v.9h-1V6c0-.9-.3-1.4-.7-1.4h-.5a.2.2 0 0 0-.2.2l-.2.4v5.1c.1.1.1.3.2.4l.2.2h.4l.3-.2.3-.3c0-.1.1-.2.1-.4V8.6h-.6v-.8h1.9v4.1h-.9v-.8c-.2.3-.3.6-.5.7zm4.3-6.6a6.4 6.4 0 0 0-3.6-3.8l.4-.9a7.7 7.7 0 0 1 4.1 4.4z"/><path d="M7.8 15.6A7.8 7.8 0 0 1 7.8 0v1A6.7 6.7 0 0 0 1 7.8a6.8 6.8 0 0 0 6.8 6.9 6.9 6.9 0 0 0 6.9-6.9h.9a7.8 7.8 0 0 1-7.8 7.8z"/></svg>