<svg xmlns="http://www.w3.org/2000/svg" id="Layer_1" viewBox="0 0 241.8 156.2" width="241.8" height="156.2"><style>.st0{fill:#fff}</style><path d="M10.6 129.8l-1.8-3.6 18.4-14.1 1.6 3.1-3.3 2.5 1.9 3.7 3.9-1.3 1.6 3.1-22.3 6.6zm12.7-10.6l-9.4 6.6h.1l10.8-3.7-1.5-2.9zm-19.2-4.5l-.9-3.6-.3-1.4c-.1-.5-.1-1.1-.1-1.6s.1-1 .2-1.5c.2-.6.4-1.1.8-1.6.5-.5 1-.9 1.5-1.3.8-.4 1.6-.7 2.5-.9l.6-.2c1.4-.4 2.9-.5 4.3-.3 1.1.2 2.1.7 2.8 1.6l7.9-5.8.9 3.5-7.5 5 .3 1.3 8.3-2.1.8 3.3-22.1 5.6zm10.5-6.7c-.1-.5-.3-1-.6-1.4-.2-.4-.5-.7-.9-.8-.4-.2-.9-.3-1.4-.3l-1.9.3-1.7.5-1.5.5c-.3.2-.6.5-.9.8-.2.3-.3.7-.3 1.1 0 .5 0 1.1.2 1.6v.5l9-2.3v-.5zM3 93.1v3.6l-2.7.2L0 86.1h2.7l.2 3.6 20.1-.9v3.5l-20 .8zM.6 78.8l.4-3.5 22.7 2.9-.4 3.4L.6 78.8zm19.2-6.2l-1.2-.4-1.2-.7.8-2.6 1 .4 1.6.3c.4.1.9.1 1.3 0 .3 0 .6-.2.9-.4.2-.3.4-.6.5-1 .2-.5.2-1.1-.1-1.6-.3-.5-.8-.8-1.3-.9l-1-.3h-.9l-1 .2-1.3.5-5.2 2.2c-.9.3-1.8.6-2.8.7-.9 0-1.8-.1-2.7-.3-.7-.2-1.3-.6-1.9-1-.5-.4-.9-.9-1.2-1.4-.3-.6-.5-1.2-.6-1.9 0-.8.1-1.5.3-2.3.2-.8.6-1.6 1.2-2.2.4-.6.9-1 1.5-1.3.5-.2 1.1-.3 1.7-.3.6 0 1.2.1 1.8.3l1.2.5 1.3.6-.8 2.6-1.1-.3c-.9-.4-1.8-.5-2.8-.4-.7.1-1.3.7-1.4 1.4-.2.5-.2 1 .1 1.5.3.4.7.7 1.2.9l.9.2H10l.8-.3 5.8-2.4c1-.4 2-.7 3.1-.8 1-.1 2-.1 2.9.2.7.3 1.4.6 2 1 .5.5.9 1 1.2 1.6.3.6.5 1.2.5 1.9.1.7 0 1.5-.3 2.2-.2.8-.6 1.6-1.1 2.3-.8 1-2 1.6-3.3 1.6-.6 0-1.2-.1-1.8-.3zm-9.5-25.8l2-3.5 22 7.5-1.7 3-3.9-1.4-2.1 3.6 3.3 2.6-1.7 3-17.9-14.8zm15.9 4.7l-10.7-4.2v.2l9.2 6.9 1.5-2.9zm-6.9-18.6l1.9-2.1 15 6.2c-.3-.3-.6-.6-.9-.8-.4-.2-.9-.5-1.2-.9l-1.5-1.2-1.7-1.6-6.2-5.6 2.1-2.2L43.7 40l-1.9 2.1-14.7-5.9H27l1 .8c.5.3.9.6 1.3 1 .6.5 1.2 1 1.7 1.5.7.5 1.4 1.2 2.3 2l4.9 4.5-2 2.3-16.9-15.4zm21.1-5.6l8.2-5.7 1.5 2.3-8.2 5.6-1.5-2.2zM51.5 7.5L55.7 6l5.1 7.6 1.4 2.5 1.2 2.2h.1c-.1-.8-.3-1.6-.5-2.5s-.3-1.8-.4-2.8l-.8-9.1L66 2.4l7.6 21.5-3 1.1-2.6-7.1c-.4-1.1-.7-2.2-1.1-3.2l-.9-2.8c-.2-.8-.5-1.6-.6-2.3l-.5-1.5h-.2l1.7 15.2-2 .8-8.3-12.9h-.2l.6 1.5c.4.7.7 1.4.9 2.2.4.8.7 1.7 1.1 2.7.4 1 .8 2.1 1.1 3.2l2.6 7.2-3.1 1.1-7.6-21.6zM78.9.4l4-.4L89 22.4l-3.5.3-1-4-4.1.3-.3 4.2-3.5.3L78.9.4zm5 15.7L81.4 4.9h-.2l-.6 11.5 3.3-.3zM95.3 0l3.5.5 1.7.3c.6.1 1.2.2 1.7.5.5.2 1 .5 1.4.9.5.4.9 1 1.1 1.6.3.8.5 1.6.6 2.4.1 1.1 0 2.2-.1 3.3l-.9 6.6c-.2 1.1-.4 2.2-.8 3.3-.3.7-.7 1.5-1.2 2.1-.4.5-.9.9-1.5 1.2-.5.3-1.1.5-1.7.5h-1.7l-1.7-.2-3.5-.5L95.3 0zm1.5 20.8h1.6c.4-.1.7-.4 1-.7.4-.5.6-1 .7-1.6.2-.9.4-1.7.5-2.6l1-7c.1-1.1.2-2 .2-2.7.1-.6 0-1.2-.2-1.7-.2-.4-.5-.7-.9-1-.5-.2-1-.4-1.5-.4h-.8l-2.5 17.6.9.1zm18-16.9l8 2.8-.9 2.6-4.7-1.7-2.4 6.4 3.7 1.3-.9 2.6-3.7-1.3-2.6 7.4 4.8 1.7-.9 2.6-8.1-3 7.7-21.4zM36.7 71h7.7l2.4.3 2.2.8c.7.3 1.4.8 1.9 1.4.5.6.9 1.3 1.2 2.1.3 1 .5 2 .5 3v1.7c0 .9-.1 1.7-.4 2.5-.3.7-.6 1.4-1 2-.4.6-.9 1-1.5 1.4-.5.4-1.1.7-1.7.8v.2c1.6.2 3 1.1 3.9 2.4.9 1.5 1.4 3.2 1.3 5v1.7c0 1.1-.2 2.2-.5 3.2-.2.9-.6 1.7-1.1 2.4-.5.6-1.1 1.1-1.8 1.6-.7.4-1.4.7-2.2.9-.8.3-1.7.4-2.6.5h-8.3V71zm6.1 14.6l1.9-.2c.5-.2 1-.5 1.5-.8.4-.4.7-.9.9-1.4.2-.6.3-1.3.3-2v-1.4c0-.7 0-1.5-.2-2.2-.3-1.1-1.1-2.1-2.2-2.5-.7-.2-1.5-.3-2.2-.3h-1v10.8h1zm.5 15.9c.6 0 1.3 0 1.9-.2.5-.2 1-.5 1.4-.9.4-.4.8-.9 1-1.4.2-.7.3-1.4.3-2.1v-2.7c0-.7-.1-1.4-.2-2.1-.2-.5-.5-1-.8-1.5-.4-.5-.9-.8-1.5-1-.7-.2-1.4-.3-2.1-.3h-1.5v12.2h1.5zM60.7 71h12.7v4.1h-7.5v10.2h5.8v4.1h-5.8v11.7h7.7v4H60.7V71zm23.4 0h6l6.3 34.1h-5.2l-1-6.1H84l-.9 6.1h-5.3L84.1 71zm5.5 24.1l-2.4-17H87l-2.4 17h5zM102.8 71h7.7c1.6.1 3.1.5 4.5 1.3.7.5 1.4 1 1.9 1.7.6.8 1 1.7 1.3 2.7.3 1.3.5 2.7.5 4v.8c.1 2.2-.3 4.4-1.1 6.4-.6 1.5-1.8 2.8-3.3 3.5l5.5 13.6h-5.5l-4.5-12.7h-2V105h-5V71zm5.8 17.6c.8 0 1.6-.1 2.3-.3.6-.2 1.1-.5 1.5-1 .5-.5.8-1.2.9-1.9.1-.9.2-1.9.2-2.8v-2.7c0-.8-.1-1.5-.2-2.3-.1-.6-.4-1.1-.8-1.6-.4-.4-.9-.7-1.5-.9-.8-.2-1.6-.3-2.4-.3h-.8v13.8h.8zM126.8 71h7.9c.8 0 1.7.2 2.5.4.8.3 1.6.7 2.4 1.1.8.6 1.4 1.3 1.9 2.1.6 1.1 1.1 2.2 1.4 3.4.3 1.6.4 3.3.4 5v10c0 1.7-.1 3.4-.4 5-.3 1.2-.8 2.3-1.4 3.4-.5.8-1.1 1.5-1.9 2.1-.7.5-1.5.9-2.4 1.1-.8.3-1.7.4-2.5.5h-7.9V71zm6.5 30.5c.8 0 1.6-.1 2.3-.3.6-.3 1.1-.7 1.4-1.3.4-.8.6-1.6.7-2.5.2-1.3.2-2.6.2-3.9V82.9c0-1.3 0-2.7-.2-4-.1-.9-.3-1.7-.7-2.5-.3-.6-.8-1-1.4-1.2-.7-.3-1.5-.4-2.3-.4h-1.4v26.7h1.4zm32.3 4l-1.4-.2c-.6-.1-1.1-.3-1.6-.5-.6-.3-1.2-.7-1.7-1.2-.6-.6-1-1.3-1.4-2-.5-1-.9-2.1-1.1-3.2-.3-1.4-.4-2.9-.4-4.4V81.9c0-1.5.1-2.9.4-4.4.2-1.1.6-2.1 1.2-3 .4-.8.9-1.5 1.6-2l1.8-1.2 2-.5h1.8c1.2 0 2.4.2 3.5.6.9.4 1.6.9 2.3 1.5.6.7 1 1.5 1.3 2.4.2.9.4 1.8.4 2.7 0 .7-.1 1.4-.2 2.1l-.3 2h-4.2v-1.7c0-3.7-1-5.6-3-5.6-.5 0-1 .1-1.4.3-.4.2-.7.5-1 .9-.3.6-.5 1.2-.6 1.8-.1.9-.2 1.8-.2 2.7V96c0 .9.1 1.7.2 2.6 0 .6.3 1.2.6 1.7.2.4.6.8 1 1l1.4.2c.5 0 1.1-.1 1.5-.4.4-.3.8-.8 1-1.3l.6-1.8c.1-.8.2-1.5.2-2.3v-4.4h-2.7v-3.4h7.7v17.2h-3.4l-.6-3.2c-.5 1.1-1.2 2-2.2 2.7-.9.6-2 .9-3.1.9zM182.7 71h12.7v4.1h-7.5v10.2h5.8v4.1h-5.8v11.7h7.7v4h-12.9V71zm23.4 0h6l6.3 34.1h-5.2l-1-6.1H206l-.9 6.1h-5.2l6.2-34.1zm5.5 24.1l-2.4-17h-.2l-2.4 17h5zM224.8 71h7.7c.8 0 1.6.2 2.3.4.8.2 1.5.5 2.2.9.7.4 1.4 1 1.9 1.7.6.8 1.1 1.7 1.3 2.7.4 1.3.6 2.6.5 4v.8c.1 2.2-.3 4.4-1.1 6.4-.6 1.5-1.8 2.8-3.3 3.5l5.5 13.6h-5.5l-4.5-12.7h-1.9V105h-5.1V71zm5.8 17.6c.8 0 1.6-.1 2.3-.3.6-.1 1.1-.5 1.5-1 .5-.5.8-1.2.9-1.9.2-.9.2-1.9.2-2.8v-2.7c0-.8 0-1.5-.2-2.3-.1-.6-.4-1.1-.8-1.6-.4-.4-.9-.7-1.5-.9-.8-.2-1.6-.3-2.4-.3h-.7v13.8h.7zM88.3 156.2c-17.7 0-34.7-6.8-47.4-19.2l3.8-3.9c24.9 24.1 64.6 23.4 88.7-1.5 4.8-5 8.8-10.8 11.7-17l4.9 2.4c-11 23.6-34.5 38.9-60.6 39.2h-1.1zm58.6-90.4c-4.1-10.9-11.2-20.4-20.4-27.5l3.3-4.3c10.1 7.7 17.8 18 22.2 29.9l-5.1 1.9z" class="st0"/></svg>