<svg xmlns="http://www.w3.org/2000/svg" width="32" height="32" viewBox="0 0 32 32"><path fill="#fff" d="M28.4 6.5c1.6 2.7-1.6 12.2-1.6 10.1s-2.1-1.9-1.6 2.6-6.3 7.1-5.4 6.1 2.1-2.8-.3-1.9a6.1 6.1 0 0 0-3.4 3.3 6.2 6.2 0 0 0-3.3-3.3c-2.5-.9-1.3.9-.4 1.9s-5.9-1.7-5.3-6.1-1.6-4.8-1.6-2.6S2 8.8 3.6 6.1a7 7 0 0 1 5.5-3.5 24 24 0 0 0 5.4-1.1l.6-.4a1.8 1.8 0 0 1 2 0l.7.4a10.7 10.7 0 0 0 3.6.8 8.8 8.8 0 0 1 6.8 3.9z"/><path fill="#002737" d="M9.9 7.6l.5 2.4A1.8 1.8 0 0 1 9 11.8l-1.2.3h-.1a.6.6 0 0 0 .1-.6c-.6-2.3-1-3.4-1.6-5.5a.7.7 0 0 0-.3-.5h-.1l2.7-.7a.7.7 0 0 1 .9.5l.3 1.1a.8.8 0 0 1-.5.8.5.5 0 0 1 .7.4zM7.6 7l.6-.2c.2 0 .4-.3.4-.5l-.2-.7a.6.6 0 0 0-.6-.4l-.6.2A7.5 7.5 0 0 1 7.6 7zM9 8a.4.4 0 0 0-.6-.3h-.6c.4 1.3.5 1.9.8 3.2s.8-.9.8-.9-.2-1.2-.4-2zm4.8-4.1v.7h-.3a.6.6 0 0 0-.6-.1h-1.3l.2 1.5h.8c.5 0 .6-.3.6-.3h.2a5.7 5.7 0 0 1 .1 1.3h-.2a.6.6 0 0 0-.6-.1h-.8c.2 1.3.3 2 .4 3.4l1.3-.2a.4.4 0 0 0 .4-.2h.2V11l-3 .3v-.2s.2-.1.1-.5L10.5 5a.5.5 0 0 0-.3-.5 22.3 22.3 0 0 1 3.6-.6zm4.2 6.9v.2h-1.3v-.2a.4.4 0 0 0 .2-.4 1.7 1.7 0 0 0-.1-.7l-.7.4v.3a.4.4 0 0 0 .2.4v.2H15a1 1 0 0 0 .1-.4l.5-5.9a.4.4 0 0 0-.3-.4v-.4a6.7 6.7 0 0 1 2 0l.5 6.5a1.1 1.1 0 0 0 .2.4zm-1.3-2.2a21.1 21.1 0 0 0-.2-2.5c-.1 1.1-.2 1.7-.3 2.8zm4.9 2.6v.2l-1.3-.2V11a.7.7 0 0 0 .3-.5c.1-.8.2-1.2.3-2a.7.7 0 0 0-.4-.5h-.6c-.1 1-.2 1.5-.3 2.5s.2.5.2.5v.2h-1.3V11s.2-.1.2-.5c.2-2.3.3-3.4.4-5.6a.6.6 0 0 0-.2-.6v-.4l2.1.2a1.6 1.6 0 0 1 1.3 1.4l-.2 1.7-.5.6a.9.9 0 0 1 .3.7l-.4 2.1a.6.6 0 0 0 .1.6zm-.3-6.1a.5.5 0 0 0-.5-.5h-.6c-.1 1.1-.1 1.6-.2 2.7h.6a.7.7 0 0 0 .5-.4c.1-.7.1-1.1.2-1.8zm4 5.8a1.5 1.5 0 0 1-1.6.8l-1.6-.4a.7.7 0 0 0 .3-.5c.4-2.2.6-3.3 1.1-5.6a.8.8 0 0 0-.2-.5c0-.1.1-.1.1-.2l2 .4a1.6 1.6 0 0 1 1.2 1.6c-.5 1.8-.8 2.7-1.3 4.4zm.3-5a.6.6 0 0 0-.1-.4h-.3l-.6-.2c-.5 2.3-.8 3.4-1.3 5.6h.6a.5.5 0 0 0 .5-.3zM11 14.1v-.4a.7.7 0 0 0-.5-.4.5.5 0 0 0-.5.5v5a.5.5 0 0 0 .5.4c.2 0 .5-.2.5-.4v-1.3c0-.7-.8-.7-.8-.7v-.2h1.9v.2a.9.9 0 0 0-.2.6v1.5a1.5 1.5 0 0 1-1.4 1.3 1.5 1.5 0 0 1-1.4-1.3v-4.8a1.4 1.4 0 0 1 2.8 0 .9.9 0 0 0 .2.6v.2h-1.3v-.2a.9.9 0 0 0 .2-.6zm4.7-1.3v.7h-.2a.9.9 0 0 0-.6-.2h-1.2v1.4h.8c.4 0 .5-.2.5-.2h.2v1.3H15s-.1-.2-.5-.2h-.8v3.6H15a.8.8 0 0 0 .5-.2h.2v1.2h-3.1V20a.9.9 0 0 0 .2-.6v-5.9c0-.4-.2-.5-.2-.5v-.2zm3.8 7.2v.2h-1.4V20a.8.8 0 0 0 .2-.5v-.7l-.8.4v.3a.8.8 0 0 0 .2.5v.2h-1.3V20l.2-.4c0-.1.5-6.1.5-6.1l-.2-.5v-.2h1.7s.7 6.7.7 6.8a.7.7 0 0 0 .2.4zm-1.3-2.2l-.3-2.7-.3 3zm5 2.2v.2h-1.3V20a.9.9 0 0 0 .2-.6v-2.1a.7.7 0 0 0-.4-.5h-.6v2.6a.9.9 0 0 0 .2.6v.2H20V20a.9.9 0 0 0 .2-.6v-5.9c0-.4-.2-.5-.2-.5v-.2h1.7A1.5 1.5 0 0 1 23 14v1.8a.7.7 0 0 1-.3.6 1.1 1.1 0 0 1 .3.8v2.2a.9.9 0 0 0 .2.6zm-1.1-6.3c0-.2-.3-.4-.5-.4h-.5v2.8h.6c.2-.1.4-.2.4-.4z"/><path fill="#fff" d="M11.6 27.8v.3h-.9v.7h.7v.6h-.7V31h.9v.5h-1.4a.4.4 0 0 0 .1-.3v-3.1a.3.3 0 0 0-.1-.2h1.4zm1.6.9h-.1l-.4-.2v-.3a.2.2 0 0 0-.4 0v.6a.2.2 0 0 0 .2.2.7.7 0 0 1 .7.5v1.1a.8.8 0 0 1-.7.5.6.6 0 0 1-.6-.6v-.9h.1l.2.2h.1v.7a.2.2 0 0 0 .4 0v-.9a.2.2 0 0 0-.2-.2l-.5-.2c0-.1-.1-.2-.1-.4v-.4a.6.6 0 0 1 .6-.6.7.7 0 0 1 .7.6zm1.6-.9v.3h-.5v2.8a.4.4 0 0 0 .1.3h-.6a.4.4 0 0 0 .1-.3V28h-.1c-.2 0-.2.1-.2.1h-.1v-.3zm.6 3.3a.3.3 0 0 1-.3-.3.3.3 0 0 1 .6 0 .3.3 0 0 1-.3.3zm2.6-.5v.5h-1.3v-1.2a.9.9 0 0 1 .6-.6.5.5 0 0 0 .3-.4v-.7c0-.1-.1-.2-.3-.2a.2.2 0 0 0-.2.2v.3c0 .2.1.2.1.2h-.5v-.3a.7.7 0 0 1 .7-.7q.5 0 .6.6v.5a.9.9 0 0 1-.4.7c-.2.1-.4.1-.5.3v.8h.9zm1.6-2.2v2.2a.7.7 0 0 1-.7.5.6.6 0 0 1-.6-.5v-2.2a.6.6 0 0 1 .6-.6.7.7 0 0 1 .7.6zm-.4-.2l-.3-.2-.2.2v2.3a.2.2 0 0 0 .2.2l.3-.2zm1.9 2.8h-.6s.1 0 .1-.2v-2.1l-.5.3-.2-.4a1.1 1.1 0 0 0 .7-.6v-.2h.5a.3.3 0 0 0-.1.2v2.7c0 .3.1.3.1.3zm1.6-1.5v1a.7.7 0 0 1-.7.6.6.6 0 0 1-.6-.6v-1.7a1.1 1.1 0 0 1 .9-1v.4a.7.7 0 0 0-.6.7.7.7 0 0 1 .9.5zm-.5 0a.2.2 0 0 0-.4 0v1a.2.2 0 0 0 .4 0z"/></svg>