<svg xmlns="http://www.w3.org/2000/svg" width="16" height="16" viewBox="0 0 16 16"><path fill="#fff" d="M14.2 3.4c.8 1.3-.8 6.1-.8 5s-1.1-.9-.8 1.3-3.2 3.6-2.7 3.1 1.1-1.4-.2-.9a2.6 2.6 0 0 0-1.6 1.6 2.9 2.9 0 0 0-1.7-1.6c-1.3-.5-.7.4-.2.9S3.3 12 3.5 9.7s-.8-2.4-.8-1.3S1 4.6 1.8 3.2a3.8 3.8 0 0 1 2.7-1.8A10.8 10.8 0 0 0 7.2.9l.4-.2a.9.9 0 0 1 1 0l.3.2a4.4 4.4 0 0 0 1.8.4 4.6 4.6 0 0 1 3.4 1.9c0 .1.1.1.1.2z"/><path fill="#002737" d="M5 4l.2 1.1a.9.9 0 0 1-.7.9l-.6.2v-.4l-.8-2.7a.2.2 0 0 0-.2-.2l1.3-.3a.4.4 0 0 1 .5.2v.6c.1.2 0 .3-.2.4s.4 0 .5.2zm-1.2-.4h.3c.1-.1.2-.2.2-.3s-.1-.2-.1-.4a.2.2 0 0 0-.3-.1h-.3zm.7.5h-.6a7.5 7.5 0 0 1 .4 1.6c.5-.2.4-.5.4-.5s-.1-.7-.2-1.1zm2.4-2v.3H5.8a1.5 1.5 0 0 0 .1.7h.8a1.5 1.5 0 0 0 .1.6h-.9c.1.7.2 1 .3 1.7h.6c.2 0 .2-.1.2-.1h.1v.5L5.7 6v-.6a23.6 23.6 0 0 1-.4-2.8l-.2-.2zM9 5.5h-.7l.2-.2a.6.6 0 0 1-.1-.4l-.4.3a.3.3 0 0 0 .1.2h-.6s.1 0 .1-.2l.2-2.9c0-.2-.1-.2-.1-.2h1l.2 3.2c0 .2.1.2.1.2zm-.6-1a6.2 6.2 0 0 1-.1-1.3c-.1.6-.1.8-.2 1.4zm2.4 1.2h-.6s.1 0 .1-.2a3.4 3.4 0 0 0 .1-1 .4.4 0 0 0-.1-.3h-.4v1.1a.4.4 0 0 0 .1.3h-.8s.1 0 .2-.2a26.4 26.4 0 0 1 .2-2.8.4.4 0 0 0-.1-.3h1a.8.8 0 0 1 .7.7c-.1.3-.1.5-.2.8s-.1.3-.2.3a.6.6 0 0 1 .1.4c0 .4-.1.6-.1 1.1a.1.1 0 0 0 0 .1zm-.1-3a.3.3 0 0 0-.3-.3h-.3c0 .5-.1.8-.1 1.3h.3a.2.2 0 0 0 .2-.2zm2 2.9h-.1a.6.6 0 0 1-.7.4l-.9-.1a.4.4 0 0 0 .2-.3l.5-2.7c.1-.2 0-.3 0-.3l1 .2a.8.8 0 0 1 .6.8 18 18 0 0 0-.6 2zm.1-2.5c0-.1 0-.1-.1-.2a.1.1 0 0 0-.1-.1h-.3c-.2 1.2-.4 1.7-.6 2.8h.5zM5.5 7.2V7c0-.1-.1-.2-.3-.2A.2.2 0 0 0 5 7v2.6a.2.2 0 0 0 .2.2c.2 0 .3-.1.3-.2v-.7c0-.4-.4-.3-.4-.3h1s-.1 0-.1.2v.8a.8.8 0 0 1-.8.6.7.7 0 0 1-.7-.6V7.2a.8.8 0 0 1 .7-.7.8.8 0 0 1 .8.7.4.4 0 0 0 .1.3h-.7a.4.4 0 0 0 .1-.3zm2.3-.7v.4h-.1s0-.1-.2-.1h-.6v.7h.7v.7h-.7v1.6h.9v.5H6.3s.1 0 .1-.2v-3a.4.4 0 0 0-.1-.3h1.5zm1.9 3.6h-.6s.1 0 .1-.2v-.4l-.3.3h-.2v.2h-.5s.1 0 .1-.2l.3-3a.4.4 0 0 0-.1-.3h.8l.3 3.4zM9.1 9V7.7l-.3 1.5zm2.5 1.1h-.7s.1 0 .1-.2V8.8c0-.1 0-.2-.2-.2h-.2v1.3c0 .2.1.2.1.2H10s.1 0 .1-.2v-3a.4.4 0 0 0-.1-.3h.9a.7.7 0 0 1 .6.7V8c0 .2-.1.3-.1.4v1.5c.1.2.2.2.2.2zM11 7a.2.2 0 0 0-.2-.2h-.2v1.4h.3c.1 0 .1-.1.1-.2z"/><path fill="#fff" d="M5.8 14.1h-.5v.3h.4v.3h-.4v.8h.5v.2h-.7v-1.5h.7zm.8.4h-.2a.1.1 0 0 0-.1-.1c-.1 0-.1 0-.1.1v.2h.1a.5.5 0 0 1 .3.3v.5a.3.3 0 0 1-.3.3c-.2 0-.3-.1-.4-.3V15h.3v.3h.2v-.5h-.1l-.3-.1h-.1v-.2a.3.3 0 0 1 .3-.3h.1c.1 0 .3.1.3.2zm.8-.4h-.2v1.4H7v-1.3h.4zm.3 1.6h-.2l.2-.2.2.2zm1.3-.2v.2h-.6v-.6c0-.1.1-.3.2-.3s.2-.1.2-.2v-.3a.1.1 0 0 0-.1-.1c-.1 0-.1 0-.1.1h-.2v-.2a.3.3 0 0 1 .3-.3.3.3 0 0 1 .3.3v.2a.4.4 0 0 1-.2.4h-.2v.4H9zm.8-1.1v1a.3.3 0 0 1-.3.3c-.2 0-.3-.1-.4-.3v-1c0-.2.2-.3.4-.3s.3.1.3.2zm-.2-.1a.1.1 0 0 0-.1-.1c-.1 0-.1 0-.1.1v1.1h.2zm1 1.4h-.3v-1.2l-.3.2v-.2c.1-.1.3-.2.3-.4h.2v1.4zm.7-.8v.5a.3.3 0 0 1-.3.3.3.3 0 0 1-.3-.3v-.8a.6.6 0 0 1 .5-.6v.3a.3.3 0 0 0-.3.3c.2-.1.4.1.4.3zm-.2 0h-.2v.5h.2z"/></svg>