<svg id="Layer_1" data-name="Layer 1" xmlns="http://www.w3.org/2000/svg" width="256" height="256" viewBox="0 0 256 256"><title>logo-black</title><path d="M23.4,112.4V121a5.5,5.5,0,0,1,1.7,1.7,4.1,4.1,0,0,1,.6,2.3v17a4.9,4.9,0,0,1-1.3,3.3,4.9,4.9,0,0,1-3.3,1.3H6v-.2l.3-.4.7-.5c.3-.2.4-.5.4-1.2V110.1c0-.7-.1-1-.4-1.2l-.6-.4L6,108v-.2H18.8a4.9,4.9,0,0,1,3.3,1.3A4.4,4.4,0,0,1,23.4,112.4Zm2.8,11.2a4.6,4.6,0,0,1,1.1,3v17a4.5,4.5,0,0,1-1.4,3.3,4.4,4.4,0,0,1-3.2,1.3H7.6V148a1,1,0,0,1,.5-.6h13a4.9,4.9,0,0,0,3.7-1.6,5.1,5.1,0,0,0,1.6-3.7V125A5.2,5.2,0,0,0,26.2,123.6Zm-9.6-11.2H14.3a2,2,0,0,0-1.6.7,2,2,0,0,0-.7,1.6V118a2,2,0,0,0,.7,1.6,2,2,0,0,0,1.6.7h2.3a1.8,1.8,0,0,0,1.5-.7,2,2,0,0,0,.7-1.6v-3.3a2,2,0,0,0-.7-1.6A1.8,1.8,0,0,0,16.6,112.4Zm4.5,27.3V127.2a1.8,1.8,0,0,0-.7-1.5,2,2,0,0,0-1.6-.7H14.3a2,2,0,0,0-1.6.7,1.8,1.8,0,0,0-.7,1.5v12.5a1.9,1.9,0,0,0,.7,1.6,2,2,0,0,0,1.6.7h4.5a2,2,0,0,0,1.6-.7A1.9,1.9,0,0,0,21.1,139.7Zm-7.5-23.4v3.1a1.3,1.3,0,0,1-.9-1.4v-3.3a1.5,1.5,0,0,1,.5-1.2,1.4,1.4,0,0,1,1.1-.4h2.3a1.5,1.5,0,0,1,1.4.9H15.9a2,2,0,0,0-1.6.7A1.9,1.9,0,0,0,13.6,116.3Zm0,12.5v12.4a1.6,1.6,0,0,1-.9-1.5V127.2a1.3,1.3,0,0,1,.5-1.1,1.4,1.4,0,0,1,1.1-.4h4.5a1.6,1.6,0,0,1,1.5.9H15.9a2.3,2.3,0,0,0-1.6.6A2.1,2.1,0,0,0,13.6,128.8Zm10.5-8.1v-8.3a5.2,5.2,0,0,0-.2-1.4,4.8,4.8,0,0,1,1.1,3v7.5Z"/><path d="M47.9,113.5a4.3,4.3,0,0,1-.4-.7c-.2-.3-.6-.4-1.2-.4H37.2a2.4,2.4,0,0,0-2.3,2.3v3.4a2,2,0,0,0,.7,1.6,2.4,2.4,0,0,0,1.6.7h4.6a1.4,1.4,0,0,0,1.2-.5l.3-.6.5-.4H44v7.5c-.1,0-.2,0-.2-.1s-.3-.1-.5-.3l-.3-.7a1.7,1.7,0,0,0-1.2-.4H37.2a2,2,0,0,0-1.6.7,2.1,2.1,0,0,0-.7,1.6v12.5a2.2,2.2,0,0,0,.7,1.7,2.3,2.3,0,0,0,1.6.6h9.1c.6,0,1-.1,1.2-.4a1.5,1.5,0,0,1,.4-.6l.4-.4h.3V146a.5.5,0,0,1-.2.4l-.4.2H28.9v-.2l.3-.4.7-.5c.3-.2.4-.5.4-1.2V110.1c0-.7-.1-1-.4-1.2l-.6-.4-.4-.5v-.2H48a.5.5,0,0,1,.4.2.8.8,0,0,1,.2.4v5.4h-.3Zm1.6,29a.5.5,0,0,1,.4-.3h.3v5.4a.5.5,0,0,1-.2.4l-.4.2H30.5V148a1,1,0,0,1,.5-.6H48a1.5,1.5,0,0,0,.9-.4,1.3,1.3,0,0,0,.4-.9v-3.5Zm-13-26.2v3.2a1.5,1.5,0,0,1-.9-1.4v-3.4a1.4,1.4,0,0,1,1.6-1.6h9.7l.3.4c0,.1.1.2.2.3H38.8a2,2,0,0,0-1.6.7A1.9,1.9,0,0,0,36.5,116.3Zm0,12.5v12.4a1.6,1.6,0,0,1-.9-1.5V127.2a1.5,1.5,0,0,1,.4-1.1,1.8,1.8,0,0,1,1.2-.5h5.1l.3.5c.1,0,.1.2.3.3H38.8a2,2,0,0,0-1.6.7A2.1,2.1,0,0,0,36.5,128.8Zm8.2-1.6V121l.2-.2.4-.3h.2V128h-.2l-.4-.2-.2-.3Zm4.6-17.8h.3l.4.2.2.4v5.4h-.3l-.4-.3v-5.7Z"/><path d="M67.4,146l.5-.6a.8.8,0,0,0,.2-.6.9.9,0,0,0-.1-.5h0l-1.1-5.6-.5-2.2v-.3a3.3,3.3,0,0,0-1.1-1.6,2.7,2.7,0,0,0-1.7-.6H62.4a2.7,2.7,0,0,0-1.7.6,3.3,3.3,0,0,0-1.1,1.6l-.4,2-1.2,6a1.8,1.8,0,0,0-.1.6.9.9,0,0,0,.3.7l.4.4.3.4v.2H51.8v-.2a1,1,0,0,1,.4-.5l.5-.4c.2-.1.4-.5.5-1.2l6.7-34.2a.9.9,0,0,0,.1-.5,1.2,1.2,0,0,0-.7-1.1L59,108v-.2h8v.2a.5.5,0,0,1-.3.5,1.2,1.2,0,0,0-.7,1.1.9.9,0,0,0,.1.5l6.7,34.2c.1.7.3,1.1.5,1.2l.5.4a1,1,0,0,1,.4.5v.2H67.1v-.2Zm-7.2,1.6.3.4v.2H53.4V148l.3-.4.2-.2h5.8v-.2Zm2.2-12.8h1.2a2.1,2.1,0,0,1,1.7.9H64a2.7,2.7,0,0,0-1.7.6,3.3,3.3,0,0,0-1.1,1.6l-.4,2-1.2,6a.4.4,0,0,0-.1.3l-.2-.4c0-.1-.1-.2-.3-.4h0a.7.7,0,0,1-.4-.6v-.3h0l1.3-6.1.4-1.9a2,2,0,0,1,.8-1.2A1.7,1.7,0,0,1,62.4,134.8Zm.6-5.3a1.5,1.5,0,0,0,1.1-.4,1.6,1.6,0,0,0,.4-1.2,1.8,1.8,0,0,0-.1-.6l-.4-2-.5-2.6c-.2-.6-.3-.9-.5-.9s-.3.3-.5.9l-.3,1.4-.6,3.2a1.8,1.8,0,0,0-.1.6,1.6,1.6,0,0,0,.4,1.2A1.5,1.5,0,0,0,63,129.5Zm.2-.7H63a.7.7,0,0,1-.6-.2.8.8,0,0,1-.2-.7v-.5l.7-3.2v-.4l.3,1.6.3,1.3Zm10.3,15.4-6.7-34.3h0a.7.7,0,0,1-.1-.5h1.9v.2a.5.5,0,0,1-.3.5,1.2,1.2,0,0,0-.7,1.1.9.9,0,0,0,.1.5l6.5,33.7h0a1,1,0,0,1-.5-.4Zm2,3.4.3.4v.2H68.7V148l.3-.4.4-.3H75l.3.2Z"/><path d="M95.3,124.4a2.3,2.3,0,0,0-1.5,2,1.5,1.5,0,0,0,.1.7l2.6,17.8a.8.8,0,0,0,.5.7,1.9,1.9,0,0,1,.7.8H90.4c0-.2.1-.3.3-.4l.3-.2.7-.7a1.7,1.7,0,0,0,.1-.8L89.4,128l-.2-.9c-.5-1.5-1.3-2.2-2.6-2.2h-.2a2.5,2.5,0,0,0-1.6.6,2.6,2.6,0,0,0-.7,1.7v17.1c0,.7.2,1.1.5,1.2l.7.5.3.4v.2H78.1c0-.1,0-.2.1-.2a.5.5,0,0,1,.2-.4,2.5,2.5,0,0,1,.8-.5,1.5,1.5,0,0,0,.4-1.2V110.1a1.5,1.5,0,0,0-.4-1.2l-.7-.4c-.2-.2-.3-.3-.3-.5s-.1-.1-.1-.2H93.3a4.8,4.8,0,0,1,3.2,1.3,4.4,4.4,0,0,1,1.3,3.3v7.9a4,4,0,0,1-.7,2.4A4.8,4.8,0,0,1,95.3,124.4Zm-8.4,23.2a.5.5,0,0,1,.2.4c.1,0,.1.1.1.2H79.7c0-.1,0-.2.1-.2s.2-.5.5-.6h6.3Zm-.5-27.3H91a2.1,2.1,0,0,0,1.6-.7,2.4,2.4,0,0,0,.7-1.6v-3.3a2.4,2.4,0,0,0-.7-1.6,2.1,2.1,0,0,0-1.6-.7H86.4a2.1,2.1,0,0,0-1.6.7,2.4,2.4,0,0,0-.7,1.6V118a2.4,2.4,0,0,0,.7,1.6A2.1,2.1,0,0,0,86.4,120.3Zm-.7-4v3.1a1.3,1.3,0,0,1-.9-1.4v-3.3a1.8,1.8,0,0,1,.5-1.2,1.5,1.5,0,0,1,1.1-.4H91a1.5,1.5,0,0,1,1.4.9H88a2.1,2.1,0,0,0-1.6.7A2.2,2.2,0,0,0,85.7,116.3Zm.7,9.3h.2a1.7,1.7,0,0,1,1.6.9H88a2.5,2.5,0,0,0-1.6.6,2.6,2.6,0,0,0-.7,1.7v16.6h-.3l-.4-.3a.8.8,0,0,1-.2-.6V127.2a1.8,1.8,0,0,1,.5-1.2A1.5,1.5,0,0,1,86.4,125.6Zm12.7,22,.2.4H92c0-.2.1-.3.3-.4l.2-.2h6.4ZM98.3,111a4.3,4.3,0,0,1,1.1,3v7.9a4,4,0,0,1-.7,2.4,4.8,4.8,0,0,1-1.8,1.7,2.3,2.3,0,0,0-1.5,2,1.5,1.5,0,0,0,.1.7l2.4,16.7h-.3c-.3-.1-.5-.3-.5-.4L94.6,127h-.1a2,2,0,0,0-.1-.5,1,1,0,0,1,.3-.8l.8-.6a4.1,4.1,0,0,0,2.2-1.9,5.4,5.4,0,0,0,.8-2.8v-7.9A5.2,5.2,0,0,0,98.3,111Z"/><path d="M120.7,112.4V142a4.4,4.4,0,0,1-1.3,3.3,4.8,4.8,0,0,1-3.2,1.3H101c0-.1,0-.2.1-.2a.5.5,0,0,1,.2-.4,2.5,2.5,0,0,1,.8-.5,1.5,1.5,0,0,0,.4-1.2V110.1a1.5,1.5,0,0,0-.4-1.2l-.7-.4c-.2-.2-.3-.3-.3-.5s-.1-.1-.1-.2h15.2a4.8,4.8,0,0,1,3.2,1.3A4.4,4.4,0,0,1,120.7,112.4Zm.5-1.4a4.8,4.8,0,0,1,1.1,3v29.6a4.4,4.4,0,0,1-1.3,3.3,4.9,4.9,0,0,1-3.3,1.3H102.6c0-.1,0-.2.1-.2s.2-.5.5-.6h13a4.6,4.6,0,0,0,3.6-1.6,4.7,4.7,0,0,0,1.6-3.7V112.4A5.2,5.2,0,0,0,121.2,111Zm-5,28.7v-25a2.4,2.4,0,0,0-.7-1.6,2.1,2.1,0,0,0-1.6-.7h-4.6a2.1,2.1,0,0,0-1.6.7,2.4,2.4,0,0,0-.7,1.6v25a2.2,2.2,0,0,0,.7,1.6,2.1,2.1,0,0,0,1.6.7h4.6a2.1,2.1,0,0,0,1.6-.7A2.2,2.2,0,0,0,116.2,139.7Zm-7.6-23.4v24.9a1.6,1.6,0,0,1-.9-1.5v-25a1.8,1.8,0,0,1,.5-1.2,1.5,1.5,0,0,1,1.1-.4h4.6a1.5,1.5,0,0,1,1.4.9h-4.4a2.1,2.1,0,0,0-1.6.7A2.2,2.2,0,0,0,108.6,116.3Z"/><path d="M162.8,107.8h9.1a4.6,4.6,0,0,1,3.2,1.3,4.4,4.4,0,0,1,1.3,3.3V117c0,.4-.2.5-.6.5h-5.4v-.2l.2-.4.8-.5c.2-.1.4-.5.4-1.1v-.6a2,2,0,0,0-.7-1.6,2.1,2.1,0,0,0-1.6-.7H165a2.1,2.1,0,0,0-1.6.7,2.3,2.3,0,0,0-.6,1.6v25A2.2,2.2,0,0,0,165,142h4.6a2.1,2.1,0,0,0,1.6-.7,1.9,1.9,0,0,0,.7-1.6V127.2a1.8,1.8,0,0,0-.7-1.5,2.1,2.1,0,0,0-1.6-.7h-.3a1.1,1.1,0,0,0-1,.5l-.4.6-.4.3h-.3V121a.5.5,0,0,1,.6-.6h4.1a4.2,4.2,0,0,1,3.2,1.3,4.4,4.4,0,0,1,1.3,3.3v17a4.4,4.4,0,0,1-1.3,3.3,4.6,4.6,0,0,1-3.2,1.3h-9.1a4.9,4.9,0,0,1-3.3-1.3,4.4,4.4,0,0,1-1.3-3.3V112.4a4.4,4.4,0,0,1,1.3-3.3A4.9,4.9,0,0,1,162.8,107.8ZM177.1,142V125a3,3,0,0,0-.2-1.4,4.1,4.1,0,0,1,1.1,3v17a4.4,4.4,0,0,1-1.3,3.3,4.6,4.6,0,0,1-3.2,1.3h-9.1a4.8,4.8,0,0,1-3-1.1l1.4.2h9.1a5.3,5.3,0,0,0,5.2-5.3Zm-12.7-25.7v24.9a1.5,1.5,0,0,1-1-1.5v-25a1.8,1.8,0,0,1,.5-1.2,1.5,1.5,0,0,1,1.1-.4h4.6a1.8,1.8,0,0,1,1.5.9h-4.5a2.2,2.2,0,0,0-2.2,2.3Zm5,9.4h.2a1.5,1.5,0,0,1,.9.2,1.8,1.8,0,0,1,.5.7h-.1a1.1,1.1,0,0,0-1,.5l-.4.6-.4.3h-.2v-2.1C168.9,125.8,169.1,125.7,169.4,125.7Zm7.5-14.7a4.3,4.3,0,0,1,1.1,3v4.6a.6.6,0,0,1-.1.4H172v-.2a1.2,1.2,0,0,1,.5-.5l.2-.2h3.1l.9-.3a1.6,1.6,0,0,0,.3-.9v-4.6A3,3,0,0,0,176.9,111Z"/><path d="M199.6,113.5a4.3,4.3,0,0,1-.4-.7c-.2-.3-.6-.4-1.2-.4h-9.2a2.1,2.1,0,0,0-1.6.7,2.3,2.3,0,0,0-.6,1.6v3.4a2.3,2.3,0,0,0,.6,1.6,2.6,2.6,0,0,0,1.6.7h4.7c.6,0,1-.2,1.1-.5a2.1,2.1,0,0,0,.4-.6l.5-.4h.2v7.5c-.1,0-.2,0-.2-.1s-.3-.1-.5-.3l-.4-.7c-.1-.2-.5-.4-1.1-.4h-4.7a2.1,2.1,0,0,0-1.6.7,2.5,2.5,0,0,0-.6,1.6v12.5a2.5,2.5,0,0,0,.6,1.7,2.5,2.5,0,0,0,1.6.6H198c.6,0,1-.1,1.2-.4a.9.9,0,0,1,.4-.6l.4-.4h.2V146c0,.2,0,.3-.1.4l-.4.2H180.5v-.2c.1-.2.1-.3.3-.4l.7-.5c.3-.2.4-.5.4-1.2V110.1c0-.7-.1-1-.4-1.2l-.7-.4-.3-.5a.3.3,0,0,1-.1-.2h19.2a.5.5,0,0,1,.4.2.6.6,0,0,1,.1.4v5.4H200Zm1.6,29c.1-.2.2-.3.4-.3h.2v5.4c0,.2,0,.3-.1.4l-.4.2H182.1V148a1,1,0,0,1,.5-.6h17a1.8,1.8,0,0,0,.9-.4,1.2,1.2,0,0,0,.3-.9v-3l.2-.3Zm-13-26.2v3.2a1.6,1.6,0,0,1-1-1.4v-3.4a1.8,1.8,0,0,1,.5-1.2,1.5,1.5,0,0,1,1.1-.4h9.7l.4.4c0,.1.1.2.2.3h-8.7a2.2,2.2,0,0,0-2.2,2.3Zm0,12.5v12.4a1.6,1.6,0,0,1-1-1.5V127.2a1.7,1.7,0,0,1,1.6-1.6H194l.3.5.2.3h-4.1a2.1,2.1,0,0,0-1.6.7A2.5,2.5,0,0,0,188.2,128.8Zm8.2-1.6v-6.4l.5-.3h.2V128h-.2l-.5-.2v-.5Zm4.5-17.8h.4l.4.2a.6.6,0,0,1,.1.4v5.4h-.2l-.4-.3v-.2l-.2-.3Z"/><path d="M219.1,146l.5-.6a.8.8,0,0,0,.2-.6c0-.2-.1-.3-.1-.5h0l-1.2-5.6-.4-2.2v-.3a3.1,3.1,0,0,0-1-1.6,2.7,2.7,0,0,0-1.7-.6h-1.2a2.7,2.7,0,0,0-1.7.6,3.3,3.3,0,0,0-1.1,1.6l-.4,2-1.3,6a3.5,3.5,0,0,1-.1.6,1,1,0,0,0,.4.7l.4.4.3.4v.2h-7.2v-.2a.7.7,0,0,1,.4-.5l.5-.4c.2-.1.3-.5.5-1.2l6.7-34.2v-.5a1.1,1.1,0,0,0-.6-1.1c-.2-.1-.2-.3-.3-.5a.3.3,0,0,1-.1-.2h8.1v.2l-.3.5a1.1,1.1,0,0,0-.7,1.1.9.9,0,0,0,.1.5l6.7,34.2c.1.7.3,1.1.5,1.2l.5.4a1,1,0,0,1,.4.5v.2h-7.1v-.2Zm-7.2,1.6a.5.5,0,0,1,.2.4c.1,0,.1.1.1.2H205V148c0-.2.1-.3.3-.4l.2-.2h5.8v-.2A2.3,2.3,0,0,0,211.9,147.6Zm2.2-12.8h1.2a2.2,2.2,0,0,1,1.7.9h-1.3a2.7,2.7,0,0,0-1.7.6,3.3,3.3,0,0,0-1.1,1.6l-.4,2-1.3,6v.3l-.2-.4c0-.1-.1-.2-.3-.4h0c-.3-.2-.5-.4-.5-.6a.4.4,0,0,1,.1-.3h0l1.3-6.1.4-1.9a2,2,0,0,1,.8-1.2A1.7,1.7,0,0,1,214.1,134.8Zm.6-5.3a1.5,1.5,0,0,0,1.1-.4,1.6,1.6,0,0,0,.4-1.2,1.8,1.8,0,0,0-.1-.6l-.4-2-.5-2.6c-.2-.6-.3-.9-.5-.9s-.3.3-.5.9l-.3,1.4-.7,3.2v.6a1.6,1.6,0,0,0,.4,1.2A1.4,1.4,0,0,0,214.7,129.5Zm.1-.7h-.1c-.3,0-.4,0-.6-.2a.9.9,0,0,1-.3-.7,2,2,0,0,0,.1-.5l.7-3.2v-.4l.3,1.6.3,1.3Zm10.3,15.4-6.7-34.3h0v-.5h1.9v.2l-.3.5a1.1,1.1,0,0,0-.7,1.1.9.9,0,0,0,.1.5l6.5,33.7h-.1l-.4-.4A2.4,2.4,0,0,1,225.1,144.2Zm2.1,3.4.3.4v.2h-7.1V148l.3-.4.3-.3h5.7l.3.2Z"/><path d="M245.3,124.4a2.3,2.3,0,0,0-1.4,2,1.5,1.5,0,0,0,.1.7l2.5,17.8a1.3,1.3,0,0,0,.5.7,1.6,1.6,0,0,1,.8.8h-7.3c0-.2.1-.3.3-.4l.3-.2a1.3,1.3,0,0,0,.6-.7,1.5,1.5,0,0,0,.2-.8L239.5,128l-.3-.9c-.4-1.5-1.2-2.2-2.5-2.2h-.2a2.5,2.5,0,0,0-1.6.6,2.6,2.6,0,0,0-.7,1.7v17.1c0,.7.2,1.1.5,1.2l.7.5a.5.5,0,0,1,.2.4c.1,0,.1.1.1.2h-7.5v-.2l.3-.4a2.5,2.5,0,0,1,.8-.5,1.5,1.5,0,0,0,.4-1.2V110.1a1.5,1.5,0,0,0-.4-1.2l-.7-.4-.4-.5v-.2h15.1a4.9,4.9,0,0,1,3.3,1.3,4.4,4.4,0,0,1,1.3,3.3v7.9a4,4,0,0,1-.7,2.4A4.4,4.4,0,0,1,245.3,124.4ZM237,147.6a.5.5,0,0,1,.2.4c.1,0,.1.1.1.2h-7.5V148c.2-.3.3-.5.5-.6h6.4Zm-.5-27.3h4.6a2.1,2.1,0,0,0,1.6-.7,2.3,2.3,0,0,0,.6-1.6v-3.3a2.3,2.3,0,0,0-.6-1.6,2.1,2.1,0,0,0-1.6-.7h-4.6a2.1,2.1,0,0,0-1.6.7,2.4,2.4,0,0,0-.7,1.6V118a2.4,2.4,0,0,0,.7,1.6A2.1,2.1,0,0,0,236.5,120.3Zm-.7-4v3.1a1.3,1.3,0,0,1-.9-1.4v-3.3a1.8,1.8,0,0,1,.5-1.2,1.5,1.5,0,0,1,1.1-.4h4.6a1.5,1.5,0,0,1,1.4.9h-4.4a2.1,2.1,0,0,0-1.6.7A1.9,1.9,0,0,0,235.8,116.3Zm.7,9.3h.2a1.8,1.8,0,0,1,1.6.9h-.2a2.5,2.5,0,0,0-1.6.6,2.2,2.2,0,0,0-.7,1.7v16.6h-.3l-.5-.3a3.5,3.5,0,0,1-.1-.6V127.2a1.8,1.8,0,0,1,.5-1.2A1.5,1.5,0,0,1,236.5,125.6Zm12.7,22,.2.4h-7.3a.5.5,0,0,1,.2-.4l.3-.2H249Zm-.8-36.6a4.8,4.8,0,0,1,1.1,3v7.9a4,4,0,0,1-.7,2.4,4.4,4.4,0,0,1-1.9,1.7,2.3,2.3,0,0,0-1.4,2,1.5,1.5,0,0,0,.1.7l2.3,16.7h-.2c-.3-.1-.5-.3-.5-.4L244.7,127h-.1a2,2,0,0,0-.1-.5,1,1,0,0,1,.3-.8l.8-.6a4.5,4.5,0,0,0,2.2-1.9,5.4,5.4,0,0,0,.8-2.8v-7.9A5.2,5.2,0,0,0,248.4,111Z"/><path d="M154,132.5c-.8-.6-.7-2.1-.5-3.6s.5-4.7-1.9-5.7a5.9,5.9,0,0,0-2.3-.5c-3.1,0-6.4,2.7-6.8,7.6h-.8v-.2c0-8.5,8-12,8.1-12a.5.5,0,0,0,.3-.5.7.7,0,0,0-.5-.4c-3.9,0-6,1.6-7,2.7a18.3,18.3,0,0,0-1.8-6,.5.5,0,0,0-.4-.3c-.2,0-.3.1-.4.3s-1.1,1.8-1.9,6c-1-1.1-3.1-2.7-7-2.7a.4.4,0,0,0-.4.4c-.1.2.1.4.3.5s8.1,3.5,8.1,12v.2h-.9c-.3-4.9-3.7-7.6-6.8-7.6a6.4,6.4,0,0,0-2.3.5c-2.4,1-2.1,3.6-1.9,5.7s.4,3-.5,3.6a.4.4,0,0,0-.2.4.4.4,0,0,0,.4.4h.3a3.1,3.1,0,0,0,3-2.7,2.9,2.9,0,0,1,2.9-2.1,4.8,4.8,0,0,1,3.4,1.8h-.2a.7.7,0,0,0-.8.8.8.8,0,0,0,.8.8h.3a3.1,3.1,0,0,1-1,1h-.2c-1.7,1.1-3,2-3,6.5,0,.2.1.4.2.4h.5a10,10,0,0,0,5.1-8.1h.8c-.5,7-3.9,9.3-3.9,9.3s-.3.4-.2.6a.5.5,0,0,0,.5.3,13.5,13.5,0,0,0,3.7-2l.9,1.1c.2.2.6.2.7,0l.9-1.1a13.5,13.5,0,0,0,3.7,2h.1c.2,0,.4-.1.4-.3a.5.5,0,0,0-.1-.6c-.1,0-3.5-2.2-4-9.3h.8a10,10,0,0,0,5.2,8.1h.2a.5.5,0,0,0,.4-.5h0c0-4.5-1.3-5.4-3-6.5h-.2a3.1,3.1,0,0,1-1-1h.3a.8.8,0,0,0,.8-.8.7.7,0,0,0-.8-.8h-.2a4.8,4.8,0,0,1,3.5-1.8,2.9,2.9,0,0,1,2.8,2.1,3.1,3.1,0,0,0,3,2.7h.4a.4.4,0,0,0,.3-.4C154.3,132.8,154.2,132.6,154,132.5Z"/><path d="M134.9,140.6a.5.5,0,0,1-.6-.4c-.2-.3,0-.6.2-.8s3.1-2.1,3.7-8.5h-.3a9.6,9.6,0,0,1-5,7.7h-.7a.9.9,0,0,1-.3-.6c0-4.5,1.4-5.4,3-6.5h.1l.7-.6a1,1,0,0,1-.9-1,1,1,0,0,1,.7-.9,3.8,3.8,0,0,0-2.8-1.3,2.6,2.6,0,0,0-2.5,1.9,3.1,3.1,0,0,1-3.1,2.8h-.3a.6.6,0,0,1-.6-.5.6.6,0,0,1,.3-.7c.7-.5.6-1.8.4-3.2s-.5-4.7,2-5.8a5.9,5.9,0,0,1,2.3-.4c3,0,6.3,2.5,6.7,7.2h.3c0-7.9-7.5-11.1-7.6-11.2a.6.6,0,0,1-.4-.7.7.7,0,0,1,.7-.6,8.9,8.9,0,0,1,6.5,2.3c.7-3.7,1.7-5.3,1.8-5.4a.6.6,0,0,1,.6-.3.5.5,0,0,1,.5.3c.1.1,1.1,1.7,1.8,5.4a8.9,8.9,0,0,1,6.5-2.3.7.7,0,0,1,.7.6.6.6,0,0,1-.4.7c-.1.1-7.6,3.3-7.6,11.2h.3c.4-4.7,3.7-7.2,6.7-7.2a5.9,5.9,0,0,1,2.3.4c2.5,1.1,2.2,3.8,2,5.8s-.3,2.7.4,3.2a.6.6,0,0,1,.3.7.6.6,0,0,1-.6.5h-.3a3.1,3.1,0,0,1-3.1-2.8,2.6,2.6,0,0,0-2.5-1.9,3.8,3.8,0,0,0-2.8,1.3,1,1,0,0,1,.7.9,1,1,0,0,1-.9,1l.7.6h.2c1.5,1.1,2.9,2,2.9,6.4a.7.7,0,0,1-.7.8h-.3a9.8,9.8,0,0,1-5-7.7h-.3c.6,6.4,3.6,8.5,3.7,8.5a.5.5,0,0,1,.2.8.5.5,0,0,1-.6.4h-.2a9.6,9.6,0,0,1-3.4-1.8l-.7.9a.5.5,0,0,1-.5.3.6.6,0,0,1-.6-.3l-.7-.9a9.6,9.6,0,0,1-3.4,1.8Z"/><path d="M139.8,113.1l.3.2c.1.1,1.1,1.8,1.8,5.8.9-1,3-2.5,6.7-2.5a.4.4,0,0,1,.2.8c-.1,0-7.8,3.3-7.8,11.5v.2h.8c.4-4.7,3.5-7.3,6.5-7.3a5.4,5.4,0,0,1,2.2.5c2.4,1,2.1,3.4,1.9,5.4s-.4,2.9.5,3.5l.2.4c-.1.2-.2.4-.4.4h-.3a3,3,0,0,1-2.9-2.6,2.7,2.7,0,0,0-2.7-2,4.5,4.5,0,0,0-3.3,1.7h.2a.7.7,0,0,1,.7.7.7.7,0,0,1-.7.8h-.3a4.1,4.1,0,0,0,.9,1h.2c1.6,1.1,2.9,1.9,2.9,6.2h0a.5.5,0,0,1-.5.4h-.1a9.6,9.6,0,0,1-5-7.8h-.7c.5,6.8,3.7,9,3.7,9a.4.4,0,0,1,.2.5c-.1.2-.2.3-.4.3h-.1a10.8,10.8,0,0,1-3.5-1.9l-.9,1.1h-.7l-.9-1.1a10.8,10.8,0,0,1-3.5,1.9h-.1c-.2,0-.3-.1-.4-.3a.4.4,0,0,1,.2-.5s3.3-2.2,3.7-9h-.7a9.9,9.9,0,0,1-4.9,7.8h-.5c-.1,0-.2-.2-.2-.3,0-4.4,1.3-5.2,2.9-6.3h.2a2,2,0,0,0,.9-1h-.3a.7.7,0,0,1-.7-.8.7.7,0,0,1,.7-.7h.2a4.5,4.5,0,0,0-3.3-1.7,2.7,2.7,0,0,0-2.7,2,3,3,0,0,1-2.9,2.6h-.3c-.2,0-.3-.2-.4-.4l.2-.4c.9-.6.7-2,.6-3.5s-.5-4.4,1.8-5.4a5.4,5.4,0,0,1,2.2-.5c3,0,6.1,2.6,6.5,7.3h.8v-.2c0-8.2-7.7-11.5-7.8-11.5a.4.4,0,0,1-.2-.5c0-.2.2-.3.4-.3,3.7,0,5.8,1.5,6.7,2.5.7-4,1.7-5.7,1.8-5.8a.5.5,0,0,1,.4-.2m0-.5a.8.8,0,0,0-.8.5c-.2.1-1,1.6-1.7,5a9.7,9.7,0,0,0-6.4-2,.9.9,0,0,0-.9.7,1,1,0,0,0,.5,1.1c.1,0,6.3,2.7,7.3,9.1-1-3.7-3.9-5.7-6.6-5.7a6,6,0,0,0-2.4.5c-2.7,1.2-2.4,3.9-2.1,6s.2,2.6-.3,3a.7.7,0,0,0-.4.9.8.8,0,0,0,.7.8h.4a3.5,3.5,0,0,0,3.4-3,2.2,2.2,0,0,1,2.2-1.6,4,4,0,0,1,2.4.9,1.4,1.4,0,0,0-.5,1,1.1,1.1,0,0,0,.6,1.1l-.3.3h-.2c-1.6,1.1-3.1,2.1-3.1,6.7a1,1,0,0,0,.5.8h.9a9.8,9.8,0,0,0,4.3-4.7c-1,3.7-2.9,5.1-2.9,5.1a.8.8,0,0,0-.3,1.1.8.8,0,0,0,.8.6h.3a16,16,0,0,0,3.3-1.7l.5.7a1.1,1.1,0,0,0,.8.3.9.9,0,0,0,.7-.3l.6-.7a16.7,16.7,0,0,0,3.2,1.7h.3a1,1,0,0,0,.9-.6.9.9,0,0,0-.4-1.1,10.7,10.7,0,0,1-3-5.1,10.3,10.3,0,0,0,4.4,4.7h.5a.9.9,0,0,0,.9-.9h0c0-4.6-1.5-5.5-3.1-6.6h-.2l-.3-.3a1.1,1.1,0,0,0,.6-1.1,1.4,1.4,0,0,0-.5-1,4,4,0,0,1,2.4-.9,2.1,2.1,0,0,1,2.2,1.6,3.5,3.5,0,0,0,3.4,3h.4a.8.8,0,0,0,.7-.8.7.7,0,0,0-.4-.9c-.5-.4-.4-1.7-.2-3s.5-4.8-2.2-6a6,6,0,0,0-2.4-.5c-2.7,0-5.6,2-6.6,5.7,1-6.4,7.2-9.1,7.3-9.1a1,1,0,0,0,.5-1.1.8.8,0,0,0-.9-.7,9.7,9.7,0,0,0-6.4,2,17.2,17.2,0,0,0-1.6-5,1,1,0,0,0-.8-.5Z" fill="#fff"/></svg>