<svg xmlns="http://www.w3.org/2000/svg" width="241.8" height="156.2" viewBox="0 0 241.8 156.2"><path d="M10.6 129.8l-1.8-3.6 18.4-14.1 1.6 3.1-3.3 2.5 1.9 3.7 3.9-1.3 1.6 3.1zm12.7-10.6l-9.4 6.6h.1l10.8-3.7zm-19.2-4.5l-.9-3.6-.3-1.4a8.1 8.1 0 0 1-.1-1.6 7.7 7.7 0 0 1 .2-1.5 4.8 4.8 0 0 1 .8-1.6 10 10 0 0 1 1.5-1.3 8.1 8.1 0 0 1 2.5-.9l.6-.2a10.9 10.9 0 0 1 4.3-.3 4.5 4.5 0 0 1 2.8 1.6l7.9-5.8.9 3.5-7.5 5 .3 1.3 8.3-2.1.8 3.3zm10.5-6.7a6.4 6.4 0 0 0-.6-1.4 1.4 1.4 0 0 0-.9-.8 2.9 2.9 0 0 0-1.4-.3l-1.9.3-1.7.5-1.5.5a3.4 3.4 0 0 0-.9.8 2 2 0 0 0-.3 1.1 4.7 4.7 0 0 0 .2 1.6v.5l9-2.3zM3 93.1v3.6l-2.7.2L0 86.1h2.7l.2 3.6 20.1-.9v3.5zM.6 78.8l.4-3.5 22.7 2.9-.4 3.4zm19.2-6.2l-1.2-.4-1.2-.7.8-2.6 1 .4 1.6.3a2.8 2.8 0 0 0 1.3 0 1.8 1.8 0 0 0 .9-.4 3.1 3.1 0 0 0 .5-1 1.8 1.8 0 0 0-.1-1.6 2.2 2.2 0 0 0-1.3-.9l-1-.3h-.9l-1 .2-1.3.5-5.2 2.2a14.3 14.3 0 0 1-2.8.7 8.3 8.3 0 0 1-2.7-.3 6.9 6.9 0 0 1-1.9-1 5.3 5.3 0 0 1-1.2-1.4 6 6 0 0 1-.6-1.9 9.7 9.7 0 0 1 .3-2.3A5.7 5.7 0 0 1 5 59.9a3.7 3.7 0 0 1 1.5-1.3 5.1 5.1 0 0 1 1.7-.3 5.7 5.7 0 0 1 1.8.3l1.2.5 1.3.6-.8 2.6-1.1-.3a6.1 6.1 0 0 0-2.8-.4A1.8 1.8 0 0 0 6.4 63a1.6 1.6 0 0 0 .1 1.5 2.3 2.3 0 0 0 1.2.9l.9.2H10l.8-.3 5.8-2.4a14.2 14.2 0 0 1 3.1-.8 7.1 7.1 0 0 1 2.9.2 9.3 9.3 0 0 1 2 1 6.1 6.1 0 0 1 1.2 1.6 3.8 3.8 0 0 1 .5 1.9A4.7 4.7 0 0 1 26 69a8.2 8.2 0 0 1-1.1 2.3 4.2 4.2 0 0 1-3.3 1.6 5.7 5.7 0 0 1-1.8-.3zm-9.5-25.8l2-3.5 22 7.5-1.7 3-3.9-1.4-2.1 3.6 3.3 2.6-1.7 3zm15.9 4.7l-10.7-4.2v.2l9.2 6.9zm-6.9-18.6l1.9-2.1 15 6.2a7.3 7.3 0 0 0-.9-.8 4.7 4.7 0 0 1-1.2-.9l-1.5-1.2-1.7-1.6-6.2-5.6 2.1-2.2L43.7 40l-1.9 2.1-14.7-5.9H27l1 .8a9.1 9.1 0 0 1 1.3 1 17.7 17.7 0 0 1 1.7 1.5c.7.5 1.4 1.2 2.3 2l4.9 4.5-2 2.3zm21.1-5.6l8.2-5.7 1.5 2.3-8.2 5.6zM51.5 7.5L55.7 6l5.1 7.6 1.4 2.5 1.2 2.2h.1c-.1-.8-.3-1.6-.5-2.5s-.3-1.8-.4-2.8l-.8-9.1L66 2.4l7.6 21.5-3 1.1-2.6-7.1c-.4-1.1-.7-2.2-1.1-3.2l-.9-2.8c-.2-.8-.5-1.6-.6-2.3l-.5-1.5h-.2l1.7 15.2-2 .8-8.3-12.9h-.2l.6 1.5a16.5 16.5 0 0 1 .9 2.2c.4.8.7 1.7 1.1 2.7a30.1 30.1 0 0 1 1.1 3.2l2.6 7.2-3.1 1.1zM78.9.4l4-.4L89 22.4l-3.5.3-1-4-4.1.3-.3 4.2-3.5.3zm5 15.7L81.4 4.9h-.2l-.6 11.5zM95.3 0l3.5.5 1.7.3a5.5 5.5 0 0 1 1.7.5 4.2 4.2 0 0 1 1.4.9 4.6 4.6 0 0 1 1.1 1.6 7 7 0 0 1 .6 2.4 19.2 19.2 0 0 1-.1 3.3l-.9 6.6a20 20 0 0 1-.8 3.3 9.8 9.8 0 0 1-1.2 2.1 4 4 0 0 1-1.5 1.2 3.4 3.4 0 0 1-1.7.5h-1.7l-1.7-.2-3.5-.5zm1.5 20.8h1.6a2.3 2.3 0 0 0 1-.7 3.4 3.4 0 0 0 .7-1.6 15 15 0 0 0 .5-2.6l1-7c.1-1.1.2-2 .2-2.7a4.2 4.2 0 0 0-.2-1.7 2.8 2.8 0 0 0-.9-1 3.9 3.9 0 0 0-1.5-.4h-.8l-2.5 17.6zm18-16.9l8 2.8-.9 2.6-4.7-1.7-2.4 6.4 3.7 1.3-.9 2.6-3.7-1.3-2.6 7.4 4.8 1.7-.9 2.6-8.1-3zM36.7 71h7.7a19.7 19.7 0 0 1 2.4.3l2.2.8a6.2 6.2 0 0 1 1.9 1.4 6.1 6.1 0 0 1 1.2 2.1 9 9 0 0 1 .5 3v1.7a6.9 6.9 0 0 1-.4 2.5 9.3 9.3 0 0 1-1 2 4.9 4.9 0 0 1-1.5 1.4 3.8 3.8 0 0 1-1.7.8v.2a5.7 5.7 0 0 1 3.9 2.4 9.2 9.2 0 0 1 1.3 5v1.7a10.2 10.2 0 0 1-.5 3.2 6.6 6.6 0 0 1-1.1 2.4 9.3 9.3 0 0 1-1.8 1.6 7.3 7.3 0 0 1-2.2.9 10.9 10.9 0 0 1-2.6.5h-8.3zm6.1 14.6l1.9-.2a5.3 5.3 0 0 0 1.5-.8 3.4 3.4 0 0 0 .9-1.4 6 6 0 0 0 .3-2v-1.4a7.8 7.8 0 0 0-.2-2.2 3.7 3.7 0 0 0-2.2-2.5 6.9 6.9 0 0 0-2.2-.3h-1v10.8zm.5 15.9a5.8 5.8 0 0 0 1.9-.2 4.2 4.2 0 0 0 1.4-.9 3.9 3.9 0 0 0 1-1.4 6.6 6.6 0 0 0 .3-2.1v-2.7a13.6 13.6 0 0 0-.2-2.1 5.3 5.3 0 0 0-.8-1.5 3.1 3.1 0 0 0-1.5-1 6.2 6.2 0 0 0-2.1-.3h-1.5v12.2zM60.7 71h12.7v4.1h-7.5v10.2h5.8v4.1h-5.8v11.7h7.7v4H60.7zm23.4 0h6l6.3 34.1h-5.2l-1-6.1H84l-.9 6.1h-5.3zm5.5 24.1l-2.4-17H87l-2.4 17zM102.8 71h7.7a10.9 10.9 0 0 1 4.5 1.3 7.5 7.5 0 0 1 1.9 1.7 8.5 8.5 0 0 1 1.3 2.7 15 15 0 0 1 .5 4v.8a16.7 16.7 0 0 1-1.1 6.4 6.7 6.7 0 0 1-3.3 3.5l5.5 13.6h-5.5l-4.5-12.7h-2V105h-5zm5.8 17.6a7.5 7.5 0 0 0 2.3-.3 3.1 3.1 0 0 0 1.5-1 4.2 4.2 0 0 0 .9-1.9 20.3 20.3 0 0 0 .2-2.8v-2.7a14 14 0 0 0-.2-2.3 3.4 3.4 0 0 0-.8-1.6 3.8 3.8 0 0 0-1.5-.9 8.3 8.3 0 0 0-2.4-.3h-.8v13.8zM126.8 71h7.9a10.9 10.9 0 0 1 2.5.4 12.8 12.8 0 0 1 2.4 1.1 6.5 6.5 0 0 1 1.9 2.1 13.4 13.4 0 0 1 1.4 3.4 24.7 24.7 0 0 1 .4 5v10a23.5 23.5 0 0 1-.4 5 12 12 0 0 1-1.4 3.4 6.5 6.5 0 0 1-1.9 2.1 8.6 8.6 0 0 1-2.4 1.1 11.1 11.1 0 0 1-2.5.5h-7.9zm6.5 30.5a7.5 7.5 0 0 0 2.3-.3 3.5 3.5 0 0 0 1.4-1.3 6.8 6.8 0 0 0 .7-2.5 22.4 22.4 0 0 0 .2-3.9V82.9a23 23 0 0 0-.2-4 7.5 7.5 0 0 0-.7-2.5 2.7 2.7 0 0 0-1.4-1.2 5.3 5.3 0 0 0-2.3-.4h-1.4v26.7zm32.3 4l-1.4-.2a5.8 5.8 0 0 1-1.6-.5 8.8 8.8 0 0 1-1.7-1.2 7.8 7.8 0 0 1-1.4-2 12 12 0 0 1-1.1-3.2 18.9 18.9 0 0 1-.4-4.4V81.9a27.6 27.6 0 0 1 .4-4.4 10.4 10.4 0 0 1 1.2-3 5.4 5.4 0 0 1 1.6-2l1.8-1.2 2-.5h1.8a9.5 9.5 0 0 1 3.5.6 7.6 7.6 0 0 1 2.3 1.5 7 7 0 0 1 1.3 2.4 11.7 11.7 0 0 1 .4 2.7 12.5 12.5 0 0 1-.2 2.1l-.3 2h-4.2v-1.7c0-3.7-1-5.6-3-5.6a3.2 3.2 0 0 0-1.4.3 2.8 2.8 0 0 0-1 .9 4.8 4.8 0 0 0-.6 1.8 18.7 18.7 0 0 0-.2 2.7V96a17.2 17.2 0 0 0 .2 2.6 3.4 3.4 0 0 0 .6 1.7 2.4 2.4 0 0 0 1 1l1.4.2a2.6 2.6 0 0 0 1.5-.4 3.4 3.4 0 0 0 1-1.3 18.9 18.9 0 0 0 .6-1.8 16.4 16.4 0 0 0 .2-2.3v-4.4h-2.7v-3.4h7.7v17.2h-3.4l-.6-3.2a6.9 6.9 0 0 1-2.2 2.7 5.4 5.4 0 0 1-3.1.9zM182.7 71h12.7v4.1h-7.5v10.2h5.8v4.1h-5.8v11.7h7.7v4h-12.9zm23.4 0h6l6.3 34.1h-5.2l-1-6.1H206l-.9 6.1h-5.2zm5.5 24.1l-2.4-17h-.2l-2.4 17zM224.8 71h7.7a9.3 9.3 0 0 1 2.3.4 8.5 8.5 0 0 1 2.2.9 6.1 6.1 0 0 1 1.9 1.7 6.8 6.8 0 0 1 1.3 2.7 11.8 11.8 0 0 1 .5 4v.8a15 15 0 0 1-1.1 6.4 6.7 6.7 0 0 1-3.3 3.5l5.5 13.6h-5.5l-4.5-12.7h-1.9V105h-5.1zm5.8 17.6a7.5 7.5 0 0 0 2.3-.3 2.4 2.4 0 0 0 1.5-1 4.2 4.2 0 0 0 .9-1.9 11.4 11.4 0 0 0 .2-2.8v-2.7a7.9 7.9 0 0 0-.2-2.3 3.4 3.4 0 0 0-.8-1.6 3.8 3.8 0 0 0-1.5-.9 7.8 7.8 0 0 0-2.4-.3h-.7v13.8zM88.3 156.2A67.7 67.7 0 0 1 40.9 137l3.8-3.9a62.7 62.7 0 0 0 100.4-18.5l4.9 2.4a67.8 67.8 0 0 1-60.6 39.2zm58.6-90.4a63.2 63.2 0 0 0-20.4-27.5l3.3-4.3A67.2 67.2 0 0 1 152 63.9z"/></svg>