<svg xmlns="http://www.w3.org/2000/svg" width="32" height="12.3" viewBox="0 0 32 12.3"><title>logo-32</title><g id="logo-32"><path d="M2.8,4.2V5.3l.3.2V7.9c0,.2,0,.3-.1.4l-.4.2H.8V3.7H2.3a.4.4,0,0,1,.4.2C2.8,3.9,2.8,4,2.8,4.2Zm.4,1.4a.4.4,0,0,1,.1.3V8.1c0,.2,0,.3-.1.4l-.4.2H2.6L3,8.4a.6.6,0,0,0,.2-.5V5.7ZM2,4.2H1.5a.3.3,0,0,0-.1.2v.7h.7V4.2Zm.6,3.4V6a.3.3,0,0,1-.1-.2h-1V7.6c0,.1,0,.2.1.2h1A.3.3,0,0,0,2.6,7.6Zm-1-3V4.4a.1.1,0,0,1,.1-.1H2c.1,0,.1.1.2.2H1.7Zm0,1.6V7.8c-.1,0-.1-.1-.1-.2V6h.1a.1.1,0,0,1,.1-.1h0A.3.3,0,0,0,1.6,6.2Zm1.3-1V4c.1.1.1.2.1.4v.9Z" fill="#010101"/><path d="M5.9,4.3H4.4a.3.3,0,0,0-.1.2v.7h1v.9h0a.1.1,0,0,1-.1-.1H4.4V7.6c0,.1,0,.2.1.2s.1.1.2.1H5.7c.1,0,.2,0,.2-.1H6v.7H3.7V3.7H3.6a.1.1,0,0,0-.1-.1H6v.6H5.9ZM6.1,8h.1v.7H6.1V8ZM4.5,4.6V4.4H5.8c.1,0,.1,0,.1.1H4.6Zm0,1.6V7.8c-.1,0-.1-.1-.1-.2V6h.8a.1.1,0,0,0,.1.1H4.6A.3.3,0,0,0,4.5,6.2Zm1-.2V5.3h.1v.9H5.5Zm.6-2.2h.1v.6H6.1Z" fill="#010101"/><path d="M8.4,8.4h.1l-.2-.7V7.2h0L8.1,7H7.5a.3.3,0,0,0-.1.2v.2l-.2.8H6.5c.1,0,.1,0,.1-.1l.9-4.3h.7l.9,4.3H8.4Zm-.9.2ZM7.8,7H7.7a.3.3,0,0,0-.1.2v.2l-.2.8H7.3l.2-.8V7.2c0-.1,0-.1.1-.2Zm0-.7H8V6.1H8V5.5H7.7V6H7.6c0,.1.1.1.1.2Zm.1-.1H7.8c-.1,0-.1,0-.1-.1h0V5.7h0v.6Zm1.3,2L8.3,3.9h.1l.9,4.2H9.2Zm.2.4h0Z" fill="#010101"/><path d="M11.9,5.7a.2.2,0,0,0-.2.2h0l.4,2.3h-.6l-.3-2.1h-.1a.3.3,0,0,0-.3-.3h-.2V8.2c0,.1,0,.1.1.1H9.9V3.7h1.8a.4.4,0,0,1,.4.2c.1.1.1.2.1.4v1a.4.4,0,0,1-.1.3ZM10.8,8.6h0Zm0-3.4h.8V4.2h-1a.3.3,0,0,0-.1.2v.7Zm-.1-.6V4.4a.1.1,0,0,1,.1-.1h.7l.2.2h-.8Zm.1,1.2h0c-.1.1-.1.1-.1.2V8.3h-.1V6h.1C10.7,5.8,10.7,5.8,10.8,5.8Zm1.6,2.8ZM12.3,4c.1.1.1.2.1.4v1a.4.4,0,0,1-.1.3l-.2.2-.2.2h0l.3,2.1h0a.1.1,0,0,1-.1-.1L11.8,6h.1c.2-.1.2-.2.3-.3a.4.4,0,0,0,.1-.3V4Z" fill="#010101"/><path d="M15.1,4.2V7.9c0,.2,0,.3-.2.4l-.4.2H12.8V3.7h1.7c.2,0,.3,0,.4.2S15.1,4,15.1,4.2Zm.1-.2c.1.1.1.2.1.4V8.1c0,.2,0,.3-.2.4l-.4.2h-.2l.5-.2c.1-.2.2-.3.2-.5V4Zm-.7,3.6V4.2h-1a.3.3,0,0,0-.1.2V7.6c0,.1,0,.2.1.2s.1.1.2.1h.8Zm-.9-3V7.8c-.1,0-.1-.1-.1-.2V4.4h.8a.3.3,0,0,1,.1.2h-.7Z" fill="#010101"/><path d="M20.4,3.6h1.2a.4.4,0,0,1,.4.2c.1.1.1.2.1.4v.5h-.6V4.5h0V4.2h-1a.3.3,0,0,0-.1.2V7.6c0,.1,0,.2.1.2h1a.3.3,0,0,0,.1-.2h0V6.1h0a.3.3,0,0,1-.1-.2H21V5.2h1a.8.8,0,0,1,.1.4V7.9c0,.2,0,.3-.1.4l-.4.2H20.4L20,8.3a.5.5,0,0,1-.2-.4V4.2a.5.5,0,0,1,.2-.4A.4.4,0,0,1,20.4,3.6Zm1.8,4.3V5.7h0a.4.4,0,0,1,.1.3V8.1c0,.2,0,.3-.1.4l-.4.2H20.6l-.4-.2h1.4l.4-.2A.6.6,0,0,0,22.2,7.9ZM20.6,4.6V7.8c-.1,0-.1-.1-.1-.2V4.4a.1.1,0,0,1,.1-.1h.7l.2.2h-.8Zm.6,1.2h.1a.1.1,0,0,1,.1.1h-.2V5.9Zm1-1.8c.1.1.1.2.1.4v.5h-.1V4Z" fill="#010101"/><path d="M25.1,4.3H23.5a.3.3,0,0,0-.1.2v.7h.8a.1.1,0,0,0,.1-.1h.2v.9H23.5V7.6c0,.1,0,.2.1.2h1.4a.1.1,0,0,0,.1-.1h.1v.7H22.8V3.7h2.3v.6ZM25.3,8h0v.7h-.1V8h.1ZM23.6,4.6V4.4a.1.1,0,0,1,.1-.1h.1Zm0,1.6V7.8c-.1,0-.1-.1-.1-.2V6h.1c0-.1,0-.1.1-.1h0A.3.3,0,0,0,23.6,6.2ZM24.7,6V5.3h.1v.9h-.1Zm.5-2.2h.1v.6h-.1Z" fill="#010101"/><path d="M27.5,8.4h.1l-.2-.7V7.2h0a.3.3,0,0,0-.1-.2h-.6l-.2.2v.2l-.2.8h-.6l.9-4.3h.7l.9,4.3c0,.1,0,.1.1.1h-.8Zm-.9.2ZM26.9,7h.2c-.1,0-.2,0-.2.1l-.2.2v.2l-.2.8h0c-.1,0-.1,0-.1-.1h0l.2-.8V7.2c0-.1.1-.1.1-.2Zm.1-.7h.1c0-.1.1-.1.1-.2h-.1V5.5h-.1V6h0v.2Zm0-.1h-.1V5.7H27v.6Zm1.3,2-.9-4.3h.1l.9,4.2h-.1Zm.2.4h0Z" fill="#010101"/><path d="M30.8,5.7a.2.2,0,0,0-.2.2h.1L31,8.3h-.6l-.3-2.1h0c-.1-.2-.2-.3-.4-.3h-.2c0,.1-.1.1-.1.2V8.2c0,.1,0,.1.1.1h-.7V3.7h1.8a.4.4,0,0,1,.4.2c.1.1.1.2.1.4V5.5Zm-1,2.9Zm-.1-3.4h.8V4.2h-1v.9Zm-.1-.6V4.4a.1.1,0,0,1,.1-.1h.7l.2.2h-.8Zm.1,1.2h0c0,.1-.1.1-.1.2V8.3h-.1V6h.1A.1.1,0,0,1,29.7,5.8Zm1.6,2.8ZM31.2,4c.1.1.1.2.1.4V5.7l-.3.2a.2.2,0,0,0-.2.2c0,.1,0,.1.1.1l.3,2.1h-.1L30.7,6h.2l.2-.3a.4.4,0,0,0,.1-.3V4Z" fill="#010101"/><path d="M19.3,6.7a.7.7,0,0,1-.1-.5.5.5,0,0,0-.2-.7h-.3a.8.8,0,0,0-.8.9h-.1a1.7,1.7,0,0,1,1-1.5h0a1.3,1.3,0,0,0-.9.3,4.5,4.5,0,0,0-.3-.8h-.1c0,.1-.1.3-.2.8a1.3,1.3,0,0,0-.9-.3h0a1.7,1.7,0,0,1,1,1.5h-.1a.8.8,0,0,0-.8-.9h-.3a.7.7,0,0,0-.3.7.4.4,0,0,1,0,.5h0a.4.4,0,0,0,.4-.3c.1-.2.2-.3.4-.3l.4.2h0c0,.1,0,.1-.1.1h0c-.2.1-.4.2-.4.8h.1a1.2,1.2,0,0,0,.6-1h.1a1.4,1.4,0,0,1-.5,1.2H17l.4-.2h.4l.4.2h.1a1.4,1.4,0,0,1-.5-1.2h.1a1.2,1.2,0,0,0,.6,1h.1c0-.6-.2-.7-.4-.8h0c-.1,0-.1,0-.1-.1h0l.4-.2c.2,0,.3.1.4.3s.3.3.4.3h0Z" fill="#010101"/><path d="M18.1,7.7l-.5-.2h-.3c-.1.2-.4.2-.4.2h-.1c0-.1,0-.1.1-.1a1.4,1.4,0,0,0,.4-1.1,1.2,1.2,0,0,1-.7,1h-.1c0-.6.2-.7.4-.8V6.4h-.1a.3.3,0,0,1,.1-.2h-.4l-.3.2c-.1.3-.3.4-.4.4h-.1a.9.9,0,0,0,.1-.5c0-.2-.1-.6.2-.7h.3c.4,0,.8.3.9,1h.1a2.1,2.1,0,0,0-1-1.4h0a1.3,1.3,0,0,1,.9.3,1.7,1.7,0,0,1,.1-.7h.2a3.1,3.1,0,0,1,.2.7,1,1,0,0,1,.8-.3h.1a1.6,1.6,0,0,0-1,1.4h.1a.8.8,0,0,1,.8-.9h.3c.3.1.3.5.2.7s0,.3.1.4h-.1c-.1,0-.3-.1-.4-.4l-.3-.2-.4.2h.1c.2.1.4.2.4.8h-.1a1.4,1.4,0,0,1-.7-1,1.6,1.6,0,0,0,.5,1.1h-.1Z" fill="#010101"/><path d="M17.5,4.3h.1a3.1,3.1,0,0,1,.2.7,1.2,1.2,0,0,1,.8-.3h.1a1.5,1.5,0,0,0-1,1.4h.1a.8.8,0,0,1,.8-.9h.3c.3.1.2.4.2.7s0,.4.1.4h-.1a.4.4,0,0,1-.4-.3.3.3,0,0,0-.3-.3.5.5,0,0,0-.4.3h0c.1,0,.1,0,.1.1h0c.2.1.4.2.4.8h-.1a.9.9,0,0,1-.6-.9h-.1a1.3,1.3,0,0,0,.5,1.1h-.1l-.4-.3v.2h-.1V7.4l-.5.3h0c-.1-.1,0-.1,0-.1a1.4,1.4,0,0,0,.4-1.1h0a1.1,1.1,0,0,1-.7.9h0c0-.6.1-.7.3-.8h0a.1.1,0,0,1,.1-.1h0c-.1-.2-.2-.3-.4-.3a.5.5,0,0,0-.3.3.4.4,0,0,1-.4.3h0c.1,0,0-.2,0-.4s0-.6.3-.7h.2a1,1,0,0,1,.9.9h.1a1.6,1.6,0,0,0-1-1.4h0a1,1,0,0,1,.8.3,1.4,1.4,0,0,1,.3-.7h0m0-.1h-.1l-.2.7a1.2,1.2,0,0,0-.8-.3.1.1,0,0,0-.1.1v.2A1.7,1.7,0,0,1,17.3,6a.9.9,0,0,0-.9-.7h-.3c-.3.1-.3.4-.2.7s0,.3-.1.4h0a.1.1,0,0,0,.1.1h0a.4.4,0,0,0,.4-.4l.3-.2h.3v.2h0a1,1,0,0,0-.4.9h.2a1.7,1.7,0,0,0,.5-.6c-.1.5-.4.6-.4.6v.2h.1l.5-.3h0a.1.1,0,0,0,.1.1c.1,0,.1,0,.1-.1h.1l.4.3h.1c.1-.1,0-.1,0-.2s-.3-.1-.4-.6a1.5,1.5,0,0,0,.6.6h.1c0-.6-.1-.7-.3-.9h0c0-.1-.1-.1-.1-.2h.3l.3.2a.4.4,0,0,0,.4.4h.1a.1.1,0,0,1,.1-.1h-.1c-.1-.1-.1-.2,0-.4s0-.6-.3-.7h-.3a.8.8,0,0,0-.8.7,1.5,1.5,0,0,1,.9-1.1c0-.1.1-.1,0-.2a.1.1,0,0,0-.1-.1,1.5,1.5,0,0,0-.8.3c-.1-.5-.2-.6-.2-.7Z" fill="#fff"/></g></svg>