<svg id="logo-256" xmlns="http://www.w3.org/2000/svg" width="256" height="72" viewBox="0 0 256 72"><title>logo-256</title><path d="M23.7,20.4V29a4.4,4.4,0,0,1,1.6,1.7,4.1,4.1,0,0,1,.6,2.3V50a4.4,4.4,0,0,1-1.3,3.3,4.6,4.6,0,0,1-3.2,1.3H6.2a.3.3,0,0,1,.1-.2c0-.2.1-.3.3-.4l.7-.5c.3-.2.4-.5.4-1.2V18.1c0-.7-.1-1-.4-1.2l-.7-.4c-.1-.2-.3-.3-.3-.5v-.2H19.1a4.4,4.4,0,0,1,3.2,1.3A4.5,4.5,0,0,1,23.7,20.4Zm2.7,11.2a4.1,4.1,0,0,1,1.1,3v17a4.4,4.4,0,0,1-1.3,3.3A4.6,4.6,0,0,1,23,56.2H7.8c0-.1,0-.2.1-.2a1,1,0,0,1,.5-.6h13A5.3,5.3,0,0,0,26.6,50V33A3,3,0,0,0,26.4,31.6ZM16.8,20.4H14.5a2.1,2.1,0,0,0-1.6.7,2.3,2.3,0,0,0-.6,1.6V26a2.3,2.3,0,0,0,.6,1.6,2.1,2.1,0,0,0,1.6.7h2.3a2,2,0,0,0,1.6-.7,2,2,0,0,0,.7-1.6V22.7a2,2,0,0,0-.7-1.6A2,2,0,0,0,16.8,20.4Zm4.6,27.3V35.2A2.4,2.4,0,0,0,19.1,33H14.5a2.1,2.1,0,0,0-1.6.7,2,2,0,0,0-.6,1.5V47.7A2.2,2.2,0,0,0,14.5,50h4.6a2.1,2.1,0,0,0,1.6-.7A2.2,2.2,0,0,0,21.4,47.7ZM13.9,24.3v3.1a1.3,1.3,0,0,1-1-1.4V22.7a1.8,1.8,0,0,1,.5-1.2,1.5,1.5,0,0,1,1.1-.4h2.3a1.6,1.6,0,0,1,1.5.9H16.1a2.2,2.2,0,0,0-2.2,2.3Zm0,12.5V49.2a1.5,1.5,0,0,1-1-1.5V35.2a1.6,1.6,0,0,1,.5-1.1,1.5,1.5,0,0,1,1.1-.4h4.6a1.8,1.8,0,0,1,1.5.9H16.1a2.5,2.5,0,0,0-1.6.6A2.5,2.5,0,0,0,13.9,36.8Zm10.4-8.1V20.4a5.7,5.7,0,0,0-.1-1.4,4.8,4.8,0,0,1,1.1,3v7.5Z" fill="#010101"/><path d="M48.2,21.5a1.6,1.6,0,0,1-.4-.7c-.2-.3-.6-.4-1.2-.4H37.4a2.1,2.1,0,0,0-1.6.7,2.3,2.3,0,0,0-.6,1.6v3.4a2.3,2.3,0,0,0,.6,1.6,2.6,2.6,0,0,0,1.6.7H42a1.4,1.4,0,0,0,1.2-.5l.4-.6.4-.4h.3v7.5H44a.5.5,0,0,1-.4-.3,4.3,4.3,0,0,1-.4-.7,1.7,1.7,0,0,0-1.2-.4H37.4a2.1,2.1,0,0,0-1.6.7,2.5,2.5,0,0,0-.6,1.6V47.7a2.5,2.5,0,0,0,.6,1.7,2.5,2.5,0,0,0,1.6.6h9.2c.6,0,1-.1,1.2-.4a.9.9,0,0,1,.4-.6c.1-.2.3-.3.4-.4h.2V54c0,.2,0,.3-.1.4l-.4.2H29.1c0-.1,0-.2.1-.2a.5.5,0,0,1,.2-.4l.8-.5c.3-.2.4-.5.4-1.2V18.1c0-.7-.1-1-.4-1.2l-.7-.4c-.1-.2-.3-.3-.3-.5s-.1-.1-.1-.2H48.3l.4.2a.6.6,0,0,1,.1.4v5.4h-.2Zm1.6,29c.1-.2.2-.3.4-.3h.2v5.4c0,.2,0,.3-.1.4l-.4.2H30.7c0-.1,0-.2.1-.2a1,1,0,0,1,.5-.6h17a1.8,1.8,0,0,0,.9-.4,1.2,1.2,0,0,0,.3-.9V51l.2-.3ZM36.7,24.3v3.2a1.5,1.5,0,0,1-.9-1.4V22.7a1.8,1.8,0,0,1,.5-1.2,1.5,1.5,0,0,1,1.1-.4h9.7l.4.4.2.3H39a2.1,2.1,0,0,0-1.6.7A2.2,2.2,0,0,0,36.7,24.3Zm0,12.5V49.2a1.6,1.6,0,0,1-.9-1.5V35.2a1.7,1.7,0,0,1,1.6-1.6h5.2l.3.5.2.3H39a2.1,2.1,0,0,0-1.6.7A2.6,2.6,0,0,0,36.7,36.8ZM45,35.2V28.8l.4-.3h.3V36h-.3l-.4-.2v-.5Zm4.5-17.8h.4l.4.2a.6.6,0,0,1,.1.4v5.4h-.2l-.4-.3v-.2l-.2-.3Z" fill="#010101"/><path d="M67.7,54l.5-.6c.1-.1.1-.3.1-.6v-.5h0l-1.2-5.6-.4-2.2v-.3a3.1,3.1,0,0,0-1-1.6,2.7,2.7,0,0,0-1.7-.6H62.6a2.9,2.9,0,0,0-1.7.6,3.9,3.9,0,0,0-1,1.6l-.4,2-1.3,6a3.5,3.5,0,0,1-.1.6.8.8,0,0,0,.4.7l.4.4a.5.5,0,0,1,.2.4c.1,0,.1.1.1.2H52c0-.1,0-.2.1-.2a.7.7,0,0,1,.4-.5l.4-.4q.3-.2.6-1.2l6.7-34.2v-.5a1.1,1.1,0,0,0-.7-1.1.8.8,0,0,1-.2-.5c-.1,0-.1-.1-.1-.2h8.1V16l-.3.5a1.1,1.1,0,0,0-.7,1.1v.5L73,52.3q.3,1.1.6,1.2l.5.4a1,1,0,0,1,.4.5v.2H67.3a.3.3,0,0,1,.1-.2C67.5,54.2,67.5,54.1,67.7,54Zm-7.2,1.6a.5.5,0,0,1,.2.4c.1,0,.1.1.1.2H53.6c0-.1,0-.2.1-.2a.5.5,0,0,1,.2-.4l.3-.2H60v-.2C60,55.2,60.2,55.4,60.5,55.6Zm2.1-12.8h1.3a2.2,2.2,0,0,1,1.7.9H64.2a2.9,2.9,0,0,0-1.7.6,3.9,3.9,0,0,0-1,1.6l-.4,2-1.3,6v.3l-.2-.4-.3-.4h0c-.3-.2-.5-.4-.5-.6a.4.4,0,0,1,.1-.3h0l1.3-6.1.4-1.9a1.9,1.9,0,0,1,.7-1.2A2,2,0,0,1,62.6,42.8Zm.6-5.3a1.6,1.6,0,0,0,1.2-.4,2.1,2.1,0,0,0,.4-1.2,1.8,1.8,0,0,0-.1-.6l-.4-2-.6-2.6c-.1-.6-.3-.9-.4-.9s-.4.3-.5.9l-.3,1.4-.7,3.2a3.5,3.5,0,0,1-.1.6,1.7,1.7,0,0,0,.5,1.2A1.3,1.3,0,0,0,63.2,37.5Zm.2-.7h-.2c-.2,0-.4,0-.5-.2a.9.9,0,0,1-.3-.7,2,2,0,0,0,.1-.5l.7-3.2v-.4l.4,1.6.3,1.3ZM73.7,52.2,67,17.9h0v-.5h1.9v.2l-.3.5a1.1,1.1,0,0,0-.7,1.1v.5l6.6,33.7c0-.1,0-.1-.1-.1a.8.8,0,0,1-.4-.4A2.4,2.4,0,0,1,73.7,52.2Zm2.1,3.4.3.4v.2H68.9A.3.3,0,0,1,69,56c0-.2.1-.3.3-.4l.3-.3h5.7l.3.2Z" fill="#010101"/><path d="M95.5,32.4a2.3,2.3,0,0,0-1.4,2,1.5,1.5,0,0,0,.1.7l2.5,17.8a1.3,1.3,0,0,0,.5.7,1.6,1.6,0,0,1,.8.8H90.6c0-.1,0-.1.1-.1a.5.5,0,0,1,.2-.4l.3-.2a1.2,1.2,0,0,0,.7-.7,1.5,1.5,0,0,0,.2-.8L89.7,36l-.3-.9a2.5,2.5,0,0,0-2.5-2.2h-.2a2.3,2.3,0,0,0-1.6.6,2.2,2.2,0,0,0-.7,1.7V52.3c0,.7.2,1.1.5,1.2l.6.5c.2.1.3.2.3.4a.3.3,0,0,1,.1.2H78.4v-.2l.3-.4.7-.5c.3-.2.4-.5.4-1.2V18.1c0-.7-.1-1-.4-1.2l-.6-.4-.4-.5v-.2H93.5a4.9,4.9,0,0,1,3.3,1.3,4.9,4.9,0,0,1,1.3,3.3v7.9a4.8,4.8,0,0,1-.7,2.4A4.4,4.4,0,0,1,95.5,32.4ZM87.1,55.6c.2.1.3.2.3.4a.3.3,0,0,1,.1.2H80V56a1,1,0,0,1,.5-.6h6.4Zm-.4-27.3h4.5a1.9,1.9,0,0,0,1.6-.7,2,2,0,0,0,.7-1.6V22.7a2,2,0,0,0-.7-1.6,1.9,1.9,0,0,0-1.6-.7H86.7a2,2,0,0,0-1.6.7,2,2,0,0,0-.7,1.6V26a2.4,2.4,0,0,0,2.3,2.3Zm-.7-4v3.1a1.3,1.3,0,0,1-.9-1.4V22.7a1.5,1.5,0,0,1,.5-1.2,1.5,1.5,0,0,1,1.1-.4h4.5a1.6,1.6,0,0,1,1.5.9H88.3a2,2,0,0,0-1.6.7A1.9,1.9,0,0,0,86,24.3Zm.7,9.3h.2a1.8,1.8,0,0,1,1.6.9h-.2a2.3,2.3,0,0,0-1.6.6,2.2,2.2,0,0,0-.7,1.7V53.4h-.4l-.4-.3c-.1-.1-.1-.3-.1-.6V35.2a1.5,1.5,0,0,1,.5-1.2A1.5,1.5,0,0,1,86.7,33.6Zm12.7,22c.1.2.2.3.2.4H92.2l.3-.4.2-.2h6.4ZM98.6,19a4.8,4.8,0,0,1,1.1,3v7.9a4.8,4.8,0,0,1-.7,2.4A4.4,4.4,0,0,1,97.1,34a2.3,2.3,0,0,0-1.4,2,1.5,1.5,0,0,0,.1.7l2.3,16.7h-.2c-.3-.1-.5-.3-.5-.4L94.8,35h0a1.3,1.3,0,0,1-.1-.5,1,1,0,0,1,.3-.8l.8-.6A5,5,0,0,0,98,31.1a5.4,5.4,0,0,0,.8-2.8V20.4A5.2,5.2,0,0,0,98.6,19Z" fill="#010101"/><path d="M121,20.4V50a4.4,4.4,0,0,1-4.6,4.6H101.3v-.2l.3-.4.7-.5c.3-.2.4-.5.4-1.2V18.1c0-.7-.1-1-.4-1.2l-.6-.4-.4-.5v-.2h15.1a4.9,4.9,0,0,1,3.3,1.3A4.9,4.9,0,0,1,121,20.4Zm.5-1.4a4.8,4.8,0,0,1,1.1,3V51.6a4.4,4.4,0,0,1-4.6,4.6H102.9V56a1,1,0,0,1,.5-.6h13a4.9,4.9,0,0,0,3.7-1.6,5.1,5.1,0,0,0,1.6-3.7V20.4A5.2,5.2,0,0,0,121.5,19Zm-5.1,28.7v-25a2,2,0,0,0-.7-1.6,2,2,0,0,0-1.6-.7h-4.5a2,2,0,0,0-1.6.7,2,2,0,0,0-.7,1.6v25a1.9,1.9,0,0,0,.7,1.6,2,2,0,0,0,1.6.7h4.5a2,2,0,0,0,1.6-.7A1.9,1.9,0,0,0,116.4,47.7Zm-7.5-23.4V49.2a1.6,1.6,0,0,1-.9-1.5v-25a1.5,1.5,0,0,1,.5-1.2,1.4,1.4,0,0,1,1.1-.4h4.5a1.6,1.6,0,0,1,1.5.9h-4.4a2,2,0,0,0-1.6.7A1.9,1.9,0,0,0,108.9,24.3Z" fill="#010101"/><path d="M163,15.8h9.1a4.9,4.9,0,0,1,3.3,1.3,4.4,4.4,0,0,1,1.3,3.3V25c0,.4-.2.5-.6.5h-5.4v-.2l.3-.4.7-.5c.3-.1.4-.5.4-1.1v-.6a2.3,2.3,0,0,0-.6-1.6,2.1,2.1,0,0,0-1.6-.7h-4.6a2.1,2.1,0,0,0-1.6.7,2.4,2.4,0,0,0-.7,1.6v25a2.2,2.2,0,0,0,.7,1.6,2.1,2.1,0,0,0,1.6.7h4.6a2.2,2.2,0,0,0,2.2-2.3V35.2a2,2,0,0,0-.6-1.5,2.1,2.1,0,0,0-1.6-.7h-.3a1,1,0,0,0-1,.5l-.4.6-.5.3h-.2V29a.5.5,0,0,1,.6-.6h4a4.4,4.4,0,0,1,4.6,4.6V50a4.4,4.4,0,0,1-1.3,3.3,4.9,4.9,0,0,1-3.3,1.3H163a4.6,4.6,0,0,1-3.2-1.3,4.4,4.4,0,0,1-1.3-3.3V20.4a4.4,4.4,0,0,1,1.3-3.3A4.6,4.6,0,0,1,163,15.8ZM177.4,50V33a5.2,5.2,0,0,0-.2-1.4,4.6,4.6,0,0,1,1.1,3v17a4.4,4.4,0,0,1-1.3,3.3,4.9,4.9,0,0,1-3.3,1.3h-9.1a4.4,4.4,0,0,1-2.9-1.1l1.3.2h9.1a5.5,5.5,0,0,0,5.3-5.3ZM164.6,24.3V49.2a1.6,1.6,0,0,1-.9-1.5v-25a1.8,1.8,0,0,1,.5-1.2,1.5,1.5,0,0,1,1.1-.4h4.6a1.5,1.5,0,0,1,1.4.9h-4.4a2.1,2.1,0,0,0-1.6.7A1.9,1.9,0,0,0,164.6,24.3Zm5,9.4h.3a1.1,1.1,0,0,1,.8.2,1.3,1.3,0,0,1,.6.7h-.1a1,1,0,0,0-1,.5,2.1,2.1,0,0,0-.4.6l-.4.3h-.3V33.9A.6.6,0,0,1,169.6,33.7ZM177.2,19a4.8,4.8,0,0,1,1.1,3v4.6l-.2.4h-5.8v-.2a1.2,1.2,0,0,1,.5-.5l.3-.2h3.1a1.1,1.1,0,0,0,.8-.3,1.2,1.2,0,0,0,.4-.9V20.4A5.2,5.2,0,0,0,177.2,19Z" fill="#010101"/><path d="M199.9,21.5a1.6,1.6,0,0,1-.4-.7c-.2-.3-.6-.4-1.2-.4h-9.2a2.1,2.1,0,0,0-1.6.7,2.4,2.4,0,0,0-.7,1.6v3.4a2.4,2.4,0,0,0,.7,1.6,2.6,2.6,0,0,0,1.6.7h4.6a1.4,1.4,0,0,0,1.2-.5l.4-.6.4-.4h.3v7.5h-.3a.5.5,0,0,1-.4-.3,4.3,4.3,0,0,1-.4-.7,1.7,1.7,0,0,0-1.2-.4h-4.6a2.1,2.1,0,0,0-1.6.7,2.6,2.6,0,0,0-.7,1.6V47.7a2.6,2.6,0,0,0,.7,1.7,2.5,2.5,0,0,0,1.6.6h9.2c.6,0,1-.1,1.2-.4a1.6,1.6,0,0,1,.3-.6l.5-.4h.2V54c0,.2,0,.3-.1.4l-.4.2H180.8c0-.1,0-.2.1-.2a.5.5,0,0,1,.2-.4,2.5,2.5,0,0,1,.8-.5,1.5,1.5,0,0,0,.4-1.2V18.1a1.5,1.5,0,0,0-.4-1.2l-.7-.4c-.2-.2-.3-.3-.3-.5s-.1-.1-.1-.2H200l.4.2a.6.6,0,0,1,.1.4v5.4h-.2Zm1.6,29c.1-.2.2-.3.4-.3h.2v5.4c0,.2,0,.3-.2.4l-.3.2H182.4c0-.1,0-.2.1-.2s.2-.5.5-.6h17a1.2,1.2,0,0,0,.8-.4,1,1,0,0,0,.4-.9V50.7ZM188.4,24.3v3.2a1.5,1.5,0,0,1-.9-1.4V22.7a1.8,1.8,0,0,1,.5-1.2,1.5,1.5,0,0,1,1.1-.4h9.7l.3.4c.1.1.1.2.3.3h-8.7a2.1,2.1,0,0,0-1.6.7A2.2,2.2,0,0,0,188.4,24.3Zm0,12.5V49.2a1.6,1.6,0,0,1-.9-1.5V35.2a1.7,1.7,0,0,1,1.6-1.6h5.1l.4.5.2.3h-4.1a2.1,2.1,0,0,0-1.6.7A2.6,2.6,0,0,0,188.4,36.8Zm8.2-1.6V29.3l.2-.3v-.2l.4-.3h.2V36h-.2a.5.5,0,0,1-.4-.2v-.3Zm4.6-17.8h.4l.3.2a.4.4,0,0,1,.2.4v5.4h-.2l-.4-.3-.2-.2V17.4Z" fill="#010101"/><path d="M219.3,54a1.7,1.7,0,0,0,.6-.6c.1-.1.1-.3.1-.6v-.5h0l-1.2-5.6-.5-2.2v-.3a3.9,3.9,0,0,0-1-1.6,2.9,2.9,0,0,0-1.7-.6h-1.3a2.7,2.7,0,0,0-1.7.6,3.1,3.1,0,0,0-1,1.6l-.4,2-1.3,6a1.8,1.8,0,0,0-.1.6.9.9,0,0,0,.3.7c.2.2.4.3.4.4s.3.2.3.4a.3.3,0,0,1,.1.2h-7.2v-.2a1,1,0,0,1,.4-.5l.5-.4q.3-.2.6-1.2l6.7-34.2v-.5a1.1,1.1,0,0,0-.7-1.1.8.8,0,0,1-.2-.5c-.1,0-.1-.1-.1-.2H219c0,.1,0,.2-.1.2a.8.8,0,0,1-.2.5,1.1,1.1,0,0,0-.7,1.1v.5l6.7,34.2q.3,1.1.6,1.2l.5.4a.9.9,0,0,1,.3.5c.1,0,.1.1.1.2H219c0-.1,0-.2.1-.2A.5.5,0,0,1,219.3,54Zm-7.2,1.6c.2.1.3.2.3.4a.3.3,0,0,1,.1.2h-7.2V56l.3-.4.2-.2h5.8v-.2Zm2.2-12.8h1.3a1.9,1.9,0,0,1,1.6.9h-1.3a2.7,2.7,0,0,0-1.7.6,3.1,3.1,0,0,0-1,1.6l-.4,2-1.3,6v.3l-.2-.4-.3-.4h0c-.4-.2-.5-.4-.5-.6v-.3h.1l1.3-6.1.4-1.9a1.9,1.9,0,0,1,.7-1.2A1.8,1.8,0,0,1,214.3,42.8Zm.6-5.3a1.4,1.4,0,0,0,1.1-.4,1.7,1.7,0,0,0,.5-1.2,3.5,3.5,0,0,1-.1-.6l-.4-2-.6-2.6c-.1-.6-.3-.9-.4-.9s-.4.3-.5.9l-.3,1.4-.7,3.2a1.8,1.8,0,0,0-.1.6,2.1,2.1,0,0,0,.4,1.2A1.5,1.5,0,0,0,214.9,37.5Zm.2-.7h-.2c-.2,0-.4,0-.5-.2a.9.9,0,0,1-.3-.7,1.3,1.3,0,0,1,.1-.5l.6-3.2v-.4l.4,1.6.3,1.3Zm10.3,15.4-6.7-34.3h0v-.5h1.9c0,.1,0,.2-.1.2a.8.8,0,0,1-.2.5,1.1,1.1,0,0,0-.7,1.1v.5l6.6,33.7c0-.1,0-.1-.1-.1l-.4-.4A2.4,2.4,0,0,1,225.4,52.2Zm2.1,3.4a.5.5,0,0,1,.2.4c.1,0,.1.1.1.2h-7.2c0-.1,0-.2.1-.2a.5.5,0,0,1,.2-.4l.4-.3H227l.2.2Z" fill="#010101"/><path d="M245.6,32.4a2.2,2.2,0,0,0-1.4,2v.7l2.6,17.8a1.3,1.3,0,0,0,.5.7,2,2,0,0,1,.8.8h0a.1.1,0,0,0,.1.1h-7.6a.1.1,0,0,0,.1-.1h0l.3-.4.3-.2a1.2,1.2,0,0,0,.7-.7,1.7,1.7,0,0,0,.1-.8L239.8,36l-.3-.9a2.6,2.6,0,0,0-2.6-2.2h-.1a2.3,2.3,0,0,0-1.6.6,2.2,2.2,0,0,0-.7,1.7V52.3c0,.7.1,1.1.4,1.2l.7.5.3.4v.2h-7.4v-.2l.3-.4.7-.5c.3-.2.4-.5.4-1.2V18.1c0-.7-.1-1-.4-1.2l-.6-.4-.4-.5v-.2h15.1a4.4,4.4,0,0,1,3.2,1.3,4.5,4.5,0,0,1,1.4,3.3v7.9a4.8,4.8,0,0,1-.7,2.4A4.4,4.4,0,0,1,245.6,32.4Zm-8.4,23.2.3.4v.2h-7.4V56a1,1,0,0,1,.5-.6H237Zm-.4-27.3h4.5a2.4,2.4,0,0,0,2.3-2.3V22.7a2,2,0,0,0-.7-1.6,2,2,0,0,0-1.6-.7h-4.5a2,2,0,0,0-1.6.7,2,2,0,0,0-.7,1.6V26a2.4,2.4,0,0,0,2.3,2.3Zm-.7-4v3.1a1.3,1.3,0,0,1-.9-1.4V22.7a1.7,1.7,0,0,1,.4-1.2,1.7,1.7,0,0,1,1.2-.4h4.5a1.6,1.6,0,0,1,1.5.9h-4.4a2,2,0,0,0-1.6.7A1.9,1.9,0,0,0,236.1,24.3Zm.7,9.3h.1a1.6,1.6,0,0,1,1.6.9h-.1a2.3,2.3,0,0,0-1.6.6,2.2,2.2,0,0,0-.7,1.7V53.4h-.4l-.4-.3c-.1-.1-.1-.3-.1-.6V35.2a1.4,1.4,0,0,1,1.6-1.6Zm12.6,22c.2.2.3.3.3.4h-7.4l.3-.4.2-.2h6.4ZM248.7,19a4.8,4.8,0,0,1,1.1,3v7.9a4.8,4.8,0,0,1-.7,2.4,4.4,4.4,0,0,1-1.9,1.7,2.3,2.3,0,0,0-1.5,2c0,.3.1.5.1.7l2.4,16.7h-.3a1.1,1.1,0,0,1-.5-.4L244.9,35h0a1.3,1.3,0,0,1-.1-.5,1,1,0,0,1,.3-.8l.8-.6a5,5,0,0,0,2.2-1.9,5.4,5.4,0,0,0,.8-2.8V20.4A5.2,5.2,0,0,0,248.7,19Z" fill="#010101"/><path d="M154.3,40.5c-.9-.6-.7-2.1-.5-3.6s.5-4.7-1.9-5.7a6.4,6.4,0,0,0-2.3-.5c-3.1,0-6.5,2.7-6.8,7.6h-.9v-.2c0-8.5,8.1-12,8.2-12a.4.4,0,0,0,.2-.5.4.4,0,0,0-.4-.4c-3.9,0-6,1.6-7,2.7-.7-4.2-1.8-6-1.9-6s-.2-.3-.4-.3a.5.5,0,0,0-.4.3,18.3,18.3,0,0,0-1.8,6c-1-1.1-3.1-2.7-7-2.7a.7.7,0,0,0-.5.4.5.5,0,0,0,.3.5c.1,0,8.1,3.5,8.1,12v.2h-.8c-.4-4.9-3.7-7.6-6.8-7.6a5.9,5.9,0,0,0-2.3.5c-2.4,1-2.1,3.6-1.9,5.7s.3,3-.5,3.6-.3.3-.2.4a.4.4,0,0,0,.3.4h.4a3.1,3.1,0,0,0,3-2.7,2.9,2.9,0,0,1,2.8-2.1,4.8,4.8,0,0,1,3.5,1.8h-.2a.7.7,0,0,0-.8.8.8.8,0,0,0,.8.8h.3a3.1,3.1,0,0,1-1,1h-.2c-1.7,1.1-3,2-3,6.5,0,.2.1.4.2.4h.4a10,10,0,0,0,5.2-8.1h.8c-.5,7-3.9,9.3-4,9.3a.5.5,0,0,0-.1.6.5.5,0,0,0,.5.3,13.5,13.5,0,0,0,3.7-2l.9,1.1c.1.2.5.2.7,0l.9-1.1a13.5,13.5,0,0,0,3.7,2h.1c.2,0,.3-.1.4-.3s0-.4-.2-.6-3.4-2.2-3.9-9.3h.8a10,10,0,0,0,5.1,8.1h.2a.5.5,0,0,0,.5-.5h0c0-4.5-1.3-5.4-3-6.5h-.2a3.1,3.1,0,0,1-1-1h.3a.8.8,0,0,0,.8-.8.7.7,0,0,0-.8-.8h-.2a4.8,4.8,0,0,1,3.4-1.8,2.9,2.9,0,0,1,2.9,2.1,3.1,3.1,0,0,0,3,2.7h.3a.4.4,0,0,0,.4-.4A.4.4,0,0,0,154.3,40.5Z" fill="#010101"/><path d="M135.2,48.6a.8.8,0,0,1-.7-.4.7.7,0,0,1,.3-.8s3.1-2.1,3.6-8.5h-.2a9.6,9.6,0,0,1-5.1,7.7h-.6c-.2-.2-.4-.4-.4-.6,0-4.5,1.4-5.4,3-6.5h.2c.2-.2.5-.4.6-.6a.9.9,0,0,1-.8-1,1,1,0,0,1,.7-.9,4,4,0,0,0-2.8-1.3,2.6,2.6,0,0,0-2.5,1.9,3.1,3.1,0,0,1-3.1,2.8H127a.5.5,0,0,1-.5-.5.5.5,0,0,1,.3-.7c.7-.5.5-1.8.4-3.2s-.5-4.7,1.9-5.8a6.2,6.2,0,0,1,2.3-.4c3.1,0,6.3,2.5,6.8,7.2h.3c-.1-7.9-7.5-11.1-7.6-11.2a.6.6,0,0,1-.4-.7.6.6,0,0,1,.6-.6,9.1,9.1,0,0,1,6.6,2.3,19.9,19.9,0,0,1,1.7-5.4.9.9,0,0,1,.6-.3.6.6,0,0,1,.6.3,19.9,19.9,0,0,1,1.7,5.4,9.3,9.3,0,0,1,6.6-2.3.7.7,0,0,1,.7.6.7.7,0,0,1-.4.7c-.1.1-7.6,3.3-7.7,11.2h.4c.4-4.7,3.7-7.2,6.7-7.2a5.9,5.9,0,0,1,2.3.4c2.5,1.1,2.2,3.8,2,5.8s-.3,2.7.4,3.2a.8.8,0,0,1,.3.7.6.6,0,0,1-.6.5h-.3a3.2,3.2,0,0,1-3.2-2.8,2.5,2.5,0,0,0-2.5-1.9,3.8,3.8,0,0,0-2.7,1.3.9.9,0,0,1,.6.9.9.9,0,0,1-.8,1l.6.6h.2c1.6,1.1,3,2,3,6.4a.7.7,0,0,1-.7.8h-.3a9.8,9.8,0,0,1-5.1-7.7h-.2c.5,6.4,3.6,8.5,3.6,8.5a.7.7,0,0,1,.3.8.6.6,0,0,1-.6.4h-.2a9.6,9.6,0,0,1-3.4-1.8l-.7.9a.9.9,0,0,1-.6.3.5.5,0,0,1-.5-.3l-.7-.9a11.7,11.7,0,0,1-3.4,1.8Z" fill="#010101"/><path d="M140,21.1l.4.2a19.4,19.4,0,0,1,1.8,5.8c.9-1,2.9-2.5,6.7-2.5.2,0,.4.1.4.3s-.1.4-.2.5-7.8,3.3-7.8,11.5v.2h.8c.3-4.7,3.5-7.3,6.5-7.3a5.4,5.4,0,0,1,2.2.5c2.3,1,2,3.4,1.8,5.4s-.3,2.9.5,3.5.3.3.2.4a.4.4,0,0,1-.3.4h-.3a2.9,2.9,0,0,1-2.9-2.6,2.8,2.8,0,0,0-2.8-2,4.7,4.7,0,0,0-3.3,1.7h.2a.7.7,0,0,1,.8.7.7.7,0,0,1-.8.8h-.3a3.1,3.1,0,0,0,1,1h.2c1.6,1.1,2.8,1.9,2.8,6.2h0a.4.4,0,0,1-.4.4H147a9.6,9.6,0,0,1-4.9-7.8h-.8c.5,6.8,3.8,9,3.8,9a.4.4,0,0,1,.2.5.5.5,0,0,1-.4.3h-.2a13.5,13.5,0,0,1-3.5-1.9l-.8,1.1h-.7l-.9-1.1a10.8,10.8,0,0,1-3.5,1.9h-.1c-.2,0-.4-.1-.4-.3a.4.4,0,0,1,.1-.5c.1,0,3.3-2.2,3.8-9H138a9.6,9.6,0,0,1-5,7.8h-.4c-.1,0-.2-.2-.2-.3,0-4.4,1.3-5.2,2.9-6.3h.1a3.1,3.1,0,0,0,1-1h-.3a.8.8,0,0,1-.8-.8.8.8,0,0,1,.8-.7h.2a4.7,4.7,0,0,0-3.3-1.7,2.7,2.7,0,0,0-2.7,2,3,3,0,0,1-2.9,2.6h-.3a.4.4,0,0,1-.4-.4.8.8,0,0,1,.2-.4c.8-.6.7-2,.5-3.5s-.5-4.4,1.8-5.4a5.9,5.9,0,0,1,2.2-.5c3,0,6.2,2.6,6.6,7.3h.8v-.2c0-8.2-7.7-11.5-7.8-11.5a.5.5,0,0,1-.3-.5c.1-.2.2-.3.4-.3a9.1,9.1,0,0,1,6.8,2.5,21.9,21.9,0,0,1,1.7-5.8l.4-.2m0-.5a1,1,0,0,0-.8.5,14.8,14.8,0,0,0-1.7,5c-1.1-1-3.1-2-6.4-2a1,1,0,0,0-.9.7,1.1,1.1,0,0,0,.6,1.1c.1,0,6.2,2.7,7.3,9.1-1-3.7-3.9-5.7-6.7-5.7a6.9,6.9,0,0,0-2.4.5c-2.6,1.2-2.3,3.9-2.1,6s.3,2.6-.3,3a.9.9,0,0,0-.4.9,1.1,1.1,0,0,0,.8.8h.4c1.3,0,2.8-.8,3.4-3a2.1,2.1,0,0,1,2.2-1.6,3.5,3.5,0,0,1,2.3.9,1.4,1.4,0,0,0-.5,1,1.2,1.2,0,0,0,.7,1.1l-.3.3H135c-1.7,1.1-3.1,2.1-3.1,6.7a1.2,1.2,0,0,0,.4.8h.9a9.8,9.8,0,0,0,4.4-4.7c-1,3.7-2.9,5.1-2.9,5.1a.8.8,0,0,0-.4,1.1,1,1,0,0,0,.9.6h.2a13.7,13.7,0,0,0,3.3-1.7l.6.7a.9.9,0,0,0,.7.3,1.1,1.1,0,0,0,.8-.3l.5-.7a13.7,13.7,0,0,0,3.3,1.7h.3a.8.8,0,0,0,.8-.6.8.8,0,0,0-.3-1.1c-.1-.1-2-1.4-3-5.1a10.3,10.3,0,0,0,4.4,4.7h.4a.9.9,0,0,0,.9-.9h0c0-4.6-1.4-5.5-3-6.6h-.2l-.3-.3a1.4,1.4,0,0,0,.6-1.1,1.4,1.4,0,0,0-.5-1,4,4,0,0,1,2.3-.9,2.3,2.3,0,0,1,2.3,1.6,3.5,3.5,0,0,0,3.4,3h.3a1.1,1.1,0,0,0,.8-.8.9.9,0,0,0-.4-.9c-.6-.4-.4-1.7-.3-3s.6-4.8-2.1-6a6.9,6.9,0,0,0-2.4-.5c-2.7,0-5.6,2-6.7,5.7,1.1-6.4,7.3-9.1,7.4-9.1a1,1,0,0,0,.5-1.1,1,1,0,0,0-.9-.7,9.5,9.5,0,0,0-6.4,2c-.7-3.5-1.6-5-1.7-5a1,1,0,0,0-.8-.5Z" fill="#fff"/></svg>