<svg xmlns="http://www.w3.org/2000/svg" width="31.3" height="31.3" viewBox="0 0 31.3 31.3"><path d="M6.9 7.4h3.7l1.2.2 1.1.4.9.6.6 1.1a5.9 5.9 0 0 1 .2 1.4v.8a2.7 2.7 0 0 1-.2 1.3 4.1 4.1 0 0 1-.5.9l-.7.7-.8.4a2.7 2.7 0 0 1 1.9 1.1 4.8 4.8 0 0 1 .6 2.4v.9a7.8 7.8 0 0 1-.2 1.6 2.4 2.4 0 0 1-.6 1.1 3 3 0 0 1-.8.8l-1.1.4-1.3.3h-4zm3 7.1l.9-.2a1.5 1.5 0 0 0 .7-.3 1.8 1.8 0 0 0 .5-.7 3.1 3.1 0 0 0 .1-1v-.7a3.4 3.4 0 0 0-.1-1 1.6 1.6 0 0 0-.4-.7 1.3 1.3 0 0 0-.7-.5l-1-.2h-.5v5.3zm.2 7.7l.9-.2a1 1 0 0 0 .7-.4 1.3 1.3 0 0 0 .5-.7 2.8 2.8 0 0 0 .1-1v-1.3a3.4 3.4 0 0 0-.1-1 1.5 1.5 0 0 0-.3-.7l-.7-.5-1.1-.2h-.7v6zm9.8 1.9h-.7l-.8-.3-.8-.5a8.6 8.6 0 0 1-.7-1 5.3 5.3 0 0 1-.5-1.5 12.7 12.7 0 0 1-.2-2.2v-5.9a11.5 11.5 0 0 1 .2-2.1 5.2 5.2 0 0 1 .6-1.5 2.6 2.6 0 0 1 .7-1l1-.5.9-.3h.8l1.7.2a3.6 3.6 0 0 1 1.2.8 2.4 2.4 0 0 1 .6 1.1 5.9 5.9 0 0 1 .2 1.4 2.8 2.8 0 0 1-.1.9 3.6 3.6 0 0 1-.2 1h-2v-.8c0-1.8-.4-2.7-1.4-2.7l-.7.2a1 1 0 0 0-.5.4l-.3.9c0 .3-.1.8-.1 1.3v7.5c0 .5.1.9.1 1.3l.3.8a1 1 0 0 0 .5.4l.7.2a1.1 1.1 0 0 0 .7-.3c.2-.1.3-.3.5-.5l.3-.9v-3.3h-1.2v-1.6h3.7v8.3h-1.7l-.3-1.6a3.2 3.2 0 0 1-1 1.4 3.3 3.3 0 0 1-1.5.4zm8.6-13.2a14.1 14.1 0 0 0-7.2-7.8l.8-1.7a15.8 15.8 0 0 1 8.3 8.9z"/><path d="M15.7 31.3a15.7 15.7 0 1 1 0-31.3v1.9a13.8 13.8 0 1 0 13.7 13.8h1.9a15.6 15.6 0 0 1-15.6 15.6z"/></svg>