<svg xmlns="http://www.w3.org/2000/svg" width="16" height="5.4" viewBox="0 0 16 5.4"><title>logo-16</title><g id="logo-16"><path d="M1.5,1.7v.6a.1.1,0,0,1,.1.1h0V3.6c0,.1,0,.1-.1.2s-.1.1-.2.1H.5V1.6a.1.1,0,0,0-.1-.1h1A.3.3,0,0,0,1.5,1.7Zm.1.8a.1.1,0,0,1,.1.1V3.9c0,.1-.1.1-.2.1h.2a.3.3,0,0,0,.1-.2V2.5ZM1,1.7H.8v.2h.3a.1.1,0,0,0,.1-.1V1.9H1.1A.1.1,0,0,0,1,1.7Zm.3,1.8V2.7h0a.1.1,0,0,0-.1-.1H.9a.1.1,0,0,0-.1.1h0v.8h.5ZM.9,2v.2a.1.1,0,0,1-.1-.1V1.9H.9Zm0,.8v.7H.8V2.7H1a.1.1,0,0,0-.1.1Zm.6-.5V1.7h.1v.5Z" fill="#010101"/><path d="M3,1.8H2.3a.1.1,0,0,1-.1.1h0v.2h.6v.4H2.7c0-.1,0-.1-.1-.1H2.2v.8H3v.4H1.9V1.6H3v.3Zm.1,1.8h0V4h0V3.7ZM2.3,2v.2H2.2V1.9h.1Zm0,.8v.8a.1.1,0,0,0-.1-.1V2.7c0-.1,0-.1.1-.1h0Zm.5-.1V2.3h.1v.4Zm.3-1.1h0v.3h0Z" fill="#010101"/><path d="M4.2,3.9a.1.1,0,0,1,.1-.1h0V3.4h0a.1.1,0,0,1-.1-.1H3.8c0,.1,0,.1-.1.1v.5H3.3l.5-2.1h0a.1.1,0,0,0-.1-.1h.5a.1.1,0,0,0-.1.1h0l.5,2.1h0c0,.1,0,.1.1.1H4.2Zm-.4,0H3.3c.1,0,.1,0,.1-.1h.4Zm.1-.8H3.8v.5h0V3.4h0A.1.1,0,0,0,3.9,3.1Zm0-.3H4V2.4H4a.1.1,0,0,0-.1.1h0v.2h0Zm.1,0H3.9V2.5H4Zm.6.9L4.2,1.6h0l.5,2.1H4.6Zm.1.2c0,.1,0,.1.1.1H4.7Z" fill="#010101"/><path d="M6,2.5a.1.1,0,0,0-.1.1h0V3.8H5.8l-.2-1h0a.2.2,0,0,0-.2-.2h0a.1.1,0,0,0-.1.1h0v1H4.9A.1.1,0,0,1,5,3.8H5V1.6H6v.9ZM5.4,3.9h0Zm0-1.7h.4V1.9H5.3v.2h.1Zm0-.2v.2a.1.1,0,0,1-.1-.1V1.9h.1Zm0,.6h.1a.1.1,0,0,0-.1.1h0v1H5.3v-1h.1Zm.8,1.3h0Zm0-2.2h0v.7H6.1a.1.1,0,0,0-.1.1H6v1h0L5.9,2.7H6a.1.1,0,0,0,.1-.1c.1,0,.1-.1.1-.2V1.7Z" fill="#010101"/><path d="M7.6,1.7V3.6c0,.1-.1.1-.1.2H6.4V1.6H7.5A.3.3,0,0,0,7.6,1.7Zm0,0h.1V3.7c0,.1-.1.1-.1.2H6.4a.1.1,0,0,1,.1-.1h1c.1,0,.1-.1.1-.2V1.7ZM7.3,3.5V1.9H7.2a.1.1,0,0,0-.1-.1H6.8a.1.1,0,0,1-.1.1h0V3.5h.6ZM6.8,2V3.5H6.7V1.9h.1Z" fill="#010101"/><path d="M10.2,1.5H11V2h-.3c.1,0,.1,0,.1-.1h-.1a.1.1,0,0,0-.1-.1h-.3a.1.1,0,0,1-.1.1h0V3.5h.5a.1.1,0,0,1,.1-.1h0V2.7h0a.1.1,0,0,0-.1-.1c0-.1,0-.1-.1-.1h0a.1.1,0,0,0-.1.1h0V2.3H11V3.8h-.8c-.1,0-.2,0-.2-.1s-.1-.1-.1-.2V1.5Zm.9,2.1V2.5h0V3.9H11C11.1,3.8,11.1,3.7,11.1,3.6ZM10.3,2V3.5h-.1V1.9h.1Zm.3.6h.1a.1.1,0,0,0-.1.1h0Zm.5-.9h0v.3h0V1.7Z" fill="#010101"/><path d="M12.5,1.8h-.7a.1.1,0,0,1-.1.1h0v.2h.6v.4h-.1a.1.1,0,0,0-.1-.1h-.4v.8h.8v.4H11.3a.1.1,0,0,1,.1-.1h0V1.6h1.1v.3Zm.1,1.8h0V4h0V3.7ZM11.8,2v.2a.1.1,0,0,1-.1-.1V1.9h.1Zm0,.8v.8h-.1V2.7c0-.1,0-.1.1-.1h0Zm.5-.1V2.3h.1v.4Zm.3-1.1h0v.3h0Z" fill="#010101"/><path d="M13.7,3.9h.1V3.4h-.4a.1.1,0,0,1-.1.1v.5h-.4a.1.1,0,0,0,.1-.1h0l.4-2.1h.5c-.1,0-.1,0-.1.1h0l.5,2.1h-.4Zm-.4,0h0Zm.1-.8h-.1v.5h0V3.4h.2Zm0-.3h.1V2.4h-.1v.2h.1Zm0,0h0V2.5h.1Zm.7.9-.4-2.1h0l.4,2.1h0Zm.1.2h0Z" fill="#010101"/><path d="M15.4,2.5a.1.1,0,0,0-.1.1h0V3.8h-.3v-1h0c-.1-.1-.1-.2-.2-.2h0a.1.1,0,0,0-.1.1h0v1h-.4c0-.1,0-.1.1-.1h0V1.6h1v.9A.1.1,0,0,0,15.4,2.5Zm-.6,1.4h0Zm0-1.7h.4V1.9h-.5v.2h.1Zm0-.2v.2a.1.1,0,0,1-.1-.1V1.9h.1Zm0,.6h.1a.1.1,0,0,0-.1.1h0v1h-.1v-1h.1Zm.8,1.3h0Zm-.1-2.2a.1.1,0,0,1,.1.1v.7a.1.1,0,0,0-.1.1.1.1,0,0,0-.1.1h0v1h0l-.2-1.1h.1a.1.1,0,0,0,.1-.1V1.7Z" fill="#010101"/><path d="M9.6,3V2.8c0-.2,0-.3-.1-.4H9.4a.5.5,0,0,0-.5.5h0a.9.9,0,0,1,.5-.8H8.9a1,1,0,0,0-.1-.4h0l-.2.4c0-.1-.1-.1-.4-.1h0a.9.9,0,0,1,.5.8h0c-.1-.3-.3-.5-.5-.5H8.1c-.2.1-.1.2-.1.4S8,3,7.9,3H8l.2-.2c0-.1,0-.1.1-.1s.2,0,.2.1h0a.5.5,0,0,0-.2.4h0A1.1,1.1,0,0,0,8.7,3h0a.9.9,0,0,1-.2.6h.6A.9.9,0,0,1,8.9,3h0a.7.7,0,0,0,.3.5h.1A.5.5,0,0,0,9.1,3H9a.1.1,0,0,0,.1-.1h.1c.1,0,.2,0,.2.1l.2.2h0Z" fill="#010101"/><path d="M9,3.5H8.5c-.1-.1.1-.2.2-.6a1.1,1.1,0,0,1-.4.5c0-.3,0-.4.1-.5H8.2C8.1,3,8,3,8,3a.4.4,0,0,0-.1-.3c0-.1,0-.3.2-.3a.1.1,0,0,1,.1-.1.5.5,0,0,1,.4.5.6.6,0,0,0-.4-.7h.2a.2.2,0,0,1,.2.2.6.6,0,0,1,.1-.4c.1,0,.2.1.2.4s.2-.2.4-.2-.5.3-.5.8.3-.5.5-.5a.1.1,0,0,1,.1.1c.2,0,.2.2.2.3s-.1.2,0,.2H9.5c-.1,0-.1-.1-.2-.2H9c.2.1.2.2.2.4h0c-.1,0-.3-.1-.3-.4s.2.5.2.5H9Z" fill="#010101"/><path d="M8.8,1.8h0v.4c0-.1.2-.2.4-.2h0a.8.8,0,0,0-.5.7h.1a.5.5,0,0,1,.4-.5.1.1,0,0,1,.1.1c.2,0,.2.2.1.3s0,.2.1.2H9.5s-.1,0-.1-.2H9c.1,0,.2.1.2.3h0a.7.7,0,0,1-.3-.5H8.8a.7.7,0,0,0,.3.5H8.8c-.1,0-.1,0-.1-.1H8.4a.7.7,0,0,0,.3-.5H8.6a.7.7,0,0,1-.3.5h0c0-.2.1-.3.2-.3H8.1C8.1,3,8,3,8,3H7.9c.1,0,.1-.1.1-.2s-.1-.3.1-.3a.1.1,0,0,1,.1-.1.5.5,0,0,1,.4.5h.1a.8.8,0,0,0-.5-.7h0c.2,0,.4.1.4.2V1.8h.1m0,0H8.7a.4.4,0,0,0-.1.3H8.1c0,.1,0,.1.1.1a.7.7,0,0,1,.4.6.4.4,0,0,0-.4-.4H8.1a.4.4,0,0,0-.2.4c0,.1.1.2,0,.2H8s.1,0,.2-.2h.2c0,.1,0,.1.1.1H8.4a.5.5,0,0,0-.2.4.1.1,0,0,0,.1.1h0l.3-.3-.2.3h.7l-.2-.3.3.3h0a.1.1,0,0,0,.1-.1h0a.5.5,0,0,0-.2-.4H9c.1,0,.1,0,.1-.1h.2c.1.2.2.2.2.2h.1V2.7a.4.4,0,0,0-.2-.4H9.3a.4.4,0,0,0-.4.4.7.7,0,0,1,.4-.6c.1,0,.1,0,.1-.1H8.9a.4.4,0,0,0-.1-.3Z" fill="#fff"/></g></svg>