<svg xmlns="http://www.w3.org/2000/svg" width="64" height="20.7" viewBox="0 0 64 20.7"><title>logo-64 </title><g id="logo-64"><path d="M5.5,6.4V8.6a.8.8,0,0,1,.4.4,1.1,1.1,0,0,1,.2.6v4.3a.9.9,0,0,1-.4.8,1.2,1.2,0,0,1-.8.4H1.3a.4.4,0,0,0,.1-.3V5.8c0-.2,0-.3-.1-.3h3a1.4,1.4,0,0,1,.9.3A1.4,1.4,0,0,1,5.5,6.4Zm.7,2.8a1.1,1.1,0,0,1,.3.8v4.3a.9.9,0,0,1-.4.8,1.2,1.2,0,0,1-.8.4H4.9a1.3,1.3,0,0,0,1-.4,1.2,1.2,0,0,0,.3-.9V9.2ZM3.8,6.4h-1c-.1.2-.2.3-.2.4v.9a.5.5,0,0,0,.2.4l.4.2h.6l.4-.2c.1-.1.1-.2.1-.4V6.9a.8.8,0,0,0-.1-.4Zm1.1,6.9V10.1c0-.1,0-.2-.2-.4H2.8l-.2.4v3.2a.5.5,0,0,0,.2.4l.4.2H4.3l.4-.2C4.9,13.6,4.9,13.5,4.9,13.3ZM3,7.4v.8c-.2-.1-.2-.2-.2-.4V6.9c0-.1,0-.2.1-.2l.3-.2h.6q.2,0,.3.3H3.2C3.1,7.1,3,7.2,3,7.4Zm0,3.1v3.2c-.2-.1-.2-.2-.2-.4V10.1c0-.1,0-.2.1-.2l.3-.2H4.3c.2,0,.3.1.4.3H3.2Zm2.7-2V6.4c0-.2,0-.3-.1-.4a1.1,1.1,0,0,1,.3.8V8.7Z" fill="#010101"/><path d="M11.7,6.7c0-.1,0-.2-.1-.2h-3c-.1.2-.2.3-.2.4v.9a.5.5,0,0,0,.2.4l.4.2h1.5c0-.1,0-.1.1-.2h.1V9.9h-.1a.1.1,0,0,1-.1-.1H8.6l-.2.4v3.2a.5.5,0,0,0,.2.4l.4.2h2.6v-.2h.2v1.4H7.2c0-.1.1-.2.1-.3V5.8a.4.4,0,0,0-.1-.3h4.6c.1,0,.1,0,.1.1V6.7h-.2Zm.4,7.3h.2v1.4H12v-1h0ZM8.8,7.4v.8a.5.5,0,0,1-.2-.4V6.9c0-.1,0-.2.1-.2L9,6.5H9C8.9,7.1,8.8,7.2,8.8,7.4Zm0,3.1v3.2a.5.5,0,0,1-.2-.4V10.1a.4.4,0,0,1,.1-.3h1.5a.1.1,0,0,1,.1.1H9A.8.8,0,0,0,8.8,10.5Zm2.1-.4V8.6h.2v1.9h0c-.1,0-.1,0-.1-.1h-.1Zm1.2-4.5h.2V7.1h-.2Z" fill="#010101"/><path d="M16.7,14.9h.1v-.2h0l-.3-1.4v-.6h0l-.3-.4H15l-.3.4v.5l-.3,1.6h0v.2H12.9l.2-.3,1.7-8.7h0c0-.2-.1-.3-.2-.3s0-.1-.1-.1h2.1a.1.1,0,0,0-.1.1c-.1,0-.2.1-.2.3h0L18,14.5l.2.3H16.7Zm-1.9.4h0Zm.6-3.2h.3c.2,0,.3,0,.4.2h-.3a.4.4,0,0,0-.4.2c-.2.1-.3.2-.3.4v.5l-.3,1.5h-.2a.3.3,0,0,0-.1-.2h0l.4-1.5v-.5l.2-.3Zm.2-1.4h.2a.4.4,0,0,0,.1-.3h0V8.8l-.2.2v.3l-.2.9h0a.4.4,0,0,0,.1.3Zm0-.2h-.2v-.2h.1V9.4h.1v1.2Zm2.6,4L16.5,5.7h.4c-.1,0-.2.1-.2.3h0l1.7,8.6h-.2Zm.5.8h0Z" fill="#010101"/><path d="M23.8,9.4c-.3.2-.4.3-.4.5v.2l.7,4.5c0,.1,0,.2.1.2s.1.1.2.2H22.8v-.2l-.6-4.2v-.2q-.1-.6-.6-.6h-.1l-.4.2-.2.4v4.4c0,.1.1.2.1.3H19.7c0-.1.1-.2.1-.3V5.8a.4.4,0,0,0-.1-.3h-.2a.1.1,0,0,0-.1-.1h3.8a1.4,1.4,0,0,1,.9.3,1.4,1.4,0,0,1,.3.9v2a1.4,1.4,0,0,1-.2.6C24.1,9.2,23.9,9.3,23.8,9.4Zm-2.2,5.9h0Zm-.1-6.9h1.2l.4-.2c.1-.1.1-.2.1-.4V6.9a.8.8,0,0,0-.1-.4h-2c-.1.2-.2.3-.2.4v.9a.5.5,0,0,0,.2.4Zm-.2-1v.8a.5.5,0,0,1-.2-.4V6.9c0-.1,0-.2.1-.2l.3-.2h1.2q.2,0,.3.3H21.5C21.4,7.1,21.3,7.2,21.3,7.4Zm.2,2.3h.1l.4.2h-.1l-.4.2a.8.8,0,0,0-.2.4v4.3h-.2V10.1a.4.4,0,0,1,.1-.3Zm3.2,5.6h0ZM24.5,6a1.1,1.1,0,0,1,.3.8v2a1.4,1.4,0,0,1-.2.6l-.4.4c-.3.2-.4.3-.4.5v.2l.6,4.3h-.2l-.6-4.5h-.1c0-.1.1-.1.1-.2h.2c.3-.1.4-.3.6-.5a1.9,1.9,0,0,0,.2-.7v-2C24.6,6.2,24.6,6.1,24.5,6Z" fill="#010101"/><path d="M30.2,6.4v7.5a1.1,1.1,0,0,1-.3.8,1.2,1.2,0,0,1-.8.4H25.5c0-.1.1-.2.1-.3V5.8a.4.4,0,0,0-.1-.3h-.2a.1.1,0,0,0-.1-.1h3.9a1.1,1.1,0,0,1,.8.3A1.4,1.4,0,0,1,30.2,6.4Zm.1-.4a1.1,1.1,0,0,1,.3.8v7.5a1.1,1.1,0,0,1-.3.8,1.2,1.2,0,0,1-.8.4h-.4a1.2,1.2,0,0,0,.9-.4,1,1,0,0,0,.4-.9V6.4C30.4,6.2,30.4,6.1,30.3,6Zm-1.2,7.3V6.9c0-.1-.1-.2-.2-.4h-2c-.1.2-.2.3-.2.4v6.4a.5.5,0,0,0,.2.4l.4.2h1.2l.4-.2A.5.5,0,0,0,29.1,13.3Zm-2-5.9v6.3a.5.5,0,0,1-.2-.4V6.9a.3.3,0,0,1,.1-.2l.3-.2h1.2a.3.3,0,0,1,.3.3H27.3C27.2,7.1,27.1,7.2,27.1,7.4Z" fill="#010101"/><path d="M40.9,5.2h2.3a1.1,1.1,0,0,1,.8.3,1.1,1.1,0,0,1,.4.9V7.5l-.2.2H42.8a.1.1,0,0,1,.1-.1h.2c.1,0,.1-.1.1-.3V6.9c0-.1,0-.2-.2-.4H41.1c-.1.2-.2.3-.2.4v6.4a.7.7,0,0,0,.6.6h1.1l.4-.2c.2-.1.2-.2.2-.4h0V10.1c0-.1,0-.2-.2-.4h-.7a.1.1,0,0,1-.1.1H42V8.6l.2-.2h1a1.1,1.1,0,0,1,.8.3,1.1,1.1,0,0,1,.4.9v4.3a.9.9,0,0,1-.4.8,1.2,1.2,0,0,1-.8.4H40.9a1.4,1.4,0,0,1-1.2-1.2V6.4a1.5,1.5,0,0,1,.4-.9A1.1,1.1,0,0,1,40.9,5.2Zm3.6,8.7V9.2a1.1,1.1,0,0,1,.3.8v4.3a.9.9,0,0,1-.4.8,1.2,1.2,0,0,1-.8.4H41.3a1.3,1.3,0,0,1-.8-.3h2.7a1.3,1.3,0,0,0,1-.4A1.2,1.2,0,0,0,44.5,13.9ZM41.3,7.4v6.3c-.2-.1-.2-.2-.2-.4V6.9c0-.1,0-.2.1-.2l.3-.2h1.1c.2,0,.3.1.4.3H41.5C41.4,7.1,41.3,7.2,41.3,7.4Zm1.3,2.3h.3V10h-.4a.1.1,0,0,1-.1.1h-.1V9.8ZM44.5,6a1.1,1.1,0,0,1,.3.8V7.9h-.3V6Z" fill="#010101"/><path d="M50.3,6.7V6.5H47.1c-.1.2-.2.3-.2.4v.9a.5.5,0,0,0,.2.4l.4.2H49c0-.1.1-.1.1-.2h.2V9.9H47.1l-.2.4v3.2a.5.5,0,0,0,.2.4l.4.2h2.7c0-.1,0-.1.1-.2h.1v1.4H45.7a.4.4,0,0,0,.1-.3V5.8c0-.2,0-.3-.1-.3h-.2a.1.1,0,0,0-.1-.1h5V6.7h-.1Zm.4,7.3h.1v1.4h-.3c.1,0,.1-.1.1-.2v-.8h.1ZM47.3,7.4v.8a.5.5,0,0,1-.2-.4V6.9a.3.3,0,0,1,.1-.2l.3-.2h0C47.4,7.1,47.3,7.2,47.3,7.4Zm0,3.1v3.2a.5.5,0,0,1-.2-.4V9.8h1.5c.1,0,.1,0,.1.1H47.5A.8.8,0,0,0,47.3,10.5Zm2.1-.4V8.6h.3v1.9h-.1a.1.1,0,0,1-.1-.1h-.1Zm1.2-4.5h.1a.1.1,0,0,1,.1.1h0V7.1h-.2Z" fill="#010101"/><path d="M55.2,14.9h.1v-.2h0l-.3-1.4-.2-.6h0l-.2-.4H53.5l-.3.4v.5l-.3,1.6h0c0,.1,0,.2.1.2H51.5c0-.1.1-.2.1-.3l1.7-8.7h0c0-.2,0-.3-.2-.3H55c-.1,0-.1.1-.1.3h0l1.7,8.7c0,.1.1.2.1.3H55.2Zm-1.8.4h0Zm.5-3.2h.3a.6.6,0,0,1,.5.2h-.4a.4.4,0,0,0-.4.2l-.3.4v.5l-.3,1.5h-.1v-.2h0l.3-1.5v-.5l.2-.3Zm.2-1.4h.3v-.3h0l-.2-.6V9c0-.2-.1-.2-.1-.2s-.1,0-.1.2v.3l-.2.9h0a.4.4,0,0,0,.1.3Zm0-.2h-.2v-.2h0l.2-.8h0v1.2Zm2.6,4L55,5.7h.4c-.1,0-.1.1-.1.3h0l1.6,8.6h-.2Zm.6.8H55.6a.1.1,0,0,0,.1-.1h1.4a.1.1,0,0,1,.1.1Z" fill="#010101"/><path d="M61.9,9.4c-.3.2-.4.3-.4.5v.2l.7,4.5c0,.1,0,.2.1.2l.2.2H61v-.2l-.6-4.2v-.2q-.1-.6-.6-.6h-.1l-.4.2-.2.4v4.4l.2.3H57.8a.4.4,0,0,0,.1-.3V5.8c0-.2,0-.3-.1-.3h-.2a.1.1,0,0,0-.1-.1h3.9a1.1,1.1,0,0,1,.8.3,1.4,1.4,0,0,1,.3.9v2a.7.7,0,0,1-.2.6A.8.8,0,0,1,61.9,9.4Zm-2.2,5.9h0Zm-.1-6.9h1.2l.4-.2a.5.5,0,0,0,.2-.4V6.9c0-.1-.1-.2-.2-.4h-2c-.1.2-.2.3-.2.4v.9a.5.5,0,0,0,.2.4Zm-.1-1v.8c-.2-.1-.3-.2-.3-.4V6.9a.3.3,0,0,1,.1-.2l.3-.2h1.2a.5.5,0,0,1,.4.3H59.6A.9.9,0,0,0,59.5,7.4Zm.1,2.3h.1l.4.2H60l-.4.2a.6.6,0,0,0-.1.4v4.3h-.3V9.8Zm3.2,5.6h0ZM62.7,6a1.9,1.9,0,0,1,.2.8v2a1.3,1.3,0,0,1-.1.6l-.5.4c-.3.2-.4.3-.4.5v.2l.6,4.3h-.2l-.6-4.5h0V9.7h.2a1,1,0,0,0,.6-.5,1.9,1.9,0,0,0,.2-.7V6Z" fill="#010101"/><path d="M38.7,11.5c-.2-.2-.2-.5-.2-.9s.2-1.2-.4-1.5h-.6a1.8,1.8,0,0,0-1.7,1.9h-.3a3.6,3.6,0,0,1,2.1-3.1h.1a.1.1,0,0,0-.1-.1,2.2,2.2,0,0,0-1.8.7,7,7,0,0,0-.5-1.6h-.2a7,7,0,0,0-.5,1.6,1.9,1.9,0,0,0-1.7-.7h-.1a3.6,3.6,0,0,1,2.1,3.1h-.2A1.9,1.9,0,0,0,32.9,9h-.5c-.7.3-.6.9-.5,1.5s.1.7-.2.9h.2a.8.8,0,0,0,.7-.7.8.8,0,0,1,.8-.5.9.9,0,0,1,.8.4h0l-.2.2a.2.2,0,0,0,.2.2h.1l-.3.3h-.1c-.4.3-.7.5-.7,1.7h.2a2.6,2.6,0,0,0,1.3-2.1h.2a3.5,3.5,0,0,1-1,2.4.1.1,0,0,0-.1.1H34a2,2,0,0,0,.9-.5l.2.3h.2l.2-.3a2.1,2.1,0,0,0,1,.5h.1c-.1,0-.9-.6-1-2.4h.2a2.2,2.2,0,0,0,1.3,2.1h.1c0-1.2-.3-1.4-.7-1.7h-.1l-.2-.3h0c.2,0,.2-.1.2-.2s0-.2-.2-.2h0a1.2,1.2,0,0,1,.9-.4.8.8,0,0,1,.7.5.8.8,0,0,0,.8.7h.1Z" fill="#010101"/><path d="M33.8,13.5h-.1c-.1,0,0-.1,0-.2a2.9,2.9,0,0,0,1-2.2h-.2A2.3,2.3,0,0,1,33.3,13h-.2c0-1.2.3-1.4.7-1.7L34,11l-.2-.2a.2.2,0,0,1,.2-.2c-.3-.3-.5-.4-.7-.4a.8.8,0,0,0-.7.5.7.7,0,0,1-.8.7h-.2c0-.1,0-.2.1-.2s.1-.5.1-.8a1.3,1.3,0,0,1,.5-1.5h.6a1.9,1.9,0,0,1,1.7,1.9h.1a3.1,3.1,0,0,0-2-2.8V7.5h.2a2.8,2.8,0,0,1,1.7.5,2.8,2.8,0,0,1,.4-1.3h.3a2.8,2.8,0,0,1,.4,1.3,2.8,2.8,0,0,1,1.7-.5h.2v.2a3.3,3.3,0,0,0-2,2.9h.2a1.7,1.7,0,0,1,1.6-1.8h.6a1.3,1.3,0,0,1,.5,1.5c0,.3-.1.7.1.8s.1.1.1.2h-.2a.8.8,0,0,1-.8-.7.8.8,0,0,0-.7-.5c-.2,0-.4.1-.7.4a.2.2,0,0,1,.2.2c0,.1-.1.3-.2.3h.2c.4.3.7.5.8,1.7h-.2a2.2,2.2,0,0,1-1.4-2h-.1a2.8,2.8,0,0,0,1,2.1c.1.1.1.2,0,.2h-.1a2.1,2.1,0,0,1-1-.5v.3h-.3l-.2-.3a1.5,1.5,0,0,1-.8.5Z" fill="#010101"/><path d="M35.1,6.6h0c.1,0,.3.5.5,1.5a2.1,2.1,0,0,1,1.7-.7h0a3.5,3.5,0,0,0-1.9,3h.2a1.8,1.8,0,0,1,1.6-1.8h.6c.6.2.5.9.5,1.4s-.1.7.1.8v.2h-.1a.7.7,0,0,1-.8-.6c0-.3-.3-.5-.7-.5a1,1,0,0,0-.8.4h0c.2,0,.2.1.2.2s0,.2-.2.2h0l.2.2h.1c.4.2.7.5.7,1.6h-.2a2.6,2.6,0,0,1-1.2-2h-.2a3.1,3.1,0,0,0,.9,2.3h0l-.9-.5-.3.3H35l-.3-.3-.8.5h-.1a3.1,3.1,0,0,0,.9-2.3h-.2a2.6,2.6,0,0,1-1.2,2h-.2c0-1.1.3-1.4.7-1.6h.1l.2-.2h0l-.2-.2a.2.2,0,0,1,.2-.2h0a.9.9,0,0,0-.8-.4.7.7,0,0,0-.7.5.7.7,0,0,1-.8.6h-.1v-.2c.2-.1.2-.5.2-.8s-.2-1.2.4-1.4h.6a1.8,1.8,0,0,1,1.6,1.8h.2a3.5,3.5,0,0,0-1.9-3h0a1.9,1.9,0,0,1,1.7.7c.2-1,.4-1.5.5-1.5h.1m0-.2h-.3c0,.1-.2.5-.4,1.3a2.7,2.7,0,0,0-1.6-.5l-.2.2c-.1.1,0,.2.1.3a3.2,3.2,0,0,1,1.9,2.3,1.9,1.9,0,0,0-1.7-1.5l-.6.2c-.7.3-.6,1-.6,1.5a.8.8,0,0,1,0,.7c-.1.1-.2.2-.2.3l.2.2h.1a.9.9,0,0,0,.9-.8.7.7,0,0,1,.6-.4l.6.2c-.1.1-.2.2-.2.3l.2.3h-.1c-.4.3-.8.5-.8,1.7v.2h.2a2.5,2.5,0,0,0,1.1-1.2,2.4,2.4,0,0,1-.7,1.3c-.1,0-.1.2-.1.3h.3l.8-.4.2.2h.3l.2-.2a2.5,2.5,0,0,0,.8.4h.3c0-.1,0-.3-.1-.3a2.4,2.4,0,0,1-.7-1.3,2.5,2.5,0,0,0,1.1,1.2h.1l.2-.2h0c0-1.1-.3-1.3-.8-1.6h-.1l.2-.3c0-.1-.1-.2-.2-.3l.6-.2a.7.7,0,0,1,.6.4.9.9,0,0,0,.9.8h.1l.2-.2c0-.1-.1-.2-.1-.3s-.2-.4-.1-.7.1-1.2-.6-1.5l-.6-.2a1.9,1.9,0,0,0-1.7,1.5,3.2,3.2,0,0,1,1.9-2.3c.1-.1.2-.2.1-.3a.2.2,0,0,0-.2-.2,2.7,2.7,0,0,0-1.6.5,11.1,11.1,0,0,0-.4-1.3Z" fill="#fff"/></g></svg>