<svg xmlns="http://www.w3.org/2000/svg" width="62.8" height="40.6" viewBox="0 0 62.8 40.6"><path d="M2.8 33.7l-.5-.9 4.8-3.7.4.9-.9.6.5.9 1-.3.4.8zM6.1 31l-2.5 1.7 2.9-.9zm-5-1.2l-.3-.9v-.4a.9.9 0 0 1 0-.8.8.8 0 0 1 .2-.4l.4-.3.6-.3h.2a2.2 2.2 0 0 1 1.1-.1 1 1 0 0 1 .7.4l2.1-1.5.2.9-1.9 1.3v.3l2.1-.5.2.9zm2.7-1.7c-.1-.2-.1-.3-.2-.4a.2.2 0 0 0-.2-.2H2.1l-.4.2a.2.2 0 0 0-.2.2c-.1 0-.1.1-.1.3a.8.8 0 0 0 .1.4l2.3-.6zm-3-3.9v.9H.1v-2.7h.6v1l5.3-.3v.9zm-.6-3.7v-.9l5.9.7-.2.9zm5-1.6h-.4l-.3-.2.2-.7H6c0-.1.1-.2.1-.3a.3.3 0 0 0 0-.4.5.5 0 0 0-.4-.2H4.6l-1.3.5-.7.2h-.7l-.5-.3c-.2-.1-.3-.2-.3-.4a.8.8 0 0 1-.2-.5 1.1 1.1 0 0 1 .1-.5l.3-.6.4-.4h.9l.3.2h.3L3 16H2c-.2.1-.3.2-.3.4a.3.3 0 0 0 0 .4l.3.2h.8l1.5-.6.8-.2h.8l.5.2.3.4a1.1 1.1 0 0 1 .1.5c.1.2 0 .4 0 .6a1.6 1.6 0 0 1-.3.6l-.4.4h-.9zm-2.5-6.7l.5-.9 5.7 1.9-.4.8-1-.4-.6 1 .9.6-.5.8zm4.1 1.2L4 12.3l2.4 1.8zM5 8.6l.5-.6 3.9 1.6-.2-.2-.3-.2-.4-.3-.5-.4L6.4 7l.6-.6 4.4 4-.5.5L7 9.4l.3.2.3.3.5.4.5.5L9.9 12l-.5.5zm5.5-1.5l2.1-1.5.4.6-2.1 1.5zM13.4 2l1.1-.4 1.3 1.9a4.3 4.3 0 0 0 .4.7l.3.6c0-.3-.1-.5-.1-.7a1.7 1.7 0 0 1-.1-.7L16.1 1l1-.4 2 5.6-.8.3-.6-1.9-.3-.8a1.9 1.9 0 0 1-.2-.7 1.4 1.4 0 0 1-.2-.6.8.8 0 0 1-.1-.4h-.1l.5 4-.6.2-2.1-3.4h-.1c.1.1.1.3.2.4s.1.4.2.6l.3.7.3.8.7 1.9-.8.3zM20.5.1h1l1.6 5.8h-.9l-.2-1h-1.1V6H20zm1.3 4.1l-.6-2.9h-.1l-.2 3zm3-4.2h1.8l.3.3c.2.1.2.2.3.4s.1.4.2.6a3.4 3.4 0 0 1-.1.9l-.2 1.7a1.9 1.9 0 0 1-.2.8 1.6 1.6 0 0 1-.3.6l-.4.3H24zm.4 5.4h.4l.2-.2a.5.5 0 0 0 .2-.4 6.4 6.4 0 0 0 .2-.7l.2-1.8c0-.3.1-.5.1-.7s-.1-.3-.1-.4l-.2-.3h-.6l-.7 4.6zM29.8 1l2.1.8-.2.6-1.2-.4-.6 1.6.9.4-.2.7-1-.4-.7 1.9 1.3.5-.3.6-2.1-.7zM9.5 18.5h2.7l.5.2.5.3a.9.9 0 0 1 .3.6 1.9 1.9 0 0 1 .2.8v.4c0 .2-.1.5-.1.6l-.3.6-.4.3-.4.2a1.7 1.7 0 0 1 1 .6 2.5 2.5 0 0 1 .3 1.3v.5a1.9 1.9 0 0 1-.1.8l-.3.6c-.1.2-.3.3-.4.4l-.6.3H9.5zm1.6 3.8h.5l.4-.3a.5.5 0 0 0 .2-.4.7.7 0 0 0 .1-.5v-.9c-.1-.2-.1-.3-.2-.4l-.4-.3h-.8v2.9zm.1 4.1h.5a.5.5 0 0 0 .4-.2l.3-.4v-1.9c-.1-.1-.1-.3-.2-.4l-.4-.2h-.9v3.2zm4.6-7.9h3.3v1h-2v2.7h1.5v1h-1.5v3.1h2v1h-3.3zm6.1 0h1.5l1.7 8.8h-1.4l-.3-1.6h-1.6l-.2 1.6h-1.4zm1.4 6.2l-.6-4.4h-.1l-.6 4.4zm3.4-6.2h2.6l.6.2c.2.1.3.3.5.5l.3.7a2.5 2.5 0 0 1 .2 1v.2a4.3 4.3 0 0 1-.3 1.7 2 2 0 0 1-.9.9l1.4 3.5h-1.4L28.5 24H28v3.3h-1.3zm1.5 4.5h.6l.4-.3a.8.8 0 0 0 .2-.5 1.5 1.5 0 0 0 .1-.7v-.7c0-.3 0-.5-.1-.6a.5.5 0 0 0-.2-.4c-.1-.2-.2-.2-.4-.3H28V23zm4.7-4.5h2.8c.2.1.4.1.6.3l.5.5a9.4 9.4 0 0 1 .3.9 5.1 5.1 0 0 1 .2 1.3v2.6a5.1 5.1 0 0 1-.2 1.3l-.3.9c-.2.2-.3.4-.5.5l-.6.3h-2.8zm1.7 7.9h.6l.4-.3a1.4 1.4 0 0 0 .2-.7c0-.3.1-.6.1-1v-2.9c0-.4-.1-.7-.1-1a.8.8 0 0 0-.2-.6l-.4-.4h-.9v7zm8.5 1h-.4l-.4-.2c-.2 0-.3-.1-.5-.3l-.4-.5a1.9 1.9 0 0 1-.2-.8 4.1 4.1 0 0 1-.1-1.2v-3.1a3.7 3.7 0 0 1 .1-1.1 3.4 3.4 0 0 1 .3-.8 1.3 1.3 0 0 1 .4-.6l.5-.3h1.9l.6.4.3.6a2.2 2.2 0 0 1 .1.8v.5a.7.7 0 0 0-.1.5h-1.1v-.4c0-1-.3-1.5-.8-1.5h-.4l-.2.3c-.1.1-.1.2-.2.4v5.4c.1.2.1.4.2.5a.2.2 0 0 0 .2.2h.8c.1-.1.2-.2.2-.3s.2-.3.2-.5.1-.4.1-.6v-1.1h-.7v-.9h2v4.5h-.9l-.2-.8a1.1 1.1 0 0 1-.6.7zm4.4-8.9h3.3v1h-2v2.7h1.5v1h-1.5v3.1h2v1h-3.3zm6.1 0h1.5l1.7 8.8h-1.4l-.2-1.6h-1.7l-.2 1.6h-1.4zm1.4 6.2l-.6-4.4h-.1l-.6 4.4zm3.4-6.2H61l.6.2.5.5a1.5 1.5 0 0 1 .3.7 2.5 2.5 0 0 1 .2 1v.2a4.3 4.3 0 0 1-.3 1.7 2 2 0 0 1-.9.9l1.4 3.5h-1.4L60.2 24h-.5v3.3h-1.3zm1.5 4.5h.6l.4-.3.3-.5v-2c-.1-.2-.1-.3-.2-.4s-.3-.2-.4-.3h-.9V23zm-37 17.6a17.8 17.8 0 0 1-12.3-5l1-1a16.8 16.8 0 0 0 11.6 4.6 16.2 16.2 0 0 0 14.5-9.4l1.3.6a17.5 17.5 0 0 1-15.8 10.2zm15.3-23.5a16.3 16.3 0 0 0-5.3-7.1l.8-1.2a16.6 16.6 0 0 1 5.8 7.8z"/></svg>