<svg id="Layer_1" data-name="Layer 1" xmlns="http://www.w3.org/2000/svg" width="64" height="58.4" viewBox="0 0 64 58.4"><title>logo-64</title><path d="M55.1,26.1C50,20.2,39,16,29.5,19.5a20.6,20.6,0,0,0-4.2,2.1,15.4,15.4,0,0,0-2.9,2.3l-.6.5c-3.9-4.6-5.4-10.3-3.7-14.9a2.6,2.6,0,0,0-4.9-1.8c-2.4,6.6-.1,14.6,5.4,20.7-3.3,5.2-5.8,13.1-6.1,24.7v1.1h0a2.5,2.5,0,0,0,1.4,2.2,2,2,0,0,0,1.1.3h0a2.1,2.1,0,0,0,1.2-.3,2.6,2.6,0,0,0,1.4-2.3V53.1c.3-9,1.9-16.1,4.8-21.1l2.5,1.7C33,38.6,45.2,40.1,55,29.5A2.5,2.5,0,0,0,55.1,26.1ZM27.6,29.3l-2-1.4a15.8,15.8,0,0,1,5.6-3.6c6.4-2.3,13.9-.1,18.3,3.5C40.2,35.9,30.5,31.1,27.6,29.3Z" fill="#332a2d"/><path d="M30.2,1.6c-4.9,2.8-9.5,9.1-9.6,15.9A16.6,16.6,0,0,0,22,24.1l2-1.4C26.7,20.6,34.6,13.1,30.2,1.6Z" fill="#332a2d"/><circle cx="39" cy="10.3" r="5" fill="#332a2d"/></svg>