<svg id="Layer_1" data-name="Layer 1" xmlns="http://www.w3.org/2000/svg" width="32" height="34.3" viewBox="0 0 32 34.3"><title>logo-32</title><path d="M28.6,15.3a14.7,14.7,0,0,0-15.3-3.9,14.2,14.2,0,0,0-2.5,1.2L9.1,14l-.4.3C6.4,11.5,5.5,8.2,6.5,5.4A1.6,1.6,0,1,0,3.6,4.3c-1.5,4-.1,8.8,3.2,12.4-2,3.1-3.5,7.8-3.6,14.8v.6h0A1.8,1.8,0,0,0,4,33.5l.6.2h.1l.7-.2a1.6,1.6,0,0,0,.8-1.4v-.6c.2-5.4,1.1-9.7,2.9-12.7a7.1,7.1,0,0,0,1.4,1c4.9,3,12.2,3.9,18.1-2.4A1.7,1.7,0,0,0,28.6,15.3ZM12.1,17.2l-1.2-.8a8.8,8.8,0,0,1,3.4-2.1,12.1,12.1,0,0,1,11,2C19.7,21.2,13.9,18.3,12.1,17.2Z" fill="#332a2d"/><path d="M13.7.7A11.7,11.7,0,0,0,8,10.2a10.1,10.1,0,0,0,.8,3.9l1.2-.8C11.6,12,16.4,7.6,13.7.7Z" fill="#332a2d"/><circle cx="19" cy="5.9" r="3" fill="#332a2d"/></svg>