<?xml version="1.0" encoding="utf-8"?>
<!-- Generator: Adobe Illustrator 22.1.0, SVG Export Plug-In . SVG Version: 6.00 Build 0)  -->
<svg version="1.1" id="Layer_1" xmlns="http://www.w3.org/2000/svg" xmlns:xlink="http://www.w3.org/1999/xlink" x="0px" y="0px"
	 viewBox="0 0 241.8 156.2" style="enable-background:new 0 0 241.8 156.2;" xml:space="preserve">
<style type="text/css">
	.st0{fill:#FFFFFF;}
</style>
<path class="st0" d="M10.6,129.8l-1.8-3.6l18.4-14.1l1.6,3.1l-3.3,2.5l1.9,3.7l3.9-1.3l1.6,3.1L10.6,129.8z M23.3,119.2l-9.4,6.6H14
	l10.8-3.7L23.3,119.2z M4.1,114.7l-0.9-3.6l-0.3-1.4c-0.1-0.5-0.1-1.1-0.1-1.6c0-0.5,0.1-1,0.2-1.5c0.2-0.6,0.4-1.1,0.8-1.6
	c0.5-0.5,1-0.9,1.5-1.3c0.8-0.4,1.6-0.7,2.5-0.9l0.6-0.2c1.4-0.4,2.9-0.5,4.3-0.3c1.1,0.2,2.1,0.7,2.8,1.6l7.9-5.8l0.9,3.5l-7.5,5
	l0.3,1.3l8.3-2.1l0.8,3.3L4.1,114.7z M14.6,108c-0.1-0.5-0.3-1-0.6-1.4c-0.2-0.4-0.5-0.7-0.9-0.8c-0.4-0.2-0.9-0.3-1.4-0.3l-1.9,0.3
	l-1.7,0.5l-1.5,0.5c-0.3,0.2-0.6,0.5-0.9,0.8c-0.2,0.3-0.3,0.7-0.3,1.1c0,0.5,0,1.1,0.2,1.6v0.5l9-2.3V108z M3,93.1v3.6l-2.7,0.2
	L0,86.1h2.7l0.2,3.6L23,88.8v3.5L3,93.1z M0.6,78.8L1,75.3l22.7,2.9l-0.4,3.4L0.6,78.8z M19.8,72.6l-1.2-0.4l-1.2-0.7l0.8-2.6l1,0.4
	l1.6,0.3c0.4,0.1,0.9,0.1,1.3,0c0.3,0,0.6-0.2,0.9-0.4c0.2-0.3,0.4-0.6,0.5-1c0.2-0.5,0.2-1.1-0.1-1.6c-0.3-0.5-0.8-0.8-1.3-0.9
	l-1-0.3h-0.9l-1,0.2l-1.3,0.5l-5.2,2.2c-0.9,0.3-1.8,0.6-2.8,0.7c-0.9,0-1.8-0.1-2.7-0.3c-0.7-0.2-1.3-0.6-1.9-1
	c-0.5-0.4-0.9-0.9-1.2-1.4c-0.3-0.6-0.5-1.2-0.6-1.9c0-0.8,0.1-1.5,0.3-2.3C4,61.3,4.4,60.5,5,59.9c0.4-0.6,0.9-1,1.5-1.3
	c0.5-0.2,1.1-0.3,1.7-0.3c0.6,0,1.2,0.1,1.8,0.3l1.2,0.5l1.3,0.6l-0.8,2.6L10.6,62c-0.9-0.4-1.8-0.5-2.8-0.4
	c-0.7,0.1-1.3,0.7-1.4,1.4c-0.2,0.5-0.2,1,0.1,1.5c0.3,0.4,0.7,0.7,1.2,0.9l0.9,0.2H10l0.8-0.3l5.8-2.4c1-0.4,2-0.7,3.1-0.8
	c1-0.1,2-0.1,2.9,0.2c0.7,0.3,1.4,0.6,2,1c0.5,0.5,0.9,1,1.2,1.6c0.3,0.6,0.5,1.2,0.5,1.9c0.1,0.7,0,1.5-0.3,2.2
	c-0.2,0.8-0.6,1.6-1.1,2.3c-0.8,1-2,1.6-3.3,1.6C21,72.9,20.4,72.8,19.8,72.6z M10.3,46.8l2-3.5l22,7.5l-1.7,3l-3.9-1.4L26.6,56
	l3.3,2.6l-1.7,3L10.3,46.8z M26.2,51.5l-10.7-4.2v0.2l9.2,6.9L26.2,51.5z M19.3,32.9l1.9-2.1l15,6.2c-0.3-0.3-0.6-0.6-0.9-0.8
	c-0.4-0.2-0.9-0.5-1.2-0.9l-1.5-1.2l-1.7-1.6l-6.2-5.6l2.1-2.2L43.7,40l-1.9,2.1l-14.7-5.9H27l1,0.8c0.5,0.3,0.9,0.6,1.3,1
	c0.6,0.5,1.2,1,1.7,1.5c0.7,0.5,1.4,1.2,2.3,2l4.9,4.5l-2,2.3L19.3,32.9z M40.4,27.3l8.2-5.7l1.5,2.3l-8.2,5.6L40.4,27.3z M51.5,7.5
	L55.7,6l5.1,7.6l1.4,2.5l1.2,2.2h0.1c-0.1-0.8-0.3-1.6-0.5-2.5S62.7,14,62.6,13l-0.8-9.1L66,2.4l7.6,21.5l-3,1.1L68,17.9
	c-0.4-1.1-0.7-2.2-1.1-3.2L66,11.9c-0.2-0.8-0.5-1.6-0.6-2.3l-0.5-1.5h-0.2l1.7,15.2l-2,0.8l-8.3-12.9h-0.2l0.6,1.5
	c0.4,0.7,0.7,1.4,0.9,2.2c0.4,0.8,0.7,1.7,1.1,2.7c0.4,1,0.8,2.1,1.1,3.2l2.6,7.2l-3.1,1.1L51.5,7.5z M78.9,0.4l4-0.4L89,22.4
	l-3.5,0.3l-1-4L80.4,19l-0.3,4.2l-3.5,0.3L78.9,0.4z M83.9,16.1L81.4,4.9h-0.2l-0.6,11.5L83.9,16.1z M95.3,0l3.5,0.5l1.7,0.3
	c0.6,0.1,1.2,0.2,1.7,0.5c0.5,0.2,1,0.5,1.4,0.9c0.5,0.4,0.9,1,1.1,1.6c0.3,0.8,0.5,1.6,0.6,2.4c0.1,1.1,0,2.2-0.1,3.3l-0.9,6.6
	c-0.2,1.1-0.4,2.2-0.8,3.3c-0.3,0.7-0.7,1.5-1.2,2.1c-0.4,0.5-0.9,0.9-1.5,1.2c-0.5,0.3-1.1,0.5-1.7,0.5h-1.7L95.7,23l-3.5-0.5
	L95.3,0z M96.8,20.8h1.6c0.4-0.1,0.7-0.4,1-0.7c0.4-0.5,0.6-1,0.7-1.6c0.2-0.9,0.4-1.7,0.5-2.6l1-7c0.1-1.1,0.2-2,0.2-2.7
	c0.1-0.6,0-1.2-0.2-1.7c-0.2-0.4-0.5-0.7-0.9-1c-0.5-0.2-1-0.4-1.5-0.4h-0.8l-2.5,17.6L96.8,20.8z M114.8,3.9l8,2.8l-0.9,2.6
	l-4.7-1.7l-2.4,6.4l3.7,1.3l-0.9,2.6l-3.7-1.3l-2.6,7.4l4.8,1.7l-0.9,2.6l-8.1-3L114.8,3.9z M36.7,71h7.7c0.8,0.1,1.6,0.2,2.4,0.3
	l2.2,0.8c0.7,0.3,1.4,0.8,1.9,1.4c0.5,0.6,0.9,1.3,1.2,2.1c0.3,1,0.5,2,0.5,3v1.7c0,0.9-0.1,1.7-0.4,2.5c-0.3,0.7-0.6,1.4-1,2
	c-0.4,0.6-0.9,1-1.5,1.4c-0.5,0.4-1.1,0.7-1.7,0.8v0.2c1.6,0.2,3,1.1,3.9,2.4c0.9,1.5,1.4,3.2,1.3,5v1.7c0,1.1-0.2,2.2-0.5,3.2
	c-0.2,0.9-0.6,1.7-1.1,2.4c-0.5,0.6-1.1,1.1-1.8,1.6c-0.7,0.4-1.4,0.7-2.2,0.9c-0.8,0.3-1.7,0.4-2.6,0.5h-8.3L36.7,71z M42.8,85.6
	l1.9-0.2c0.5-0.2,1-0.5,1.5-0.8c0.4-0.4,0.7-0.9,0.9-1.4c0.2-0.6,0.3-1.3,0.3-2v-1.4c0-0.7,0-1.5-0.2-2.2c-0.3-1.1-1.1-2.1-2.2-2.5
	c-0.7-0.2-1.5-0.3-2.2-0.3h-1v10.8H42.8z M43.3,101.5c0.6,0,1.3,0,1.9-0.2c0.5-0.2,1-0.5,1.4-0.9c0.4-0.4,0.8-0.9,1-1.4
	c0.2-0.7,0.3-1.4,0.3-2.1v-2.7c0-0.7-0.1-1.4-0.2-2.1c-0.2-0.5-0.5-1-0.8-1.5c-0.4-0.5-0.9-0.8-1.5-1c-0.7-0.2-1.4-0.3-2.1-0.3h-1.5
	v12.2H43.3z M60.7,71h12.7v4.1h-7.5v10.2h5.8v4.1h-5.8v11.7h7.7v4H60.7V71z M84.1,71h6l6.3,34.1h-5.2l-1-6.1H84l-0.9,6.1h-5.3
	L84.1,71z M89.6,95.1l-2.4-17H87l-2.4,17H89.6z M102.8,71h7.7c1.6,0.1,3.1,0.5,4.5,1.3c0.7,0.5,1.4,1,1.9,1.7c0.6,0.8,1,1.7,1.3,2.7
	c0.3,1.3,0.5,2.7,0.5,4v0.8c0.1,2.2-0.3,4.4-1.1,6.4c-0.6,1.5-1.8,2.8-3.3,3.5l5.5,13.6h-5.5l-4.5-12.7h-2V105h-5V71z M108.6,88.6
	c0.8,0,1.6-0.1,2.3-0.3c0.6-0.2,1.1-0.5,1.5-1c0.5-0.5,0.8-1.2,0.9-1.9c0.1-0.9,0.2-1.9,0.2-2.8v-2.7c0-0.8-0.1-1.5-0.2-2.3
	c-0.1-0.6-0.4-1.1-0.8-1.6c-0.4-0.4-0.9-0.7-1.5-0.9c-0.8-0.2-1.6-0.3-2.4-0.3h-0.8v13.8L108.6,88.6z M126.8,71h7.9
	c0.8,0,1.7,0.2,2.5,0.4c0.8,0.3,1.6,0.7,2.4,1.1c0.8,0.6,1.4,1.3,1.9,2.1c0.6,1.1,1.1,2.2,1.4,3.4c0.3,1.6,0.4,3.3,0.4,5v10
	c0,1.7-0.1,3.4-0.4,5c-0.3,1.2-0.8,2.3-1.4,3.4c-0.5,0.8-1.1,1.5-1.9,2.1c-0.7,0.5-1.5,0.9-2.4,1.1c-0.8,0.3-1.7,0.4-2.5,0.5h-7.9
	L126.8,71z M133.3,101.5c0.8,0,1.6-0.1,2.3-0.3c0.6-0.3,1.1-0.7,1.4-1.3c0.4-0.8,0.6-1.6,0.7-2.5c0.2-1.3,0.2-2.6,0.2-3.9V82.9
	c0-1.3,0-2.7-0.2-4c-0.1-0.9-0.3-1.7-0.7-2.5c-0.3-0.6-0.8-1-1.4-1.2c-0.7-0.3-1.5-0.4-2.3-0.4h-1.4v26.7H133.3z M165.6,105.5
	l-1.4-0.2c-0.6-0.1-1.1-0.3-1.6-0.5c-0.6-0.3-1.2-0.7-1.7-1.2c-0.6-0.6-1-1.3-1.4-2c-0.5-1-0.9-2.1-1.1-3.2
	c-0.3-1.4-0.4-2.9-0.4-4.4V81.9c0-1.5,0.1-2.9,0.4-4.4c0.2-1.1,0.6-2.1,1.2-3c0.4-0.8,0.9-1.5,1.6-2l1.8-1.2l2-0.5h1.8
	c1.2,0,2.4,0.2,3.5,0.6c0.9,0.4,1.6,0.9,2.3,1.5c0.6,0.7,1,1.5,1.3,2.4c0.2,0.9,0.4,1.8,0.4,2.7c0,0.7-0.1,1.4-0.2,2.1l-0.3,2h-4.2
	v-1.7c0-3.7-1-5.6-3-5.6c-0.5,0-1,0.1-1.4,0.3c-0.4,0.2-0.7,0.5-1,0.9c-0.3,0.6-0.5,1.2-0.6,1.8c-0.1,0.9-0.2,1.8-0.2,2.7V96
	c0,0.9,0.1,1.7,0.2,2.6c0,0.6,0.3,1.2,0.6,1.7c0.2,0.4,0.6,0.8,1,1l1.4,0.2c0.5,0,1.1-0.1,1.5-0.4c0.4-0.3,0.8-0.8,1-1.3
	c0.2-0.6,0.4-1.2,0.6-1.8c0.1-0.8,0.2-1.5,0.2-2.3v-4.4h-2.7v-3.4h7.7v17.2h-3.4l-0.6-3.2c-0.5,1.1-1.2,2-2.2,2.7
	C167.8,105.2,166.7,105.5,165.6,105.5L165.6,105.5z M182.7,71h12.7v4.1h-7.5v10.2h5.8v4.1h-5.8v11.7h7.7v4h-12.9V71z M206.1,71h6
	l6.3,34.1h-5.2l-1-6.1H206l-0.9,6.1h-5.2L206.1,71z M211.6,95.1l-2.4-17H209l-2.4,17H211.6z M224.8,71h7.7c0.8,0,1.6,0.2,2.3,0.4
	c0.8,0.2,1.5,0.5,2.2,0.9c0.7,0.4,1.4,1,1.9,1.7c0.6,0.8,1.1,1.7,1.3,2.7c0.4,1.3,0.6,2.6,0.5,4v0.8c0.1,2.2-0.3,4.4-1.1,6.4
	c-0.6,1.5-1.8,2.8-3.3,3.5l5.5,13.6h-5.5l-4.5-12.7h-1.9V105h-5.1L224.8,71z M230.6,88.6c0.8,0,1.6-0.1,2.3-0.3
	c0.6-0.1,1.1-0.5,1.5-1c0.5-0.5,0.8-1.2,0.9-1.9c0.2-0.9,0.2-1.9,0.2-2.8v-2.7c0-0.8,0-1.5-0.2-2.3c-0.1-0.6-0.4-1.1-0.8-1.6
	c-0.4-0.4-0.9-0.7-1.5-0.9c-0.8-0.2-1.6-0.3-2.4-0.3h-0.7v13.8L230.6,88.6z M88.3,156.2c-17.7,0-34.7-6.8-47.4-19.2l3.8-3.9
	c24.9,24.1,64.6,23.4,88.7-1.5c4.8-5,8.8-10.8,11.7-17l4.9,2.4c-11,23.6-34.5,38.9-60.6,39.2L88.3,156.2z M146.9,65.8
	c-4.1-10.9-11.2-20.4-20.4-27.5l3.3-4.3c10.1,7.7,17.8,18,22.2,29.9L146.9,65.8z"/>
</svg>
