<svg xmlns="http://www.w3.org/2000/svg" width="256" height="256" viewBox="0 0 256 256"><path fill="#fff" d="M228.1 50.3c13.4 22-13 99.6-13 81.9s-17.3-15.4-12.9 21.1-51.4 58.5-43.7 50.4 17.3-23.1-2.9-15.9c-18.1 6.5-25.7 23.8-27.1 27.2v.7a1 1 0 0 1-.1-.4l-.2.4v-.7c-1.3-3.4-9-20.7-27.1-27.2-20.1-7.2-10.5 7.7-2.9 15.9s-48-14-43.6-50.4-13-38.9-13-21.1-28.3-63-15.4-85.3l.4-.7a57.5 57.5 0 0 1 44.5-28c17.4-1.6 36-5.3 43.9-8.9a45.2 45.2 0 0 0 5.4-3 14.4 14.4 0 0 1 15.9 0c1.7 1 3.5 2.1 5.4 3 8.3 3.8 16.5 6.2 30 7.1 22.1 1.4 42.6 12.7 54.7 31.3.6.8 1.1 1.7 1.7 2.6z"/><path fill="#002737" d="M76 59.4c1.5 7.8 2.2 11.7 3.7 19.4s-5.1 12.7-11.1 14.6c-4.1 1-6.2 1.5-10.3 2.7a10.3 10.3 0 0 0-.4-1.4 5.7 5.7 0 0 0 .4-4.6c-4.2-14.7-8.4-29.4-12.5-44.2a5 5 0 0 0-3.1-3.5l-.4-1.5c8.6-2.5 12.9-3.6 21.6-5.4 3.7-.8 7.2 1.1 8 4.2s1.1 5.4 1.7 9-.7 4.9-3.4 6.3a5.4 5.4 0 0 1 5.8 4.4zM57 54l4.5-1.2c2.3-.5 3.8-2.3 3.6-4.2l-1.3-6.1c-.8-2.2-3.3-3-5.6-2.5l-4.4 1.1zm11.1 8a4.3 4.3 0 0 0-4.8-2.2L58.8 61c2.6 10.4 3.9 15.6 6.6 26.1 7.6-2 6.4-7.9 6.4-7.9zm39.4-32.7c.1 2.1.2 3.2.3 5.3h-1.9s-1.4-1.4-5-1.2l-11.4 1.4c.5 4.5.8 6.8 1.4 11.3l6.8-.8c3.6-.4 5-2.1 5-2.1h1.7c.4 4.1.5 6.2.9 10.4h-1.7s-1.6-1.4-5.1-1.1l-6.7.8C93.3 64.4 94 70 95.4 81.1c4.2-.6 6.3-.8 10.5-1.2a5.6 5.6 0 0 0 3.3-1.7h1.6c.2 3.4.3 5.2.6 8.6a239.6 239.6 0 0 0-23.9 2.8c-.1-.6-.2-.9-.3-1.4a5.7 5.7 0 0 0 .9-4.4L80.9 38a5.3 5.3 0 0 0-2.6-3.8c-.1-.6-.1-.9-.2-1.5a290.7 290.7 0 0 1 29.4-3.4zM141.6 85a7.6 7.6 0 0 0-.1 1.5c-4.2-.2-6.3-.3-10.5-.3v-1.5a4.9 4.9 0 0 0 1.6-3.8c-.1-2.1-.2-3.2-.4-5.4l-6.2 3.4c-.1.8-.1 1.2-.2 2a5.9 5.9 0 0 0 1.6 3.8v1.5c-4.2 0-6.3 0-10.5.2v-1.5a5.1 5.1 0 0 0 1.3-3.2c1.1-15.8 2.3-31.7 3.8-47.5a4.7 4.7 0 0 0-2-3.9v-1.5c6.5-.2 9.8-.2 16.3 0 1.7 17.6 3 35.3 3.9 53a4.8 4.8 0 0 0 1.4 3.2zm-10.2-17.6c-.7-8.1-1.1-12.2-2-20.4-1.1 9.2-1.6 13.7-2.5 22.9zm39.7 20.9c-.1.6-.2.9-.3 1.5-4.1-.7-6.2-1-10.3-1.5 0-.6.1-.9.1-1.5a5.7 5.7 0 0 0 2.2-4.1c.9-6.6 1.3-9.9 2.2-16.5a4.1 4.1 0 0 0-3-3.8l-5-.5c-.8 8-1.3 12.1-2.1 20.2a5.6 5.6 0 0 0 1.2 4.1c-.1.6-.1.9-.2 1.5-4.2-.5-6.3-.6-10.5-.9 0-.6.1-.9.1-1.5a5.6 5.6 0 0 0 1.9-4.2c1.2-15.3 2.3-30.5 3.4-45.8a4.9 4.9 0 0 0-1.6-4.4 7.6 7.6 0 0 0 .1-1.5c6.8.4 10.2.8 17 1.6S177 37.1 177 42.4s-1.4 8-2.2 13.3a9.9 9.9 0 0 1-3.5 4.9 10 10 0 0 1 1.8 5.8c-1.2 7-1.8 10.5-2.9 17.4a5.4 5.4 0 0 0 .9 4.5zm-2.3-49.8c0-1.9-1.8-3.7-4.2-3.9l-4.7-.6c-.9 8.8-1.4 13.1-2.3 21.9l5.5.5a3.9 3.9 0 0 0 3.6-2.7c.9-6.1 1.3-9.2 2.1-15.2zm32.3 47.8c-.1.2-.2.3-.2.4a11.7 11.7 0 0 1-12.6 6.7c-5.5-1.4-8.2-2-13.6-3 .1-.6.1-.9.2-1.5a5.1 5.1 0 0 0 2.4-3.9c3-15 5.9-30.1 8.8-45.1a5 5 0 0 0-1.1-4.6 8 8 0 0 0 .3-1.5c6.7 1.3 10.1 2 16.7 3.6s10.1 7.4 9.5 12.7c-3.5 12.1-7 24.2-10.4 36.2zm2.6-41a3.5 3.5 0 0 0-1.2-3 4.4 4.4 0 0 0-2.5-1.4l-4.7-1.1-10.2 45.5 3.9.9 1 .2a4.2 4.2 0 0 0 3.7-2.5c3.3-12.9 6.7-25.8 10-38.6zM86.5 112.4v-3.6a4.1 4.1 0 0 0-4-3.5 4.1 4.1 0 0 0-4 4v41.1a3.9 3.9 0 0 0 4 3.5 4.1 4.1 0 0 0 4-3.5v-10.3c0-6.3-6.7-5.9-6.7-5.9v-1.6h15.9v1.6s-1.6 1.2-1.6 4.4v12.6a11.6 11.6 0 0 1-23 0v-39.7a11.6 11.6 0 0 1 23 0v.8c0 3.2 1.6 4.4 1.6 4.4v1.7H84.9v-1.7s1.6-1.2 1.6-4.3zm38-11v5.5h-1.6s-1.1-1.6-4.2-1.6H109v11.8h6c3.2 0 4.5-1.6 4.5-1.6h1.6v10.9h-1.6s-1.3-1.7-4.5-1.7h-6v29.2h10.6a4.7 4.7 0 0 0 3.3-1.6h1.6v9.1H99.7v-1.6s1.6-1.2 1.7-4.3v-48.2c-.1-3.1-1.7-4.3-1.7-4.3v-1.6zm31.1 58.4v1.6h-10.8v-1.6a5 5 0 0 0 1.6-3.9l-.5-5.7-6.2 3.6-.2 2.1a5.5 5.5 0 0 0 1.6 3.9v1.6h-10.8v-1.6a5.3 5.3 0 0 0 1.5-3.3c.1-.2 4.8-49.3 4.8-49.3a5.5 5.5 0 0 0-1.6-4.2v-1.5h13.7l5.4 55a5.3 5.3 0 0 0 1.5 3.3zM145 141.9l-2-21.3-2.3 23.8zm41 17.9v1.6h-10.7v-1.6a5.7 5.7 0 0 0 1.6-4.4V138a4.4 4.4 0 0 0-3.3-3.5h-4.7v21.2a5.5 5.5 0 0 0 1.6 4.1v1.6h-10.8v-1.6a5.7 5.7 0 0 0 1.6-4.4v-47.9c0-3.2-1.6-4.4-1.6-4.4v-1.6h14.2a11.5 11.5 0 0 1 10.4 10.1v14.1a9.8 9.8 0 0 1-2.4 5.5 12.1 12.1 0 0 1 2.5 5.8v18.4a5.7 5.7 0 0 0 1.6 4.4zm-9.1-51a4.2 4.2 0 0 0-4-3.5h-4v22.9h5a4.1 4.1 0 0 0 3-3.3z"/><path fill="#fff" d="M91.1 223.6v2.5h-.7a2.3 2.3 0 0 0-1.9-.7h-4.4v5.4h2.7a2.6 2.6 0 0 0 2.1-.8h.7v5h-.7a2.6 2.6 0 0 0-2.1-.8h-2.7v13.3h4.8a2.5 2.5 0 0 0 1.5-.7h.7v4.1H79.9v-.7a2.7 2.7 0 0 0 .7-2v-21.9a2.3 2.3 0 0 0-.7-1.9v-.8zm13.1 7.7h-.7c0-.1-1.8-1.6-2.7-1.5v-2.9a1.9 1.9 0 0 0-1.9-1.5 1.6 1.6 0 0 0-1.6 1.8v4.5a1.7 1.7 0 0 0 1.8 1.5 5.2 5.2 0 0 1 5.1 4.6v8.5a5.2 5.2 0 0 1-5.2 4.6 5.5 5.5 0 0 1-5.3-4.9v-7.7h.8a3.8 3.8 0 0 0 2 1.7h.8v5.7a1.6 1.6 0 0 0 1.7 1.5 1.8 1.8 0 0 0 1.8-1.5v-7.6a1.9 1.9 0 0 0-1.7-1.5 5 5 0 0 1-4-1.7 5.9 5.9 0 0 1-1.4-3.1v-3a5.3 5.3 0 0 1 5-5.3h.3a5.1 5.1 0 0 1 5.2 4.6zm13.2-7.7v2.5h-.8a2.4 2.4 0 0 0-2-.7h-.8v22.7a2.6 2.6 0 0 0 .8 2.1v.7h-5v-.7a2.6 2.6 0 0 0 .8-2.1v-22.7h-.8a2.8 2.8 0 0 0-2.1.7h-.7v-2.5zm5 27.3a2.5 2.5 0 1 1 2.5-2.5 2.5 2.5 0 0 1-2.5 2.5zm21.2-4.1v4.1h-10.5v-9.8a6.4 6.4 0 0 1 4.7-5.4 3.7 3.7 0 0 0 2.4-2.8V227a1.9 1.9 0 0 0-1.9-1.6 1.8 1.8 0 0 0-1.7 1.8v2.2a2.6 2.6 0 0 0 .7 1.8v.7h-4.2v-2.7a5.4 5.4 0 0 1 5.2-5.5 5.3 5.3 0 0 1 5.3 4.8v4.4a7 7 0 0 1-3.4 5.4c-1.4.8-2.9 1-3.6 2.5v6.7h4.4a2.2 2.2 0 0 0 1.8-.7zm12.8-18.3v17.8a5.3 5.3 0 0 1-5.2 4.6 5.2 5.2 0 0 1-5.2-4.6v-17.4a5.2 5.2 0 0 1 5.3-5.2 5.2 5.2 0 0 1 5.2 4.6zM153 227a1.8 1.8 0 0 0-1.9-1.6 1.8 1.8 0 0 0-1.6 1.8v18.7a1.7 1.7 0 0 0 1.7 1.6 1.8 1.8 0 0 0 1.8-1.6zm16.2 23.1v.7h-5v-.7a2.5 2.5 0 0 0 .8-2v-17.5a13.8 13.8 0 0 1-4.6 3l-1.3-3.1c2.2-1.4 4.9-2.6 5.9-5.5v-1.4h4.2v.7a2.5 2.5 0 0 0-.8 2v21.8a2.5 2.5 0 0 0 .8 2zm12.3-12.8v8.7a5.2 5.2 0 0 1-10.4 0v-13.8a9.5 9.5 0 0 1 7.5-8.6l.7 3.3a6.3 6.3 0 0 0-4.9 5.9 5.3 5.3 0 0 1 7.1 4.2zm-3.4.1a1.7 1.7 0 0 0-1.7-1.6 1.8 1.8 0 0 0-1.8 1.6v8.5a1.8 1.8 0 0 0 1.8 1.6 1.7 1.7 0 0 0 1.7-1.6z"/></svg>