<svg id="Layer_1" data-name="Layer 1" xmlns="http://www.w3.org/2000/svg" width="16" height="16" viewBox="0 0 16 16"><title>logo-16</title><path d="M13.7,7.2A6.7,6.7,0,0,0,6.8,5.4l-1.1.5a2.7,2.7,0,0,0-.8.7H4.7a4.2,4.2,0,0,1-1-4,.8.8,0,0,0-.4-.9.8.8,0,0,0-.9.4A6,6,0,0,0,3.8,7.8c-.9,1.4-1.5,3.5-1.6,6.7v.2h0a.8.8,0,0,0,.4.6h.6c.2-.2.4-.4.4-.6v-.3A10.9,10.9,0,0,1,4.9,8.8l.6.4a6.3,6.3,0,0,0,8.2-1.1A.7.7,0,0,0,13.7,7.2ZM6.3,8l-.6-.3a3.9,3.9,0,0,1,1.6-1,5.6,5.6,0,0,1,4.9.9A4.8,4.8,0,0,1,6.3,8Z" fill="#332a2d"/><path d="M7,.6A5.2,5.2,0,0,0,4.4,4.9a3.3,3.3,0,0,0,.4,1.7l.5-.3A4.9,4.9,0,0,0,7,.6Z" fill="#332a2d"/><circle cx="9.3" cy="2.9" r="1.3" fill="#332a2d"/></svg>