<svg xmlns="http://www.w3.org/2000/svg" width="64" height="64" viewBox="0 0 64 64"><path fill="#fff" d="M57.1 12.9c3.4 5.5-3.2 24.9-3.2 20.4s-4.3-3.8-3.2 5.3-12.8 14.6-10.9 12.6 4.3-5.8-.7-4a11.7 11.7 0 0 0-6.8 6.8v.2a.1.1 0 0 0-.1.1V54a11.8 11.8 0 0 0-6.7-6.8c-5.1-1.8-2.7 1.9-.8 4s-11.9-3.5-10.9-12.6-3.2-9.7-3.2-5.3-7.1-15.7-3.8-21.2c0-.1 0-.2.1-.2a14.2 14.2 0 0 1 11.1-7c4.3-.4 9-1.3 10.9-2.2l1.4-.8a3.5 3.5 0 0 1 3.9 0l1.4.8a22.3 22.3 0 0 0 7.5 1.8 17.3 17.3 0 0 1 13.6 7.7z"/><path fill="#002737" d="M19.7 15.2c.4 1.9.5 2.9.9 4.8a3.7 3.7 0 0 1-2.8 3.7l-2.5.6a.4.4 0 0 1-.1-.3 1.5 1.5 0 0 0 .1-1.2l-3.2-11a1.4 1.4 0 0 0-.7-.9v-.3a47.5 47.5 0 0 1 5.4-1.4 1.7 1.7 0 0 1 2 1.1 17 17 0 0 0 .4 2.2 1.6 1.6 0 0 1-.9 1.6 1.3 1.3 0 0 1 1.4 1.1zM15 13.8l1.1-.3a1.1 1.1 0 0 0 .9-1c-.2-.6-.2-.9-.4-1.5a1.1 1.1 0 0 0-1.3-.7l-1.2.3zm2.7 2c-.1-.4-.7-.6-1.2-.5l-1.1.3c.7 2.6 1 3.9 1.6 6.5 1.9-.5 1.7-2 1.7-2zm9.8-8.1a5.7 5.7 0 0 1 .1 1.3h-.4a2.3 2.3 0 0 0-1.3-.3l-2.8.3c.1 1.2.2 1.7.3 2.9l1.7-.2a1.6 1.6 0 0 0 1.2-.6h.5c.1 1 .1 1.6.2 2.6h-.4a1.9 1.9 0 0 0-1.3-.2l-1.7.2c.4 2.7.6 4.1.9 6.9l2.7-.3a1.2 1.2 0 0 0 .8-.4h.4c0 .9.1 1.3.1 2.2a56 56 0 0 0-5.9.7.6.6 0 0 1-.1-.4 1.3 1.3 0 0 0 .2-1.1c-.7-4.5-1.1-6.8-1.8-11.4a1.1 1.1 0 0 0-.6-.9v-.5a60.3 60.3 0 0 1 7.2-.8zm8.6 13.9v.3h-2.7v-.4a1.2 1.2 0 0 0 .4-.9 6.1 6.1 0 0 0-.1-1.4l-1.5.8c0 .2-.1.3-.1.5a1.8 1.8 0 0 0 .4 1v.4h-2.6v-.3a1.3 1.3 0 0 0 .3-.9l1-11.8a1.5 1.5 0 0 0-.5-1v-.4h4s1 13.2 1 13.3a1.7 1.7 0 0 0 .4.8zm-2.6-4.4l-.5-5.1c-.3 2.3-.4 3.4-.6 5.7zm9.9 5.2a.8.8 0 0 1-.1.4l-2.5-.4V22a1.5 1.5 0 0 0 .5-1c.3-1.7.4-2.5.6-4.1a1.2 1.2 0 0 0-.7-1h-1.3l-.5 5a1.3 1.3 0 0 0 .3 1.1v.3L37 22v-.4a1.2 1.2 0 0 0 .5-1c.3-4.6.5-6.9.9-11.4a1.4 1.4 0 0 0-.4-1.1v-.4l4.2.4a3.1 3.1 0 0 1 2.7 2.8c-.2 1.4-.3 2-.6 3.4a2.3 2.3 0 0 1-.8 1.2 2.3 2.3 0 0 1 .4 1.4l-.7 4.4a1.5 1.5 0 0 0 .2 1.1zM42.8 10a1.1 1.1 0 0 0-1-1h-1.2l-.5 5.4h1.3a.9.9 0 0 0 .9-.7zm8.1 11.9h-.1a2.9 2.9 0 0 1-3.1 1.7l-3.4-.8a.4.4 0 0 1 .1-.3 2 2 0 0 0 .6-1c.9-4.5 1.3-6.8 2.2-11.3a1.3 1.3 0 0 0-.3-1.1v-.3l4.1.9a3.1 3.1 0 0 1 2.4 3.2l-2.5 9zm.6-10.3a.6.6 0 0 0-.3-.7.6.6 0 0 0-.6-.3l-1.1-.3c-1.1 4.5-1.6 6.8-2.6 11.3l1 .3h.2a1.1 1.1 0 0 0 1-.6c1-3.9 1.5-5.8 2.4-9.7zM21.8 28.4v-.9a1.1 1.1 0 0 0-1-.9 1.1 1.1 0 0 0-1 1v10.3a1 1 0 0 0 1 .8.9.9 0 0 0 1-.8v-2.6c0-1.6-1.7-1.5-1.7-1.5v-.4h4v.4a1.4 1.4 0 0 0-.4 1.1v3.2a2.9 2.9 0 0 1-5.8 0v-9.8a2.9 2.9 0 0 1 2.9-2.5 2.8 2.8 0 0 1 2.9 2.5v.2a1.4 1.4 0 0 0 .4 1.1v.4h-2.7v-.4a1.4 1.4 0 0 0 .4-1.2zm9.5-2.7V27h-.4a1.3 1.3 0 0 0-1-.4h-2.5v3h1.5a1.4 1.4 0 0 0 1.1-.4h.4v2.7H30a1.4 1.4 0 0 0-1.1-.4h-1.5v7.2h2.7a.9.9 0 0 0 .8-.3h.4v2.2h-6.2v-.4a1.3 1.3 0 0 0 .4-1V27.1c0-.8-.4-1-.4-1v-.4zm7.8 14.5v.4h-2.7v-.4a1.8 1.8 0 0 0 .4-1l-.2-1.4-1.5.9v.5a1.8 1.8 0 0 0 .4 1v.4h-2.8v-.4a1.2 1.2 0 0 0 .4-.8c0-.1 1.2-12.3 1.2-12.3a1.3 1.3 0 0 0-.4-1v-.4h3.4l1.4 13.7a1.2 1.2 0 0 0 .4.8zm-2.7-4.5l-.5-5.3-.6 6zm10.2 4.5v.4H44v-.4a1.4 1.4 0 0 0 .4-1.1v-4.3a1.2 1.2 0 0 0-.9-.9h-1.1v5.3a1.3 1.3 0 0 0 .4 1v.4h-2.7v-.4a1.4 1.4 0 0 0 .4-1.1V27.2a1.4 1.4 0 0 0-.4-1.1v-.4h3.5a2.9 2.9 0 0 1 2.6 2.5v3.5a2.5 2.5 0 0 1-.6 1.4 2.5 2.5 0 0 1 .6 1.4v4.6a1.4 1.4 0 0 0 .4 1.1zm-2.2-12.7a1.1 1.1 0 0 0-1-.9h-1v5.7h1.2a1.1 1.1 0 0 0 .8-.8z"/><path fill="#fff" d="M23 56.1v.7h-.2s-.1-.2-.5-.2h-1.1v1.3h.7c.4 0 .5-.2.5-.2h.2V59h-.2s-.1-.2-.5-.2h-.7v3.3h1.2a.4.4 0 0 0 .4-.2h.2v1h-2.8a1.2 1.2 0 0 0 .1-.5v-5.6a1.2 1.2 0 0 0-.1-.5v-.2zm3.2 2h-.1a1.6 1.6 0 0 0-.7-.4V57c-.1-.2-.2-.4-.5-.4a.4.4 0 0 0-.4.4v1.2c0 .2.2.3.5.3a1.2 1.2 0 0 1 1.2 1.2v2.1a1.2 1.2 0 0 1-1.3 1.1 1.4 1.4 0 0 1-1.3-1.2v-1.9h.2a.7.7 0 0 0 .5.4h.2v1.4a.4.4 0 0 0 .4.4c.3 0 .4-.2.5-.4v-1.8c-.1-.2-.2-.4-.4-.4a1.5 1.5 0 0 1-1-.4 2 2 0 0 1-.4-.8v-.7a1.5 1.5 0 0 1 1.3-1.4 1.2 1.2 0 0 1 1.3 1.2zm3.3-2v.7h-.2s-.1-.2-.5-.2h-.2v5.7a.8.8 0 0 0 .2.5h-1.2a.8.8 0 0 0 .2-.5v-5.7h-.2c-.4 0-.5.2-.5.2h-.2v-.7zm1.3 6.8a.5.5 0 0 1-.6-.6.6.6 0 0 1 .6-.6.6.6 0 0 1 .6.6.6.6 0 0 1-.6.6zm5.2-1v1h-2.6v-2.4a1.6 1.6 0 0 1 1.2-1.3 1.1 1.1 0 0 0 .6-.8V57a.5.5 0 0 0-.5-.4.4.4 0 0 0-.4.4v.6a.4.4 0 0 0 .2.4v.2h-1.1v-.7a1.3 1.3 0 0 1 1.3-1.3 1.2 1.2 0 0 1 1.3 1.2v1.1a1.6 1.6 0 0 1-.8 1.3c-.3.2-.7.2-.9.6v1.7h1.1a.8.8 0 0 0 .5-.2zm3.3-4.5v4.4a1.2 1.2 0 0 1-1.3 1.1 1.4 1.4 0 0 1-1.3-1.1v-4.3a1.3 1.3 0 0 1 1.3-1.3 1.2 1.2 0 0 1 1.3 1.1zm-.9-.4a.5.5 0 0 0-.5-.4.4.4 0 0 0-.4.4v4.7a.5.5 0 0 0 .5.4.4.4 0 0 0 .4-.4zm4 5.7v.2h-1.2v-.2s.2-.1.2-.5v-4.3a2.6 2.6 0 0 1-1.2.7l-.3-.7a3.4 3.4 0 0 0 1.5-1.4v-.4h1v.2a.8.8 0 0 0-.2.5v5.4c0 .4.2.5.2.5zm3.1-3.2v2.2a1.2 1.2 0 0 1-1.3 1.2 1.4 1.4 0 0 1-1.3-1.2v-3.4a2.4 2.4 0 0 1 1.9-2.2l.2.9a1.6 1.6 0 0 0-1.3 1.4 1.4 1.4 0 0 1 1.8 1.1zm-.8.1c-.1-.2-.2-.4-.5-.4a.4.4 0 0 0-.4.4v2.1a.4.4 0 0 0 .4.4c.3 0 .4-.2.5-.4z"/></svg>