<svg xmlns="http://www.w3.org/2000/svg" width="196" height="196" viewBox="0 0 196 196"><path fill="#ef6543" d="M92.9 44.4l-55.7 96.5A12.1 12.1 0 0 0 47.7 159h111.4a12.1 12.1 0 0 0 10.5-18.1l-55.8-96.5a12 12 0 0 0-20.9 0z"/><path fill="none" stroke="#000001" stroke-linecap="round" stroke-miterlimit="10" stroke-width="10" d="M79.8 42.5L27.6 133a11.3 11.3 0 0 0 9.8 17h104.5a11.3 11.3 0 0 0 9.8-17L99.4 42.5a11.3 11.3 0 0 0-19.6 0z"/><path fill="#000001" d="M83.5 129c0-2.8.5-4.8 1.7-6a6.6 6.6 0 0 1 9.2.1A9.4 9.4 0 0 1 96 129a8.5 8.5 0 0 1-1.7 5.6 5.4 5.4 0 0 1-4.6 2 5.5 5.5 0 0 1-4.5-1.9c-1.2-1.3-1.7-3.2-1.7-5.7zm.7-65.4h10.9l-1.3 50.3h-8.2z"/></svg>