<svg xmlns="http://www.w3.org/2000/svg" width="196" height="196" viewBox="0 0 196 196"><g fill="none" stroke="#000001" stroke-linecap="round" stroke-miterlimit="10"><path stroke-width="9.12" d="M132.6 88.2c-1.8 10.2-6.5 22.2-6.5 33.5 0 28-12.2 60.7-29.4 60.7s-29.5-32.7-29.5-60.7c0-11.3-4.9-23.2-6.8-33.4m72.7 13.9a5.8 5.8 0 0 1 5.8 5.8v8.2a5.8 5.8 0 0 1-5.8 5.9h-5"/><rect width="23.1" height="46.26" x="85.4" y="99" stroke-width="9.12" rx="11.6" ry="11.6"/><rect width="23.1" height="23.13" x="85.4" y="99" stroke-width="9.12" rx="11.6" ry="11.6"/><path stroke-width="9.53" d="M83.4 21.3L49.5 59.5a17.4 17.4 0 0 0 13 29.1h67.9c15.1 0 23.2-17.8 13.1-29.1l-33.9-38.2a17.4 17.4 0 0 0-26.2 0z"/><circle cx="97.3" cy="44.2" r="11.3" stroke-width="9.12"/><circle cx="82.8" cy="63.5" r="11.3" stroke-width="9.12"/><circle cx="110.2" cy="63.5" r="11.3" stroke-width="9.12"/></g></svg>