<svg xmlns="http://www.w3.org/2000/svg" width="196" height="196" viewBox="0 0 196 196"><path fill="#8fcb86" d="M153.6 63.3l-33.9-38.2a17.4 17.4 0 0 0-26.2 0L59.6 63.3c-9.6 10.7-2.8 27.4 11 29 1.9 10.1 6.8 22 6.8 33.2 0 28 12.1 60.7 29.4 60.7s29.4-32.7 29.4-60.7c0-1.2.1-2.3.2-3.5h3.7a5.8 5.8 0 0 0 5.9-5.9v-8.2a5.8 5.8 0 0 0-5.6-5.8c.9-3.4 1.7-6.7 2.2-9.8 13.8-1.6 20.6-18.3 11-29z"/><path fill="none" stroke="#000001" stroke-linecap="round" stroke-miterlimit="10" stroke-width="9.12" d="M132.6 84.2c-1.8 10.2-6.5 22.2-6.5 33.5 0 28-12.2 60.7-29.4 60.7s-29.5-32.7-29.5-60.7c0-11.3-4.9-23.2-6.8-33.4m72.7 13.9a5.8 5.8 0 0 1 5.8 5.8v8.2a5.8 5.8 0 0 1-5.8 5.9h-5"/><rect width="23.1" height="46.26" x="85.4" y="95" fill="none" stroke="#000001" stroke-linecap="round" stroke-miterlimit="10" stroke-width="9.12" rx="11.6" ry="11.6"/><rect width="23.1" height="23.13" x="85.4" y="95" fill="none" stroke="#000001" stroke-linecap="round" stroke-miterlimit="10" stroke-width="9.12" rx="11.6" ry="11.6"/><path fill="none" stroke="#000001" stroke-linecap="round" stroke-miterlimit="10" stroke-width="9.53" d="M83.4 17.3L49.5 55.5a17.4 17.4 0 0 0 13 29.1h67.9c15.1 0 23.2-17.8 13.1-29.1l-33.9-38.2a17.4 17.4 0 0 0-26.2 0z"/><circle cx="97.3" cy="40.2" r="11.3" fill="none" stroke="#000001" stroke-linecap="round" stroke-miterlimit="10" stroke-width="9.12"/><circle cx="82.8" cy="59.5" r="11.3" fill="none" stroke="#000001" stroke-linecap="round" stroke-miterlimit="10" stroke-width="9.12"/><circle cx="110.2" cy="59.5" r="11.3" fill="none" stroke="#000001" stroke-linecap="round" stroke-miterlimit="10" stroke-width="9.12"/></svg>