<svg xmlns="http://www.w3.org/2000/svg" width="196" height="196" viewBox="0 0 196 196"><path fill="#ffc681" d="M109.1 24.5l22 44.6 49.3 7.2a8.4 8.4 0 0 1 4.7 14.4l-35.7 34.8 8.5 49.1a8.5 8.5 0 0 1-12.3 8.9l-44.1-23.2-44.1 23.2a8.5 8.5 0 0 1-12.3-8.9l8.5-49.1-35.7-34.8a8.4 8.4 0 0 1 4.7-14.4l49.3-7.2 22-44.6a8.5 8.5 0 0 1 15.2 0z"/><path fill="#000001" d="M94 24.2l20.7 41.9 2.3 4.7 5.2.7 46.2 6.7-33.4 32.6-3.8 3.7.9 5.2 7.9 46L98.7 144l-4.7-2.5-4.7 2.5L48 165.7l7.9-46 .9-5.2-3.8-3.7-33.4-32.6 46.2-6.7 5.2-.7 2.3-4.7L94 24.2m0-12a8.4 8.4 0 0 0-7.6 4.8l-22 44.6-49.3 7.2a8.4 8.4 0 0 0-4.7 14.4L46.1 118l-8.5 49.1A8.5 8.5 0 0 0 46 177a8.1 8.1 0 0 0 3.9-1L94 152.8l44.1 23.2a8.1 8.1 0 0 0 3.9 1 8.5 8.5 0 0 0 8.4-9.9l-8.5-49.1 35.7-34.8a8.4 8.4 0 0 0-4.7-14.4l-49.3-7.2-22-44.6a8.4 8.4 0 0 0-7.6-4.8z"/></svg>