<svg xmlns="http://www.w3.org/2000/svg" width="196" height="196" viewBox="0 0 196 196"><g fill="#fff"><path d="M179.4 60.8a9 9 0 0 0-4-1.3l-27.5-2.7h-.3l-9.3-.9c-6-.7-12-1.6-18-2.2l-11.9-1.2L96.7 51l-7.8-.8-12.7-1.5-11.3-1.1c-1.5-.2-3-.2-4.4-.5h-.3l-1.3-12.8a8 8 0 0 0-.5-2.1 9.4 9.4 0 0 0-6.3-7.3l-25.7-8.8a9.7 9.7 0 0 0-12.2 6l-.2.6a9.7 9.7 0 0 0 6 12.2L40.8 42l6.8 68.1c.1.4.1.7.2 1s-.6 3.5-.9 5.2c-1 5.9-2.1 11.7-3.1 17.6-.5 2.7-.9 5.4.5 8a8.6 8.6 0 0 0 8.1 4.9h107.3a8.9 8.9 0 1 0 .7-17.8H62.8c.6-3.5 1.1-7 1.8-10.4 0-.4.5-.8.9-.9h.2l104.9.3a8.4 8.4 0 0 0 9.3-7.6l4.1-41.2a8.7 8.7 0 0 0-4.6-8.4z"/><circle cx="65.6" cy="166.4" r="13.2"/><circle cx="144.1" cy="166.4" r="13.2"/></g></svg>